<svg width="151" height="138" viewBox="0 0 151 138" fill="none" xmlns="http://www.w3.org/2000/svg">
<g clip-path="url(#clip0_261_531)">
<path d="M118.789 123.499C117.937 127.106 115.438 131.329 111.127 132.973C107.634 134.31 103.229 134.12 99.5339 133.493C90.5693 131.968 88.8996 126.503 82.3626 122.54C76.2165 118.815 68.0573 117.478 60.7151 117.833C53.3492 118.176 45.6636 120.056 39.1031 123.014C34.153 125.249 31.2872 129.247 25.899 130.938C21.92 132.192 17.0647 132.18 13.7252 130.028C8.14752 126.42 9.52122 119.264 12.5055 114.012C15.4897 108.761 19.6581 103.249 17.9884 97.6302C15.691 89.8827 3.45801 86.2632 0.88825 78.5749C-1.79993 70.5317 1.70536 61.4594 9.41464 56.6926C14.3884 53.6173 20.2029 51.2871 23.8148 46.9935C29.3688 40.3933 28.149 31.1436 31.9622 23.6564C36.2136 15.2938 47.4044 10.4797 57.6243 11.5561C70.0349 12.8572 79.106 22.5563 91.8719 22.1542C100.233 21.8821 109.209 17.2573 116.267 20.8886C122.176 23.9402 122.377 30.8125 121.276 36.4309C120.163 42.0374 118.623 48.3774 122.816 52.9313C129.388 60.0755 146.026 58.1948 150.242 66.4273C153.238 72.2941 147.08 78.6458 140.413 81.9696C133.734 85.2933 125.717 87.5643 121.454 92.8989C117.972 97.2635 117.771 102.811 118.316 107.98C118.86 113.161 120.009 118.401 118.813 123.499H118.789Z" fill="#D8E5F3"/>
<path d="M85.5124 67.823C85.394 67.823 85.2874 67.7639 85.2282 67.6574C85.015 67.2789 84.8137 66.8768 84.6361 66.4864C84.565 66.3208 84.6361 66.1316 84.8019 66.0606C84.9677 65.9896 85.1571 66.0606 85.2282 66.2262C85.394 66.6047 85.5834 66.9832 85.7966 67.3499C85.8795 67.5037 85.8321 67.7047 85.6782 67.7875C85.6308 67.8112 85.5716 67.823 85.5242 67.823H85.5124Z" fill="#8ABAE7"/>
<path d="M84.1151 64.2983C83.973 64.2983 83.8427 64.2037 83.8072 64.0617C83.594 63.2337 83.4519 62.3821 83.3809 61.5305C83.369 61.3531 83.4993 61.1993 83.6769 61.1875C83.8546 61.1756 84.0085 61.3057 84.0204 61.4832C84.0914 62.2993 84.2335 63.1155 84.4348 63.9079C84.4822 64.0854 84.3756 64.251 84.198 64.2983C84.1743 64.2983 84.1388 64.2983 84.1151 64.2983ZM83.6769 59.2949C83.6769 59.2949 83.6651 59.2949 83.6532 59.2949C83.4756 59.2831 83.3454 59.1293 83.3572 58.9519C83.4282 58.0885 83.5585 57.2368 83.7598 56.4089C83.8072 56.2314 83.973 56.1368 84.1506 56.1723C84.3283 56.2196 84.423 56.3852 84.3875 56.5626C84.1862 57.3551 84.0559 58.1713 83.9967 58.9992C83.9848 59.1648 83.8427 59.2949 83.6769 59.2949ZM92.1915 56.3261C92.1915 56.3261 92.156 56.3261 92.1441 56.3261C91.2915 56.1841 90.4625 55.6992 89.823 54.954C89.7046 54.8239 89.7283 54.611 89.8586 54.5045C89.9888 54.3862 90.202 54.4099 90.3086 54.54C90.8415 55.1669 91.5283 55.5809 92.2388 55.6992C92.4165 55.7228 92.5349 55.8884 92.4994 56.0658C92.4757 56.2196 92.3336 56.3379 92.1796 56.3379L92.1915 56.3261ZM94.5126 55.5927C94.4297 55.5927 94.3468 55.5572 94.2876 55.4981C94.1573 55.368 94.1573 55.1669 94.2876 55.0486C94.7968 54.54 95.1165 53.783 95.1757 52.9905C95.1876 52.8131 95.3415 52.683 95.5191 52.6948C95.6968 52.7066 95.827 52.8604 95.8152 53.0378C95.7441 53.9959 95.3534 54.8948 94.7494 55.5099C94.6902 55.569 94.6073 55.6045 94.5244 55.6045L94.5126 55.5927ZM84.8848 54.4217C84.8848 54.4217 84.8019 54.4217 84.7546 54.3981C84.5888 54.3271 84.5177 54.1378 84.5888 53.9722C84.9559 53.1443 85.394 52.3873 85.8796 51.7367C85.9862 51.5948 86.1875 51.5593 86.3296 51.6657C86.4717 51.7722 86.5072 51.9733 86.4006 52.1152C85.9388 52.7303 85.5243 53.4518 85.1809 54.2325C85.1217 54.3507 85.0151 54.4217 84.8848 54.4217ZM89.1007 52.7776C88.9349 52.7776 88.8046 52.6593 88.7809 52.4937C88.7572 52.2926 88.7454 52.0915 88.7454 51.8786C88.7454 51.2399 88.852 50.5657 89.0651 49.8678C89.0651 49.8678 89.0651 49.8678 89.0651 49.856C88.7336 50.0098 88.4138 50.199 88.1059 50.4119C87.9638 50.5184 87.7625 50.4829 87.6559 50.341C87.5493 50.199 87.5849 49.998 87.727 49.8915C88.0822 49.6431 88.4612 49.4184 88.852 49.2409C89.2665 49.0517 89.7046 48.9216 90.1546 48.8388C90.3323 48.8033 90.498 48.9216 90.5336 49.099C90.5691 49.2764 90.4507 49.442 90.273 49.4775C90.0125 49.5248 89.752 49.5958 89.5033 49.6786C89.6454 49.7496 89.7165 49.9033 89.6691 50.0571C89.4796 50.684 89.3849 51.2991 89.3849 51.8786C89.3849 52.0561 89.3849 52.2453 89.4086 52.4227C89.4322 52.6002 89.302 52.7539 89.1244 52.7776C89.1125 52.7776 89.1007 52.7776 89.0888 52.7776H89.1007ZM94.7968 50.956C94.702 50.956 94.6073 50.9087 94.5481 50.8378C94.0862 50.2582 93.4231 49.8205 92.6296 49.584C92.4639 49.5366 92.3573 49.3592 92.4165 49.1818C92.4639 49.0162 92.6415 48.9098 92.8191 48.9689C93.7428 49.2409 94.5126 49.7496 95.0573 50.4356C95.1639 50.5775 95.1402 50.7786 95.0099 50.8851C94.9507 50.9324 94.8797 50.956 94.8086 50.956H94.7968ZM90.4151 47.999C90.4151 47.999 90.2967 47.9872 90.2494 47.9517C90.0954 47.857 90.048 47.6678 90.1428 47.514C90.5809 46.7807 91.0902 46.0828 91.6467 45.4204C91.7652 45.2903 91.9665 45.2667 92.0967 45.3849C92.227 45.5032 92.2507 45.7043 92.1323 45.8344C91.5994 46.4613 91.1138 47.1355 90.6875 47.8334C90.6283 47.9398 90.5217 47.9872 90.4151 47.9872V47.999ZM93.6836 44.1903C93.5889 44.1903 93.506 44.1548 93.4349 44.072C93.3165 43.9301 93.3402 43.729 93.4704 43.6225C94.1336 43.0784 94.8323 42.5698 95.5784 42.144C95.7323 42.0494 95.9336 42.1085 96.0165 42.2623C96.1113 42.4161 96.052 42.6171 95.8981 42.6999C95.1876 43.1139 94.5126 43.587 93.8849 44.1193C93.8257 44.1666 93.7547 44.1903 93.6836 44.1903ZM98.0178 41.6472C97.8876 41.6472 97.7692 41.5644 97.7218 41.4343C97.6626 41.2687 97.7455 41.0795 97.9113 41.0203C98.1007 40.9494 98.2784 40.8902 98.4679 40.8192C99.0955 40.6182 99.735 40.4407 100.386 40.3225C100.564 40.287 100.73 40.4053 100.765 40.5827C100.801 40.7601 100.682 40.9257 100.505 40.9612C99.8771 41.0795 99.2613 41.2451 98.6692 41.4343C98.4915 41.4934 98.3139 41.5526 98.1363 41.6236C98.1007 41.6354 98.0652 41.6472 98.0178 41.6472ZM105.467 40.8666C105.467 40.8666 105.431 40.8666 105.419 40.8666C104.602 40.7483 103.773 40.701 102.956 40.7128C102.778 40.7128 102.636 40.5709 102.636 40.3934C102.636 40.216 102.778 40.0741 102.956 40.0622C103.809 40.0386 104.673 40.0977 105.526 40.2278C105.703 40.2515 105.822 40.4171 105.798 40.5945C105.774 40.7483 105.632 40.8666 105.478 40.8666H105.467Z" fill="#8ABAE7"/>
<path d="M109.15 41.8957C109.15 41.8957 109.067 41.8957 109.019 41.8721C108.64 41.7065 108.238 41.5645 107.847 41.4344C107.681 41.3753 107.586 41.1978 107.646 41.0323C107.705 40.8667 107.882 40.772 108.048 40.8312C108.463 40.9613 108.877 41.1269 109.28 41.2925C109.446 41.3634 109.517 41.5527 109.446 41.7183C109.398 41.8366 109.28 41.9194 109.15 41.9194V41.8957Z" fill="#8ABAE7"/>
<path d="M29.641 14.5369H12.8013C11.9315 14.5369 11.2263 15.2412 11.2263 16.11V21.7048C11.2263 22.5736 11.9315 23.2779 12.8013 23.2779H29.641C30.5108 23.2779 31.216 22.5736 31.216 21.7048V16.11C31.216 15.2412 30.5108 14.5369 29.641 14.5369Z" fill="#8ABAE7"/>
<path d="M26.5265 17.5767H14.5185C14.3408 17.5767 14.1987 17.4348 14.1987 17.2574C14.1987 17.0799 14.3408 16.938 14.5185 16.938H26.5265C26.7041 16.938 26.8462 17.0799 26.8462 17.2574C26.8462 17.4348 26.7041 17.5767 26.5265 17.5767Z" fill="white"/>
<path d="M21.2212 20.0132H14.5185C14.3408 20.0132 14.1987 19.8713 14.1987 19.6939C14.1987 19.5165 14.3408 19.3745 14.5185 19.3745H21.2212C21.3988 19.3745 21.5409 19.5165 21.5409 19.6939C21.5409 19.8713 21.3988 20.0132 21.2212 20.0132Z" fill="white"/>
<path d="M27.6278 26.3769C27.5449 26.3769 27.462 26.3414 27.4028 26.2823L24.6199 23.5026C24.4897 23.3725 24.4897 23.1714 24.6199 23.0531C24.7502 22.923 24.9515 22.923 25.0699 23.0531L27.8528 25.8328C27.9831 25.9629 27.9831 26.164 27.8528 26.2823C27.7936 26.3414 27.7107 26.3769 27.6278 26.3769Z" fill="black"/>
<path d="M120.818 79.4194L115.998 85.6541L122.24 90.4692L127.06 84.2346L120.818 79.4194Z" fill="#4666C9"/>
<path d="M125.646 73.1831L120.825 79.4177L127.067 84.2329L131.888 77.9983L125.646 73.1831Z" fill="white"/>
<path d="M127.062 84.23L122.241 90.4646L128.483 95.2798L133.304 89.0452L127.062 84.23Z" fill="#8ABAE7"/>
<path d="M131.878 77.9936L127.057 84.2283L133.299 89.0435L138.12 82.8088L131.878 77.9936Z" fill="#F57A3E"/>
<path d="M133.485 89.3268C133.379 89.3978 133.225 89.3978 133.118 89.315L120.636 79.6868C120.494 79.5804 120.471 79.3793 120.577 79.2374C120.684 79.0954 120.885 79.0718 121.027 79.1782L133.509 88.8064C133.651 88.9129 133.675 89.1139 133.568 89.2559C133.544 89.2914 133.521 89.315 133.485 89.3268Z" fill="black"/>
<path d="M127.233 84.5127C127.126 84.5837 126.972 84.5837 126.865 84.5009C126.723 84.3944 126.7 84.1933 126.806 84.0514L131.626 77.8179C131.733 77.676 131.934 77.6523 132.076 77.7588C132.218 77.8652 132.242 78.0663 132.135 78.2083L127.315 84.4417C127.315 84.4417 127.268 84.5009 127.233 84.5127Z" fill="black"/>
<path d="M14.412 101.877C14.3883 100.848 14.2462 99.8894 14.0212 99.2152C13.2514 96.9087 11.0014 94.2355 8.4198 93.9162C7.49611 93.7979 6.52505 94.1882 5.93294 94.9097C5.34083 95.6313 5.15135 96.6603 5.44741 97.5356C6.07504 99.4045 8.49085 100.221 9.09481 102.101C9.33165 102.835 9.24876 103.615 9.20139 104.384C9.08297 106.241 10.1961 108.63 12.3514 107.448C13.9146 106.596 14.4475 104.077 14.412 101.888V101.877Z" fill="#D8E5F3"/>
<path d="M145.138 75.8308C145.055 75.8308 144.96 75.7953 144.901 75.7244C144.783 75.5943 144.795 75.3932 144.925 75.2749C147.281 73.1458 148.181 70.8985 147.518 68.793C146.488 65.5048 141.727 62.9262 135.084 62.0628C134.906 62.0391 134.788 61.8735 134.812 61.7079C134.835 61.5305 135.001 61.4122 135.167 61.4359C142.166 62.3466 147.009 65.0198 148.134 68.6038C148.655 70.2597 148.584 72.8383 145.351 75.748C145.292 75.8072 145.209 75.8308 145.138 75.8308Z" fill="white"/>
<path d="M141.586 78.6106C141.491 78.6106 141.396 78.5632 141.325 78.4804C141.218 78.3385 141.242 78.1374 141.384 78.031L143.492 76.3987C143.634 76.2922 143.836 76.3159 143.942 76.4578C144.049 76.5998 144.025 76.8008 143.883 76.9073L141.775 78.5396C141.775 78.5396 141.645 78.6106 141.574 78.6106H141.586Z" fill="white"/>
<path d="M111.755 67.7759L110.156 71.9276L106.106 71.005L107.693 66.8533L111.755 67.7759Z" fill="white"/>
<path d="M106.106 71.0049L104.235 68.8285L105.822 64.6768L107.693 66.8532L106.106 71.0049Z" fill="white"/>
<path d="M107.693 66.8532L105.822 64.6768L109.884 65.5994L111.755 67.7758L107.693 66.8532Z" fill="white"/>
<path d="M111.566 74.5888C111.566 74.5888 111.518 74.5888 111.495 74.5888L104.816 73.0629C104.721 73.0393 104.65 72.9801 104.602 72.8973C104.555 72.8145 104.555 72.7199 104.591 72.6253L107.208 65.7886C107.267 65.6348 107.421 65.552 107.575 65.5875L114.254 67.1133C114.348 67.137 114.42 67.1961 114.467 67.2789C114.514 67.3617 114.514 67.4564 114.479 67.551L111.862 74.3877C111.814 74.5178 111.696 74.5888 111.566 74.5888ZM105.313 72.5188L111.364 73.8909L113.756 67.6574L107.705 66.2854L105.313 72.5188Z" fill="#8ABAE7"/>
<path d="M104.875 73.0749C104.78 73.0749 104.697 73.0394 104.626 72.9684L101.547 69.3845C101.476 69.2899 101.452 69.1716 101.488 69.0651L104.105 62.2284C104.14 62.122 104.235 62.051 104.354 62.0273C104.46 62.0037 104.579 62.051 104.65 62.1338L107.729 65.7177C107.8 65.8124 107.823 65.9307 107.788 66.0371L105.171 72.8738C105.135 72.9803 105.04 73.0512 104.922 73.0749C104.898 73.0749 104.886 73.0749 104.863 73.0749H104.875ZM102.175 69.1006L104.768 72.1286L107.125 65.978L104.531 62.9499L102.175 69.1006Z" fill="#8ABAE7"/>
<path d="M114.183 67.764C114.183 67.764 114.135 67.764 114.112 67.764L107.433 66.2382C107.361 66.2263 107.302 66.1909 107.255 66.1317L104.176 62.5478C104.081 62.4413 104.069 62.2875 104.14 62.1693C104.211 62.051 104.354 61.9918 104.484 62.0273L111.163 63.5532C111.234 63.565 111.293 63.6005 111.34 63.6596L114.419 67.2436C114.514 67.35 114.526 67.5038 114.455 67.6221C114.396 67.7167 114.289 67.7758 114.183 67.7758V67.764ZM107.669 65.6231L113.294 66.9006L110.926 64.1327L105.301 62.8553L107.669 65.6231Z" fill="#8ABAE7"/>
<path d="M42.7623 66.3209C40.2399 66.3209 38.1912 64.2746 38.1912 61.7552C38.1912 59.2357 40.2399 57.1895 42.7623 57.1895C45.2846 57.1895 47.3333 59.2357 47.3333 61.7552C47.3333 64.2746 45.2846 66.3209 42.7623 66.3209ZM42.7623 57.8282C40.5951 57.8282 38.8306 59.5906 38.8306 61.7552C38.8306 63.9197 40.5951 65.6821 42.7623 65.6821C44.9294 65.6821 46.6939 63.9197 46.6939 61.7552C46.6939 59.5906 44.9294 57.8282 42.7623 57.8282Z" fill="#8ABAE7"/>
<path d="M44.1478 60.7025C44.828 60.7025 45.3794 60.1517 45.3794 59.4723C45.3794 58.7929 44.828 58.2422 44.1478 58.2422C43.4677 58.2422 42.9163 58.7929 42.9163 59.4723C42.9163 60.1517 43.4677 60.7025 44.1478 60.7025Z" fill="white"/>
<path d="M97.2483 100.031C95.8628 100.031 94.7378 98.9076 94.7378 97.5237C94.7378 96.1398 95.8628 95.0161 97.2483 95.0161C98.6339 95.0161 99.7589 96.1398 99.7589 97.5237C99.7589 98.9076 98.6339 100.031 97.2483 100.031ZM97.2483 95.6548C96.2181 95.6548 95.3773 96.4946 95.3773 97.5237C95.3773 98.5527 96.2181 99.3926 97.2483 99.3926C98.2786 99.3926 99.1194 98.5527 99.1194 97.5237C99.1194 96.4946 98.2786 95.6548 97.2483 95.6548Z" fill="black"/>
<path d="M56.4281 36.0642C56.2505 36.0642 56.1084 35.9223 56.1084 35.7448V29.4995C56.1084 29.3221 56.2505 29.1802 56.4281 29.1802C56.6058 29.1802 56.7479 29.3221 56.7479 29.4995V35.7448C56.7479 35.9223 56.6058 36.0642 56.4281 36.0642Z" fill="black"/>
<path d="M54.1782 35.1061C54.0953 35.1061 54.0124 35.0706 53.9414 35.0115C53.8229 34.8814 53.8229 34.6803 53.9414 34.562L58.4651 30.2447C58.5953 30.1264 58.7967 30.1264 58.9151 30.2447C59.0335 30.3748 59.0335 30.5759 58.9151 30.6942L54.3914 35.0115C54.3321 35.0706 54.2493 35.1061 54.1664 35.1061H54.1782Z" fill="black"/>
<path d="M46.3149 104.1C46.232 104.1 46.1491 104.065 46.0781 104.006L43.9228 101.758C43.8044 101.628 43.8044 101.427 43.9228 101.309C44.0531 101.19 44.2544 101.19 44.3728 101.309L45.936 102.941L45.8294 100.646C45.8294 100.469 45.9597 100.315 46.1373 100.315C46.3268 100.303 46.4689 100.445 46.4689 100.623L46.611 103.769C46.611 103.899 46.5399 104.029 46.4215 104.077C46.386 104.088 46.3386 104.1 46.2912 104.1H46.3149Z" fill="black"/>
<path d="M47.5584 106.892C47.44 106.892 47.3215 106.821 47.2623 106.702L46.0189 103.899C45.9478 103.733 46.0189 103.544 46.1847 103.473C46.3505 103.402 46.5399 103.473 46.611 103.639L47.8544 106.442C47.9255 106.608 47.8544 106.797 47.6886 106.868C47.6413 106.892 47.6057 106.892 47.5584 106.892Z" fill="black"/>
<path d="M4.73696 61.353C4.64222 61.353 4.54748 61.3175 4.48827 61.2347L3.32773 59.8035C3.22115 59.6616 3.233 59.4605 3.3751 59.3541C3.51721 59.2358 3.71853 59.2594 3.82511 59.4014L4.98564 60.8326C5.09222 60.9745 5.08038 61.1756 4.93827 61.2821C4.87906 61.3294 4.80801 61.353 4.73696 61.353Z" fill="black"/>
<path d="M7.058 64.2155C6.96326 64.2155 6.86853 64.1801 6.80931 64.0973L5.64878 62.666C5.5422 62.5241 5.55404 62.323 5.69615 62.2166C5.83825 62.1101 6.03957 62.1219 6.14615 62.2639L7.30669 63.6951C7.41327 63.837 7.40143 64.0381 7.25932 64.1446C7.20011 64.1919 7.12905 64.2155 7.058 64.2155Z" fill="black"/>
<path d="M6.02784 61.495C5.9331 61.495 5.83836 61.4595 5.77915 61.3767C5.67257 61.2348 5.68441 61.0337 5.82652 60.9272L7.25943 59.7681C7.40153 59.6616 7.60285 59.6735 7.70943 59.8154C7.81601 59.9573 7.80417 60.1584 7.66206 60.2649L6.22915 61.424C6.16994 61.4713 6.09889 61.495 6.02784 61.495Z" fill="black"/>
<path d="M3.17383 63.8134C3.07909 63.8134 2.98436 63.7779 2.92515 63.6951C2.81857 63.5531 2.83041 63.3521 2.97251 63.2456L4.40542 62.0864C4.54753 61.98 4.74885 61.9918 4.85542 62.1337C4.962 62.2757 4.95016 62.4768 4.80806 62.5832L3.37515 63.7424C3.31594 63.7897 3.24488 63.8134 3.17383 63.8134Z" fill="black"/>
<path d="M132.633 51.914C132.538 51.914 132.443 51.8785 132.384 51.7957L131.223 50.3645C131.117 50.2226 131.129 50.0215 131.271 49.9151C131.413 49.8086 131.614 49.8204 131.721 49.9624L132.881 51.3936C132.988 51.5355 132.976 51.7366 132.834 51.8431C132.775 51.8904 132.704 51.914 132.633 51.914Z" fill="#4666C9"/>
<path d="M134.954 54.7766C134.859 54.7766 134.764 54.7411 134.705 54.6583L133.545 53.2271C133.438 53.0851 133.45 52.8841 133.592 52.7776C133.734 52.6711 133.935 52.683 134.042 52.8249L135.202 54.2561C135.309 54.3981 135.297 54.5991 135.155 54.7056C135.096 54.7529 135.025 54.7766 134.954 54.7766Z" fill="#4666C9"/>
<path d="M133.935 52.056C133.841 52.056 133.746 52.0206 133.687 51.9378C133.58 51.7958 133.592 51.5947 133.734 51.4883L135.167 50.3291C135.309 50.2227 135.51 50.2345 135.617 50.3764C135.723 50.5184 135.712 50.7194 135.57 50.8259L134.137 51.9851C134.077 52.0324 134.006 52.056 133.935 52.056Z" fill="#4666C9"/>
<path d="M131.07 54.3744C130.975 54.3744 130.88 54.3389 130.821 54.2561C130.714 54.1142 130.726 53.9131 130.868 53.8066L132.301 52.6475C132.443 52.541 132.645 52.5528 132.751 52.6948C132.858 52.8367 132.846 53.0378 132.704 53.1443L131.271 54.3034C131.212 54.3507 131.141 54.3744 131.07 54.3744Z" fill="#4666C9"/>
<path d="M88.1059 35.3902C88.6095 35.3902 89.0178 34.9824 89.0178 34.4794C89.0178 33.9764 88.6095 33.5686 88.1059 33.5686C87.6023 33.5686 87.1941 33.9764 87.1941 34.4794C87.1941 34.9824 87.6023 35.3902 88.1059 35.3902Z" fill="#4666C9"/>
<path d="M51.2175 127.863C51.7211 127.863 52.1294 127.456 52.1294 126.953C52.1294 126.45 51.7211 126.042 51.2175 126.042C50.7139 126.042 50.3057 126.45 50.3057 126.953C50.3057 127.456 50.7139 127.863 51.2175 127.863Z" fill="#F57A3E"/>
<path d="M37.2082 73.3233C37.0305 73.3233 36.8884 73.1813 36.8884 73.0039C36.8884 72.5663 36.9003 72.1286 36.9358 71.691C36.9476 71.5136 37.1016 71.3834 37.2792 71.3953C37.4569 71.4071 37.5871 71.5609 37.5753 71.7383C37.5397 72.1523 37.5279 72.5781 37.5279 72.9921C37.5279 73.1695 37.3858 73.3115 37.2082 73.3115V73.3233Z" fill="#8ABAE7"/>
<path d="M44.6569 87.3635C44.5976 87.3635 44.5266 87.3398 44.4792 87.3043C43.7095 86.7839 42.9753 86.1925 42.2884 85.5419C42.1581 85.4237 42.1582 85.2226 42.2766 85.0925C42.395 84.9624 42.5963 84.9624 42.7266 85.0806C43.3779 85.6957 44.0884 86.2635 44.8345 86.7721C44.9766 86.8667 45.024 87.0678 44.9174 87.2215C44.8582 87.3162 44.7516 87.3635 44.6569 87.3635ZM40.666 83.5903C40.5713 83.5903 40.4766 83.543 40.4055 83.4602C40.1213 83.0935 39.8489 82.7032 39.6002 82.3128C39.3515 81.9225 39.1147 81.5085 38.8897 81.0945C38.8068 80.9407 38.866 80.7397 39.02 80.6569C39.1739 80.5741 39.3752 80.6332 39.4581 80.787C39.6713 81.1891 39.8963 81.5795 40.1331 81.958C40.37 82.3365 40.6305 82.7032 40.9029 83.058C41.0095 83.1999 40.9858 83.401 40.8437 83.5075C40.7845 83.5548 40.7134 83.5785 40.6542 83.5785L40.666 83.5903ZM38.0963 78.7407C37.966 78.7407 37.8357 78.6579 37.7884 78.516C37.4923 77.6288 37.2673 76.7181 37.1134 75.7955C37.0897 75.618 37.2081 75.4525 37.3739 75.4288C37.5515 75.4051 37.7173 75.5234 37.741 75.689C37.8831 76.5761 38.1081 77.4632 38.3923 78.3149C38.4515 78.4805 38.3568 78.6697 38.191 78.717C38.1555 78.717 38.12 78.7289 38.0844 78.7289L38.0963 78.7407Z" fill="#8ABAE7"/>
<path d="M48.2332 89.2205C48.2332 89.2205 48.1622 89.2205 48.1148 89.1968C47.7122 89.0431 47.2977 88.8775 46.9069 88.6882C46.7411 88.6173 46.6819 88.428 46.753 88.2624C46.824 88.0968 47.0135 88.0377 47.1793 88.1086C47.5582 88.2861 47.949 88.4517 48.3398 88.5936C48.5056 88.6527 48.5885 88.842 48.5293 89.0076C48.4819 89.1377 48.3635 89.2205 48.2332 89.2205Z" fill="#8ABAE7"/>
<path d="M108.889 132.299C119.498 132.299 128.097 127.75 128.097 122.138C128.097 116.527 119.498 111.978 108.889 111.978C98.2809 111.978 89.6812 116.527 89.6812 122.138C89.6812 127.75 98.2809 132.299 108.889 132.299Z" fill="#F57A3E"/>
<path d="M108.889 136.805C118.431 136.805 126.167 132.712 126.167 127.662C126.167 122.612 118.431 118.519 108.889 118.519C99.3469 118.519 91.6113 122.612 91.6113 127.662C91.6113 132.712 99.3469 136.805 108.889 136.805Z" fill="#8ABAE7"/>
<path d="M89.8113 123.286L91.9074 129.342H125.883L127.979 123.286H89.8113Z" fill="#8ABAE7"/>
<path d="M108.889 132.299C119.498 132.299 128.097 127.75 128.097 122.138C128.097 116.527 119.498 111.978 108.889 111.978C98.2809 111.978 89.6812 116.527 89.6812 122.138C89.6812 127.75 98.2809 132.299 108.889 132.299Z" fill="#8ABAE7"/>
<path d="M91.1257 118.27C92.7244 119.335 96.7034 119.24 100.753 117.975C105.384 116.52 108.344 114.048 107.361 112.463C107.255 112.297 107.125 112.155 106.947 112.025C99.7705 112.404 93.7665 114.888 91.1257 118.282V118.27Z" fill="white"/>
<path d="M108.889 132.417C98.2193 132.417 89.5271 127.804 89.5271 122.138C89.5271 122.079 89.5982 122.02 89.6692 122.02C89.7403 122.02 89.8113 122.067 89.8113 122.138C89.8113 127.674 98.3614 132.192 108.877 132.192C119.393 132.192 127.943 127.686 127.943 122.138C127.943 122.079 128.014 122.02 128.085 122.02C128.156 122.02 128.227 122.067 128.227 122.138C128.227 127.804 119.547 132.417 108.877 132.417H108.889Z" fill="black"/>
<path d="M108.889 130.075C99.9364 130.075 92.6416 126.361 92.6416 121.783C92.6416 117.206 99.9246 113.492 108.889 113.492C117.854 113.492 125.137 117.206 125.137 121.783C125.137 126.361 117.854 130.075 108.889 130.075ZM108.889 113.728C100.09 113.728 92.9377 117.336 92.9377 121.783C92.9377 126.231 100.09 129.838 108.889 129.838C117.688 129.838 124.841 126.231 124.841 121.783C124.841 117.336 117.688 113.728 108.889 113.728Z" fill="black"/>
<path d="M95.1283 133.304C95.0691 133.304 95.0099 133.269 94.9862 133.221L93.127 128.076C93.1033 128.017 93.1507 127.946 93.2218 127.934C93.2928 127.922 93.3757 127.946 93.3994 128.017L95.2586 133.162C95.2823 133.221 95.2349 133.292 95.1639 133.304C95.152 133.304 95.1402 133.304 95.1283 133.304Z" fill="black"/>
<path d="M122.863 133.162C122.863 133.162 122.851 133.162 122.839 133.162C122.756 133.162 122.709 133.091 122.721 133.02L123.739 128.466C123.751 128.407 123.834 128.36 123.905 128.372C123.988 128.372 124.035 128.443 124.023 128.514L123.005 133.068C123.005 133.068 122.934 133.162 122.863 133.162Z" fill="black"/>
<path d="M114.254 136.474C114.171 136.474 114.112 136.427 114.112 136.356V131.897C114.112 131.837 114.183 131.778 114.254 131.778C114.325 131.778 114.396 131.826 114.396 131.897V136.356C114.396 136.427 114.325 136.474 114.254 136.474Z" fill="black"/>
<path d="M119.038 135.185C118.955 135.185 118.896 135.137 118.896 135.066V130.773C118.896 130.714 118.967 130.655 119.038 130.655C119.109 130.655 119.18 130.702 119.18 130.773V135.066C119.18 135.126 119.109 135.185 119.038 135.185Z" fill="black"/>
<path d="M95.1284 120.944L111.992 128.336L121.75 120.542L103.489 116.295L95.1284 120.944Z" fill="#4666C9"/>
<path d="M103.489 116.295L104.886 104.349H126.179L121.75 120.541L103.489 116.295Z" fill="white"/>
<path d="M121.75 120.66C121.75 120.66 121.726 120.66 121.714 120.66L103.454 116.425C103.382 116.413 103.347 116.354 103.347 116.295L104.744 104.349C104.744 104.29 104.815 104.242 104.886 104.242H126.167C126.167 104.242 126.25 104.254 126.285 104.29C126.321 104.325 126.321 104.349 126.309 104.384L121.88 120.565C121.88 120.565 121.844 120.624 121.809 120.636C121.785 120.636 121.762 120.648 121.738 120.648L121.75 120.66ZM103.643 116.212L121.643 120.388L126.001 104.467H105.029L103.655 116.212H103.643Z" fill="black"/>
<path d="M118.469 112.333C117.794 114.521 115.663 115.964 113.721 115.574C111.779 115.183 110.76 113.09 111.435 110.902C112.11 108.713 114.242 107.27 116.184 107.661C118.126 108.051 119.144 110.145 118.469 112.333Z" fill="#F57A3E"/>
<path d="M112.608 115.396C112.371 115.396 112.146 115.373 111.921 115.325C110.938 115.124 110.144 114.509 109.694 113.587C109.256 112.676 109.197 111.588 109.529 110.511C110.227 108.264 112.43 106.773 114.455 107.187C115.438 107.389 116.231 108.004 116.681 108.926C117.119 109.837 117.179 110.925 116.847 112.002C116.515 113.078 115.817 114.024 114.905 114.651C114.183 115.136 113.401 115.396 112.619 115.396H112.608ZM113.768 107.353C112.086 107.353 110.405 108.678 109.813 110.57C109.493 111.599 109.54 112.64 109.967 113.504C110.381 114.355 111.104 114.911 111.992 115.101C112.88 115.278 113.851 115.053 114.704 114.474C115.58 113.882 116.231 112.983 116.551 111.942C116.871 110.913 116.823 109.861 116.397 109.009C115.983 108.157 115.26 107.601 114.372 107.412C114.171 107.377 113.969 107.353 113.756 107.353H113.768Z" fill="black"/>
<path d="M111.992 128.455C111.992 128.455 111.944 128.455 111.921 128.443L95.0455 121.05C94.9745 121.015 94.9508 120.944 94.9863 120.896C95.0218 120.837 95.1166 120.814 95.1876 120.849L111.968 128.206L121.643 120.47C121.643 120.47 121.797 120.423 121.844 120.47C121.904 120.518 121.904 120.589 121.844 120.636L112.086 128.431C112.086 128.431 112.027 128.466 111.98 128.466L111.992 128.455Z" fill="black"/>
<path d="M100.386 119.442L103.809 117.265L118.541 120.873L114.254 124.149L100.386 119.442Z" fill="#8ABAE7"/>
<path d="M116.504 122.541C116.504 122.541 116.468 122.541 116.456 122.541L104.318 118.945C104.247 118.921 104.2 118.85 104.235 118.791C104.259 118.732 104.342 118.696 104.425 118.72L116.563 122.316C116.634 122.339 116.681 122.41 116.646 122.47C116.622 122.517 116.563 122.552 116.504 122.552V122.541Z" fill="black"/>
<path d="M114.254 124.267C114.254 124.267 114.218 124.267 114.194 124.267L100.327 119.56C100.256 119.536 100.221 119.465 100.244 119.406C100.28 119.347 100.363 119.323 100.434 119.347L114.218 124.031L118.434 120.802C118.434 120.802 118.588 120.755 118.635 120.802C118.695 120.849 118.683 120.92 118.635 120.967L114.348 124.244C114.348 124.244 114.289 124.279 114.254 124.279V124.267Z" fill="black"/>
<path d="M117.155 120.66C117.155 120.66 117.131 120.66 117.108 120.66L103.833 117.407L100.955 119.24C100.896 119.276 100.801 119.276 100.754 119.217C100.706 119.169 100.718 119.087 100.777 119.051L103.714 117.17C103.714 117.17 103.797 117.135 103.844 117.147L117.202 120.423C117.273 120.447 117.321 120.506 117.297 120.565C117.273 120.612 117.226 120.648 117.155 120.648V120.66Z" fill="white"/>
<path d="M105.869 125.651C105.869 125.651 105.786 125.64 105.763 125.616C105.703 125.569 105.715 125.498 105.763 125.45L108.463 123.392L102.98 121.381L100.102 123.191C100.043 123.227 99.9482 123.227 99.9008 123.167C99.8534 123.12 99.8653 123.037 99.9245 123.002L102.873 121.157C102.873 121.157 102.968 121.121 103.027 121.145L108.794 123.262C108.794 123.262 108.865 123.309 108.877 123.345C108.877 123.38 108.877 123.428 108.83 123.451L105.976 125.628C105.976 125.628 105.917 125.663 105.881 125.663L105.869 125.651Z" fill="black"/>
<path d="M26.349 134.511C36.0678 134.511 43.9465 130.984 43.9465 126.633C43.9465 122.282 36.0678 118.755 26.349 118.755C16.6301 118.755 8.75146 122.282 8.75146 126.633C8.75146 130.984 16.6301 134.511 26.349 134.511Z" fill="#F57A3E"/>
<path d="M26.3489 138C35.0932 138 42.1819 134.828 42.1819 130.915C42.1819 127.002 35.0932 123.83 26.3489 123.83C17.6046 123.83 10.5159 127.002 10.5159 130.915C10.5159 134.828 17.6046 138 26.3489 138Z" fill="#8ABAE7"/>
<path d="M8.85791 127.52L10.7763 132.216H41.9095L43.8279 127.52H8.85791Z" fill="#8ABAE7"/>
<path d="M26.349 134.511C36.0678 134.511 43.9465 130.984 43.9465 126.633C43.9465 122.282 36.0678 118.755 26.349 118.755C16.6301 118.755 8.75146 122.282 8.75146 126.633C8.75146 130.984 16.6301 134.511 26.349 134.511Z" fill="#D8E5F3"/>
<path d="M8.82251 125.9C10.1962 126.195 11.7002 126.361 13.2989 126.361C19.3976 126.361 24.3358 123.983 24.3358 121.038C24.3358 120.269 23.9924 119.536 23.3766 118.874C15.5963 119.465 9.55673 122.339 8.82251 125.911V125.9Z" fill="white"/>
<path d="M26.3489 134.688C21.6238 134.688 17.183 133.86 13.8317 132.37C10.4448 130.856 8.57373 128.821 8.57373 126.633C8.57373 126.538 8.65663 126.456 8.75136 126.456C8.8461 126.456 8.929 126.538 8.929 126.633C8.929 130.879 16.7449 134.321 26.3489 134.321C35.9529 134.321 43.7688 130.867 43.7688 126.633C43.7688 126.538 43.8517 126.456 43.9464 126.456C44.0411 126.456 44.124 126.538 44.124 126.633C44.124 128.809 42.253 130.844 38.8661 132.37C35.5148 133.872 31.0739 134.688 26.3489 134.688Z" fill="black"/>
<path d="M26.3488 132.867C22.3817 132.867 18.6514 132.204 15.8448 130.998C12.9908 129.768 11.4158 128.123 11.4158 126.361C11.4158 124.599 12.9908 122.943 15.8448 121.724C18.6514 120.518 22.3817 119.855 26.3488 119.855C30.3159 119.855 34.0462 120.518 36.8528 121.724C39.7068 122.954 41.2818 124.599 41.2818 126.361C41.2818 128.123 39.7068 129.779 36.8528 130.998C34.0462 132.204 30.3159 132.867 26.3488 132.867ZM26.3488 120.21C18.3198 120.21 11.7829 122.966 11.7829 126.361C11.7829 129.756 18.3198 132.512 26.3488 132.512C34.3778 132.512 40.9147 129.756 40.9147 126.361C40.9147 122.966 34.3778 120.21 26.3488 120.21Z" fill="black"/>
<path d="M13.7252 135.374C13.6541 135.374 13.5831 135.339 13.5594 135.268L11.8541 131.282C11.8186 131.187 11.8541 131.08 11.9488 131.045C12.0436 131.01 12.1501 131.045 12.1857 131.14L13.8909 135.126C13.9265 135.22 13.8909 135.327 13.7962 135.362C13.7725 135.362 13.7488 135.374 13.7252 135.374Z" fill="black"/>
<path d="M15.7975 136.379C15.7264 136.379 15.6554 136.332 15.6317 136.261L14.2462 132.488C14.2106 132.393 14.258 132.287 14.3528 132.251C14.4475 132.216 14.5541 132.263 14.5896 132.358L15.9751 136.131C16.0107 136.226 15.9633 136.332 15.8686 136.368C15.8449 136.368 15.833 136.368 15.8093 136.368L15.7975 136.379Z" fill="black"/>
<path d="M39.1504 135.268C39.1504 135.268 39.1149 135.268 39.103 135.268C39.0083 135.244 38.9491 135.149 38.9728 135.043L39.8964 131.518C39.9201 131.424 40.0149 131.364 40.1214 131.388C40.2162 131.412 40.2754 131.506 40.2517 131.613L39.328 135.138C39.3043 135.22 39.2333 135.268 39.1504 135.268Z" fill="black"/>
<path d="M31.2516 137.834C31.1569 137.834 31.074 137.752 31.074 137.657V134.203C31.074 134.108 31.1569 134.026 31.2516 134.026C31.3463 134.026 31.4292 134.108 31.4292 134.203V137.657C31.4292 137.752 31.3463 137.834 31.2516 137.834Z" fill="black"/>
<path d="M28.0304 130.619C28.0304 130.619 27.9594 130.619 27.9238 130.584L26.9054 129.874L24.3356 129.767L22.9501 130.383C22.9501 130.383 22.8791 130.406 22.8435 130.383L20.0251 129.779C19.9659 129.767 19.9185 129.72 19.8948 129.673C19.8711 129.614 19.883 129.555 19.9185 129.507L20.3803 128.869L18.9238 128.159L16.8158 128.218C16.8158 128.218 16.6974 128.194 16.6619 128.147L15.75 126.941C15.75 126.941 15.7027 126.822 15.7264 126.775C15.75 126.728 15.7974 126.68 15.8566 126.657L17.633 126.266L17.8461 125.486L16.3777 124.977C16.3185 124.953 16.2711 124.894 16.2593 124.835C16.2593 124.764 16.2829 124.705 16.3303 124.658L17.858 123.558C17.858 123.558 17.9409 123.522 17.9882 123.522L20.0251 123.747L21.9317 123.144L21.8133 122.458C21.8133 122.458 21.8133 122.363 21.8488 122.316C21.8843 122.28 21.9198 122.257 21.9672 122.245L25.0462 121.89C25.0462 121.89 25.1291 121.89 25.1646 121.925L26.183 122.635L28.7528 122.742L30.1383 122.126C30.1383 122.126 30.2094 122.103 30.2449 122.126L33.0634 122.73C33.1226 122.742 33.1699 122.789 33.1936 122.836C33.2173 122.895 33.2055 122.954 33.1699 123.002L32.7081 123.64L34.1647 124.35L36.2726 124.291C36.2726 124.291 36.391 124.315 36.4265 124.362L37.3384 125.568C37.3384 125.568 37.3858 125.687 37.3621 125.734C37.3384 125.781 37.291 125.829 37.2318 125.852L35.4555 126.243L35.2423 127.023L36.7108 127.532C36.77 127.556 36.8173 127.615 36.8292 127.674C36.8292 127.745 36.8055 127.804 36.7581 127.851L35.2305 128.951C35.2305 128.951 35.1476 128.987 35.1002 128.987L33.0634 128.762L31.1568 129.365L31.2752 130.051C31.2752 130.051 31.2752 130.146 31.2396 130.193C31.2041 130.229 31.1686 130.252 31.1212 130.264L28.0423 130.619C28.0423 130.619 28.0304 130.619 28.0186 130.619H28.0304ZM24.312 129.401L26.9765 129.507C26.9765 129.507 27.0475 129.519 27.0712 129.543L28.0659 130.241L30.8844 129.909L30.7778 129.247C30.766 129.164 30.8133 129.07 30.8962 129.046L32.9805 128.384C32.9805 128.384 33.0278 128.384 33.0515 128.384L35.0647 128.608L36.2607 127.745L34.9699 127.295C34.8752 127.26 34.8278 127.165 34.8515 127.082L35.1357 126.03C35.1476 125.959 35.2068 125.911 35.266 125.9L36.8765 125.545L36.1897 124.634L34.1291 124.681C34.1291 124.681 34.0699 124.681 34.0463 124.658L32.3528 123.842C32.3528 123.842 32.2699 123.771 32.2581 123.723C32.2462 123.676 32.2581 123.617 32.2818 123.569L32.7081 122.978L30.2212 122.446L28.8475 123.061C28.8475 123.061 28.8002 123.073 28.7646 123.073L26.1001 122.966C26.1001 122.966 26.0291 122.954 26.0054 122.931L25.0107 122.233L22.1922 122.564L22.2988 123.226C22.3106 123.309 22.2633 123.404 22.1804 123.428L20.0961 124.09C20.0961 124.09 20.0488 124.09 20.0251 124.09L18.0119 123.865L16.8158 124.729L18.1066 125.178C18.2014 125.214 18.2487 125.308 18.2251 125.391L17.9409 126.444C17.929 126.515 17.8698 126.562 17.8106 126.574L16.2 126.929L16.8869 127.839L18.9474 127.792C18.9474 127.792 19.0066 127.792 19.0303 127.816L20.7238 128.632C20.7238 128.632 20.8067 128.703 20.8185 128.75C20.8303 128.798 20.8185 128.857 20.7948 128.904L20.3685 129.495L22.8554 130.028L24.2291 129.413C24.2291 129.413 24.2764 129.401 24.3001 129.401H24.312ZM26.5501 128.301C23.7791 128.301 21.6001 127.402 21.6001 126.255C21.6001 125.107 23.7791 124.208 26.5501 124.208C29.3212 124.208 31.5002 125.107 31.5002 126.255C31.5002 127.402 29.3212 128.301 26.5501 128.301ZM26.5501 124.563C23.8027 124.563 21.9672 125.438 21.9672 126.255C21.9672 127.071 23.8146 127.946 26.5501 127.946C29.2857 127.946 31.1331 127.071 31.1331 126.255C31.1331 125.438 29.2857 124.563 26.5501 124.563Z" fill="black"/>
<path d="M59.0807 1.51391C54.3556 -1.20659 48.3161 0.402055 45.5924 5.12152C42.8687 9.84099 44.4792 15.8734 49.2042 18.5939C53.9293 21.3144 59.9688 19.7057 62.6925 14.9863C65.4162 10.2668 63.8057 4.2344 59.0807 1.51391Z" fill="white"/>
<path d="M54.1188 20.1316C52.378 20.1316 50.649 19.6703 49.0977 18.7832C46.7648 17.4347 45.095 15.2702 44.4082 12.668C43.7095 10.0658 44.0647 7.35709 45.4147 5.02692C48.1977 0.224661 54.3675 -1.43129 59.1754 1.34834C61.5083 2.69676 63.1781 4.86133 63.8768 7.46354C64.5754 10.0658 64.2202 12.7744 62.8702 15.1046C61.5202 17.4347 59.353 19.1025 56.7477 19.7886C55.8833 20.0251 54.9951 20.1316 54.1188 20.1316ZM54.1543 0.402084C50.803 0.402084 47.5463 2.14083 45.7582 5.228C44.4674 7.46354 44.124 10.0658 44.7871 12.5615C45.4503 15.0573 47.0608 17.139 49.299 18.4283C51.5372 19.7176 54.1425 20.0606 56.6412 19.3982C59.1399 18.7358 61.2241 17.1272 62.5149 14.8917C63.8057 12.6561 64.1491 10.0539 63.486 7.55817C62.8228 5.06241 61.2123 2.98064 58.9741 1.69136C57.4583 0.816072 55.7885 0.402084 54.1543 0.402084Z" fill="black"/>
<path d="M52.97 14.4303L48.2332 11.9109V6.18604L52.97 8.69362V14.4303Z" fill="#8ABAE7"/>
<path d="M52.9701 14.6196C52.9701 14.6196 52.9109 14.6196 52.8753 14.596L48.1503 12.0884C48.0792 12.0529 48.0437 11.9819 48.0437 11.911V6.18611C48.0437 6.11514 48.0792 6.05599 48.1384 6.02051C48.1977 5.98503 48.2687 5.98503 48.3398 6.02051L53.0648 8.5281C53.1359 8.56358 53.1714 8.63455 53.1714 8.70552V14.4304C53.1714 14.5014 53.1359 14.5605 53.0766 14.596C53.0411 14.6196 53.0056 14.6196 52.9701 14.6196ZM48.4345 11.7927L52.7687 14.0874V8.81197L48.4345 6.5173V11.7927Z" fill="black"/>
<path d="M57.6953 11.9109L52.9702 14.4303V8.69362L57.6953 6.18604V11.9109Z" fill="#4666C9"/>
<path d="M52.9701 14.6196C52.9701 14.6196 52.8991 14.6196 52.8635 14.596C52.8043 14.5605 52.7688 14.4895 52.7688 14.4304V8.70552C52.7688 8.63455 52.8043 8.56358 52.8754 8.5281L57.6004 6.02051C57.6596 5.98503 57.7425 5.98503 57.8017 6.02051C57.8609 6.05599 57.8965 6.12696 57.8965 6.18611V11.911C57.8965 11.9819 57.8609 12.0529 57.7899 12.0884L53.0649 14.596C53.0649 14.596 53.0056 14.6196 52.9701 14.6196ZM53.1596 8.81197V14.0874L57.4938 11.7927V6.5173L53.1596 8.81197Z" fill="black"/>
<path d="M48.2332 6.18622L52.97 3.60767L57.6951 6.18622L52.97 8.69381L48.2332 6.18622Z" fill="#D8E5F3"/>
<path d="M52.9701 8.89482C52.9701 8.89482 52.9109 8.89482 52.8753 8.87117L48.1503 6.36358C48.0911 6.3281 48.0437 6.25713 48.0437 6.18616C48.0437 6.11519 48.0792 6.04422 48.1503 6.00873L52.8753 3.43018C52.9345 3.39469 53.0056 3.39469 53.0648 3.43018L57.7898 6.00873C57.849 6.04422 57.8964 6.11519 57.8964 6.18616C57.8964 6.25713 57.8609 6.3281 57.7898 6.36358L53.0648 8.87117C53.0648 8.87117 53.0056 8.89482 52.9701 8.89482ZM48.6595 6.18616L52.9701 8.46901L57.2806 6.18616L52.9701 3.84417L48.6595 6.18616Z" fill="black"/>
<path d="M58.5479 15.164C60.3464 15.164 61.8045 13.7077 61.8045 11.9112C61.8045 10.1148 60.3464 8.65845 58.5479 8.65845C56.7493 8.65845 55.2913 10.1148 55.2913 11.9112C55.2913 13.7077 56.7493 15.164 58.5479 15.164Z" fill="#F57A3E"/>
<path d="M58.5478 15.365C56.6412 15.365 55.0898 13.8155 55.0898 11.9111C55.0898 10.0068 56.6412 8.45728 58.5478 8.45728C60.4544 8.45728 62.0057 10.0068 62.0057 11.9111C62.0057 13.8155 60.4544 15.365 58.5478 15.365ZM58.5478 8.85943C56.8662 8.85943 55.4925 10.2315 55.4925 11.9111C55.4925 13.5907 56.8662 14.9628 58.5478 14.9628C60.2294 14.9628 61.6031 13.5907 61.6031 11.9111C61.6031 10.2315 60.2294 8.85943 58.5478 8.85943Z" fill="black"/>
<path d="M85.2639 76.032C81.6994 78.0901 80.4797 82.6321 82.5402 86.1806C84.6008 89.7409 89.1482 90.9592 92.7008 88.9011C96.2535 86.843 97.4851 82.3009 95.4245 78.7525C93.364 75.1922 88.8166 73.9738 85.2639 76.032Z" fill="white"/>
<path d="M88.9942 90.0602C88.331 90.0602 87.6679 89.9774 87.0166 89.8C85.0626 89.2795 83.4165 88.0257 82.4099 86.2633C81.3915 84.5127 81.131 82.4665 81.652 80.5148C82.1731 78.5631 83.4284 76.919 85.1929 75.9136C86.9455 74.8964 88.9942 74.6362 90.9482 75.1566C92.9021 75.6771 94.5482 76.9308 95.5548 78.6933C96.5732 80.4438 96.8338 82.4901 96.3127 84.4418C95.7916 86.3934 94.5364 88.0376 92.7719 89.043C91.5995 89.7172 90.3087 90.0602 88.9824 90.0602H88.9942ZM88.9705 75.1803C87.7034 75.1803 86.46 75.5115 85.335 76.162C83.6534 77.1319 82.4455 78.7051 81.9363 80.5858C81.427 82.4665 81.6876 84.4299 82.6705 86.1096C83.6415 87.7892 85.2165 88.9956 87.0995 89.5043C88.9824 90.0129 90.9482 89.7527 92.6298 88.7709C94.3114 87.801 95.5193 86.2278 96.0285 84.3471C96.5377 82.4665 96.2772 80.503 95.2943 78.8234C94.3232 77.1438 92.7482 75.9373 90.8653 75.4287C90.2376 75.2631 89.5982 75.1803 88.9705 75.1803Z" fill="black"/>
<path d="M91.0742 87.0177L92.9602 85.0222L85.7525 78.2262L83.8666 80.2216L91.0742 87.0177Z" fill="#F57A3E"/>
<path d="M90.1901 86.3462C90.1901 86.3462 90.119 86.3344 90.0835 86.3108C90.0243 86.2516 90.0243 86.157 90.0835 86.0978L90.7111 85.4355C90.7703 85.3763 90.8651 85.3763 90.9243 85.4355C90.9835 85.4946 90.9835 85.5892 90.9243 85.6484L90.2966 86.3108C90.2966 86.3108 90.2256 86.3581 90.1901 86.3581V86.3462Z" fill="black"/>
<path d="M89.0887 85.3052C89.0887 85.3052 89.0177 85.2934 88.9822 85.2697C88.9229 85.2106 88.9229 85.116 88.9822 85.0568L89.6098 84.3945C89.669 84.3353 89.7637 84.3353 89.8229 84.3945C89.8822 84.4536 89.8822 84.5482 89.8229 84.6074L89.1953 85.2697C89.1953 85.2697 89.1243 85.3171 89.0887 85.3171V85.3052Z" fill="black"/>
<path d="M87.9994 84.2762C87.9994 84.2762 87.9283 84.2643 87.8928 84.2407C87.8336 84.1815 87.8336 84.0869 87.8928 84.0278L88.5204 83.3654C88.5796 83.3063 88.6744 83.3063 88.7336 83.3654C88.7928 83.4245 88.7928 83.5192 88.7336 83.5783L88.106 84.2407C88.106 84.2407 88.0349 84.288 87.9994 84.288V84.2762Z" fill="black"/>
<path d="M86.8981 83.2471C86.8981 83.2471 86.827 83.2353 86.7915 83.2116C86.7323 83.1525 86.7323 83.0579 86.7915 82.9987L87.4191 82.3363C87.4783 82.2772 87.5731 82.2772 87.6323 82.3363C87.6915 82.3955 87.6915 82.4901 87.6323 82.5493L87.0046 83.2116C87.0046 83.2116 86.9336 83.2589 86.8981 83.2589V83.2471Z" fill="black"/>
<path d="M85.8085 82.2063C85.8085 82.2063 85.7374 82.1945 85.7019 82.1709C85.6427 82.1117 85.6427 82.0171 85.7019 81.958L86.3295 81.2956C86.3887 81.2364 86.4835 81.2364 86.5427 81.2956C86.6019 81.3547 86.6019 81.4493 86.5427 81.5085L85.915 82.1709C85.915 82.1709 85.844 82.2182 85.8085 82.2182V82.2063Z" fill="black"/>
<path d="M84.7071 81.1773C84.7071 81.1773 84.6361 81.1655 84.6006 81.1418C84.5413 81.0827 84.5413 80.988 84.6006 80.9289L85.2282 80.2665C85.2874 80.2074 85.3821 80.2074 85.4414 80.2665C85.5006 80.3257 85.5006 80.4203 85.4414 80.4794L84.8137 81.1418C84.8137 81.1418 84.7427 81.1891 84.7071 81.1891V81.1773Z" fill="black"/>
<path d="M92.6296 79.0008C92.7954 78.6223 92.6178 78.1846 92.2388 78.0309C91.8599 77.8653 91.4217 78.0427 91.2678 78.4212C91.102 78.7997 91.2796 79.2374 91.6586 79.3911C92.0375 79.5567 92.4757 79.3793 92.6296 79.0008Z" fill="#8ABAE7"/>
<path d="M91.9428 79.604C91.8243 79.604 91.7059 79.5804 91.5993 79.5331C91.3743 79.4384 91.2085 79.2729 91.1256 79.0481C91.0428 78.8234 91.0428 78.5868 91.1256 78.3621C91.3151 77.9126 91.848 77.6997 92.298 77.8889C92.748 78.0782 92.9612 78.6105 92.7717 79.0599C92.677 79.2847 92.4993 79.4503 92.2862 79.5331C92.1796 79.5804 92.0612 79.604 91.9546 79.604H91.9428ZM91.9428 78.1255C91.7059 78.1255 91.4928 78.2556 91.398 78.4804C91.3388 78.6223 91.3388 78.7879 91.398 78.9298C91.4572 79.0718 91.5757 79.1901 91.7178 79.2492C91.8599 79.3083 92.0257 79.3083 92.1678 79.2492C92.3099 79.1901 92.4283 79.0718 92.4875 78.9298C92.6178 78.6341 92.4757 78.2793 92.1678 78.1492C92.0967 78.1137 92.0138 78.1019 91.9428 78.1019V78.1255Z" fill="black"/>
<path d="M88.2008 86.2397L88.1179 87.7301L89.1363 86.6301L88.2008 86.2397Z" fill="#D8E5F3"/>
<path d="M88.1178 87.8838C88.1178 87.8838 88.0823 87.8838 88.0586 87.872C87.9994 87.8483 87.9639 87.7892 87.9639 87.7301L88.0468 86.2279C88.0468 86.1451 88.1178 86.0859 88.2007 86.0859C88.2836 86.0859 88.3428 86.1569 88.3428 86.2397L88.2836 87.3161L89.0178 86.5236C89.077 86.4644 89.1718 86.4644 89.231 86.5236C89.2902 86.5827 89.2902 86.6774 89.231 86.7365L88.2126 87.8365C88.2126 87.8365 88.1415 87.8838 88.106 87.8838H88.1178Z" fill="black"/>
<path d="M89.1362 86.6302L88.2007 86.2398L91.256 78.4214L92.6297 79.001L89.1362 86.6302Z" fill="#4666C9"/>
<path d="M89.1362 86.7839C89.1362 86.7839 89.1007 86.7839 89.077 86.7721L88.1415 86.3699C88.0704 86.3344 88.0349 86.2516 88.0586 86.1806L91.1257 78.3622C91.1257 78.3622 91.1731 78.2912 91.2086 78.2794C91.2441 78.2676 91.2915 78.2676 91.327 78.2794L92.7007 78.859C92.7007 78.859 92.7718 78.9063 92.7836 78.9418C92.7955 78.9772 92.7955 79.0246 92.7836 79.06L89.2902 86.6893C89.2902 86.6893 89.2073 86.7721 89.1481 86.7721L89.1362 86.7839ZM88.3902 86.157L89.0533 86.4409L92.4284 79.0837L91.3507 78.6224L88.3902 86.157Z" fill="black"/>
<path d="M91.2679 83.4128C91.2087 83.4128 91.1495 83.3773 91.1258 83.3181C90.9363 82.8568 91.3153 82.3127 91.7416 81.6858C92.2982 80.8815 92.9258 79.9589 92.4876 79.06C92.4521 78.989 92.4877 78.8944 92.5587 78.8589C92.6298 78.8234 92.7245 78.8589 92.76 78.9299C93.2811 79.9826 92.5587 81.0235 91.9903 81.8514C91.6232 82.3837 91.2797 82.8805 91.3982 83.1999C91.4337 83.2826 91.3982 83.3655 91.3153 83.4009C91.2916 83.4009 91.2797 83.4009 91.2561 83.4009L91.2679 83.4128Z" fill="black"/>
<path d="M118.984 52.8949C124.437 52.777 128.762 48.2659 128.644 42.819C128.526 37.3722 124.01 33.0522 118.556 33.1701C113.103 33.288 108.778 37.7991 108.896 43.246C109.014 48.6929 113.53 53.0128 118.984 52.8949Z" fill="white"/>
<path d="M118.789 53.0969C115.308 53.0969 111.909 51.2872 110.05 48.0699C107.267 43.2676 108.925 37.0933 113.733 34.3255C116.065 32.9771 118.777 32.6222 121.383 33.3201C123.988 34.018 126.155 35.6858 127.505 38.0159C130.288 42.8182 128.63 48.9925 123.822 51.7603C122.235 52.6711 120.506 53.1087 118.801 53.1087L118.789 53.0969ZM118.754 33.3674C117.072 33.3674 115.426 33.8051 113.934 34.6685C109.315 37.3299 107.729 43.2558 110.393 47.8688C113.058 52.4818 118.991 54.0668 123.609 51.4055C128.227 48.7441 129.814 42.8182 127.15 38.2052C125.859 35.9696 123.775 34.3728 121.276 33.6986C120.447 33.4739 119.594 33.3674 118.754 33.3674Z" fill="black"/>
<path d="M116.989 49.8205C118.884 50.4119 120.909 49.3473 121.501 47.4548C121.939 46.0591 121.477 44.6042 120.447 43.7053L122.816 36.0879L119.31 37.3653L119.038 38.2406L119.689 39.4708L118.458 40.1213L119.109 41.3515L117.877 42.002L117.629 42.8182C116.267 42.9838 115.071 43.93 114.633 45.3257C114.041 47.2183 115.106 49.2409 117.001 49.8323L116.989 49.8205ZM118.363 45.3967C118.908 45.5623 119.216 46.1419 119.05 46.6978C118.884 47.2419 118.304 47.5495 117.747 47.3839C117.202 47.2183 116.895 46.6387 117.06 46.0827C117.226 45.5386 117.806 45.2311 118.363 45.3967Z" fill="#F57A3E"/>
<path d="M118.067 50.1871C117.688 50.1871 117.309 50.1279 116.93 50.0096C114.929 49.3946 113.804 47.2537 114.419 45.2547C114.846 43.8826 116.03 42.8654 117.451 42.6288L117.664 41.931C117.664 41.931 117.712 41.8363 117.759 41.8127L118.813 41.2567L118.256 40.204C118.209 40.1094 118.245 39.9911 118.339 39.932L119.393 39.3761L118.837 38.3233C118.837 38.3233 118.801 38.2169 118.825 38.1696L119.097 37.2943C119.121 37.2351 119.156 37.1878 119.216 37.1642L122.721 35.8867C122.792 35.8631 122.875 35.8867 122.922 35.934C122.981 35.9813 122.993 36.0641 122.97 36.1351L120.648 43.6224C121.691 44.616 122.093 46.1181 121.655 47.502C121.359 48.472 120.696 49.2645 119.796 49.7376C119.239 50.0333 118.635 50.1752 118.031 50.1752L118.067 50.1871ZM117.048 49.6311C117.913 49.9032 118.837 49.8204 119.642 49.3946C120.447 48.9687 121.039 48.2591 121.312 47.3956C121.702 46.13 121.312 44.7342 120.317 43.8471C120.258 43.7998 120.234 43.717 120.258 43.6342L122.508 36.4072L119.476 37.5072L119.263 38.2051L119.879 39.3642C119.926 39.4588 119.891 39.5771 119.796 39.6363L118.742 40.1922L119.298 41.2449C119.346 41.3395 119.31 41.4578 119.216 41.517L118.055 42.132L117.83 42.8654C117.806 42.9364 117.747 42.9955 117.664 43.0073C116.338 43.1729 115.237 44.1073 114.834 45.373C114.277 47.159 115.284 49.0752 117.072 49.6311H117.048ZM118.055 47.6203C117.937 47.6203 117.806 47.5967 117.688 47.5612C117.368 47.4666 117.108 47.2537 116.954 46.9579C116.8 46.6622 116.764 46.3311 116.871 46.0117C117.072 45.3611 117.771 44.9945 118.422 45.1955C119.073 45.3966 119.441 46.0945 119.239 46.745C119.073 47.2773 118.588 47.6203 118.055 47.6203ZM118.055 45.5504C117.7 45.5504 117.368 45.787 117.25 46.1418C117.179 46.3547 117.202 46.5794 117.309 46.7805C117.416 46.9816 117.593 47.1235 117.806 47.1945C118.245 47.3365 118.718 47.0881 118.86 46.6386C119.002 46.2009 118.754 45.7278 118.304 45.5859C118.221 45.5622 118.138 45.5504 118.055 45.5504Z" fill="black"/>
<path d="M102.613 26.1406H91.3508L94.5956 10.1606H105.858L102.613 26.1406Z" fill="white"/>
<path d="M102.613 26.3297H91.3389C91.2797 26.3297 91.2205 26.3061 91.185 26.2588C91.1495 26.2115 91.1376 26.1523 91.1495 26.0932L94.3942 10.1251C94.4179 10.0304 94.5008 9.95947 94.5955 9.95947H105.869C105.929 9.95947 105.988 9.98313 106.023 10.0304C106.059 10.0778 106.071 10.1369 106.059 10.196L102.814 26.1642C102.79 26.2588 102.707 26.3297 102.613 26.3297ZM91.5995 25.9394H102.459L105.621 10.3735H94.7613L91.5995 25.9394Z" fill="black"/>
<path d="M103.702 12.337H95.9455C95.8389 12.337 95.7441 12.2423 95.7441 12.1359C95.7441 12.0294 95.8389 11.9348 95.9455 11.9348H103.702C103.809 11.9348 103.903 12.0294 103.903 12.1359C103.903 12.2423 103.809 12.337 103.702 12.337Z" fill="black"/>
<path d="M103.24 14.3597H95.4838C95.3772 14.3597 95.2825 14.2651 95.2825 14.1586C95.2825 14.0521 95.3772 13.9575 95.4838 13.9575H103.24C103.347 13.9575 103.442 14.0521 103.442 14.1586C103.442 14.2651 103.347 14.3597 103.24 14.3597Z" fill="black"/>
<path d="M102.767 16.3821H95.0099C94.9033 16.3821 94.8086 16.2875 94.8086 16.1811C94.8086 16.0746 94.9033 15.98 95.0099 15.98H102.767C102.873 15.98 102.968 16.0746 102.968 16.1811C102.968 16.2875 102.873 16.3821 102.767 16.3821Z" fill="black"/>
<path d="M102.305 18.3929H94.5482C94.4417 18.3929 94.3469 18.2983 94.3469 18.1918C94.3469 18.0853 94.4417 17.9907 94.5482 17.9907H102.305C102.411 17.9907 102.506 18.0853 102.506 18.1918C102.506 18.2983 102.411 18.3929 102.305 18.3929Z" fill="black"/>
<path d="M101.843 20.4156H94.0863C93.9797 20.4156 93.885 20.321 93.885 20.2145C93.885 20.1081 93.9797 20.0134 94.0863 20.0134H101.843C101.95 20.0134 102.044 20.1081 102.044 20.2145C102.044 20.321 101.95 20.4156 101.843 20.4156Z" fill="black"/>
<path d="M101.381 22.4383H93.6244C93.5178 22.4383 93.4231 22.3437 93.4231 22.2372C93.4231 22.1308 93.5178 22.0361 93.6244 22.0361H101.381C101.488 22.0361 101.582 22.1308 101.582 22.2372C101.582 22.3437 101.488 22.4383 101.381 22.4383Z" fill="black"/>
<path d="M100.919 24.461H93.1627C93.0562 24.461 92.9614 24.3664 92.9614 24.2599C92.9614 24.1535 93.0562 24.0588 93.1627 24.0588H100.919C101.026 24.0588 101.121 24.1535 101.121 24.2599C101.121 24.3664 101.026 24.461 100.919 24.461Z" fill="black"/>
<path d="M106.888 22.4619L106.201 23.1952C106.201 23.5619 106.201 23.7866 106.189 24.1651L106.864 24.9103C106.58 25.4899 106.556 25.5135 106.272 26.0931L105.277 26.0103C104.981 26.2351 104.804 26.377 104.508 26.6017L104.342 27.5953C103.714 27.7373 103.679 27.7373 103.039 27.8792L102.483 27.0512C102.116 26.9684 101.902 26.9093 101.535 26.8265L100.659 27.3114C100.162 26.8975 100.126 26.8856 99.6287 26.4716L99.9366 25.5135C99.7826 25.1705 99.6879 24.9695 99.5221 24.6383L98.5984 24.2598C98.5984 23.6092 98.5984 23.5855 98.6102 22.935L99.5458 22.5801C99.7116 22.249 99.8063 22.0479 99.9721 21.7167L99.6879 20.7586C100.197 20.3564 100.221 20.3446 100.742 19.9425L101.606 20.4511C101.973 20.3683 102.187 20.321 102.554 20.25L103.134 19.4338C103.762 19.5876 103.797 19.5876 104.425 19.7414L104.567 20.7349C104.851 20.9715 105.029 21.1134 105.313 21.35L106.32 21.2909C106.592 21.8823 106.604 21.9059 106.876 22.4974L106.888 22.4619ZM103.892 23.6329C103.892 23.006 103.383 22.4855 102.743 22.4855C102.104 22.4855 101.594 22.9941 101.594 23.6329C101.594 24.2716 102.104 24.7802 102.743 24.7802C103.383 24.7802 103.892 24.2716 103.892 23.6329Z" fill="#F57A3E"/>
<path d="M103.039 28.0686C102.968 28.0686 102.909 28.0331 102.873 27.9739L102.364 27.2051L101.571 27.0158L100.765 27.4653C100.694 27.5008 100.6 27.5008 100.54 27.4417L99.5102 26.6018C99.451 26.5545 99.4273 26.4599 99.451 26.3889L99.7352 25.5137L99.3918 24.7803L98.5391 24.4255C98.4681 24.39 98.4089 24.319 98.4207 24.2362V22.9114C98.4325 22.8286 98.4918 22.7577 98.5628 22.7222L99.4273 22.391L99.7944 21.6695L99.5339 20.7824C99.5102 20.6996 99.5339 20.6168 99.6049 20.5694L100.659 19.7533C100.718 19.706 100.813 19.6942 100.884 19.7415L101.677 20.2146L102.471 20.049L103.004 19.292C103.051 19.221 103.134 19.1974 103.217 19.2092L104.508 19.5167C104.59 19.5404 104.65 19.5995 104.662 19.6823L104.792 20.5931L105.419 21.1017L106.343 21.0426C106.426 21.0426 106.497 21.0781 106.533 21.1609L107.089 22.3673C107.125 22.4383 107.113 22.5329 107.054 22.5921L106.414 23.2663V24.0824L107.018 24.7685C107.077 24.8276 107.089 24.9222 107.054 24.9932L106.462 26.176C106.426 26.247 106.343 26.2943 106.26 26.2825L105.337 26.1997L104.697 26.6965L104.543 27.6072C104.531 27.69 104.472 27.7492 104.389 27.7728L103.087 28.0567C103.087 28.0567 103.063 28.0567 103.039 28.0567V28.0686ZM101.547 26.6137C101.547 26.6137 101.583 26.6137 101.594 26.6137L102.542 26.8384C102.542 26.8384 102.637 26.8857 102.66 26.9212L103.146 27.6427L104.176 27.418L104.318 26.5664C104.318 26.5664 104.354 26.4717 104.389 26.4363L105.159 25.8448C105.159 25.8448 105.254 25.7975 105.301 25.8094L106.166 25.8803L106.639 24.9341L106.059 24.2953C106.059 24.2953 106.012 24.2125 106.012 24.1534V23.1835C106.012 23.1835 106.047 23.0889 106.083 23.0534L106.675 22.4265L106.225 21.4684L105.36 21.5157C105.36 21.5157 105.265 21.5039 105.218 21.4684L104.472 20.8533C104.472 20.8533 104.413 20.7705 104.401 20.7232L104.283 19.8598L103.252 19.6114L102.755 20.3211C102.755 20.3211 102.684 20.392 102.637 20.4039L101.689 20.6049C101.689 20.6049 101.594 20.6049 101.547 20.5813L100.801 20.1436L99.972 20.7942L100.221 21.6222C100.221 21.6222 100.221 21.7168 100.209 21.7641L99.7826 22.6276C99.7826 22.6276 99.7233 22.7104 99.676 22.7222L98.8707 23.0297V24.0824L99.6641 24.4136C99.7115 24.4373 99.747 24.4728 99.7707 24.5083L100.185 25.3835C100.185 25.3835 100.209 25.4782 100.185 25.5255L99.9247 26.3535L100.742 27.0158L101.5 26.59C101.5 26.59 101.559 26.5664 101.594 26.5664L101.547 26.6137ZM102.743 24.9814C101.997 24.9814 101.393 24.3781 101.393 23.633C101.393 22.8878 101.997 22.2845 102.743 22.2845C103.489 22.2845 104.093 22.8878 104.093 23.633C104.093 24.3781 103.489 24.9814 102.743 24.9814ZM102.743 22.6867C102.222 22.6867 101.796 23.1125 101.796 23.633C101.796 24.1534 102.222 24.5792 102.743 24.5792C103.264 24.5792 103.69 24.1534 103.69 23.633C103.69 23.1125 103.264 22.6867 102.743 22.6867Z" fill="black"/>
<path d="M83.9968 136.983H71.4677C71.3374 136.983 71.2309 136.888 71.2072 136.77C71.0769 135.93 72.0835 135.28 73.2677 134.534C74.4993 133.754 75.8967 132.867 75.6125 131.826C75.2691 130.584 75.7546 129.531 76.9388 128.94C78.573 128.112 80.9533 128.407 81.8415 129.519C83.227 131.282 84.2218 136.462 84.2573 136.687C84.2691 136.758 84.2573 136.841 84.1981 136.9C84.1507 136.959 84.0797 136.995 83.9968 136.995V136.983ZM71.7401 136.462H83.677C83.4402 135.315 82.552 131.258 81.427 129.827C80.7046 128.916 78.5612 128.691 77.1638 129.389C76.4888 129.732 75.7546 130.406 76.098 131.684C76.477 133.091 74.9138 134.085 73.5283 134.96C72.723 135.469 71.894 136.001 71.7282 136.462H71.7401Z" fill="black"/>
<path d="M59.8505 136.983H48.6596C48.5293 136.983 48.4228 136.888 48.3991 136.77C48.2688 135.93 49.2754 135.28 50.4596 134.534C51.6912 133.754 53.0886 132.867 52.8044 131.826C52.461 130.584 52.9465 129.531 54.1307 128.94C55.7649 128.112 58.1452 128.396 59.0334 129.519C60.4426 131.305 60.1229 136.522 60.111 136.746C60.111 136.888 59.9926 136.983 59.8505 136.983ZM48.932 136.462H59.6018C59.6492 135.41 59.7439 131.258 58.6189 129.827C57.8965 128.916 55.7531 128.691 54.3557 129.389C53.6807 129.732 52.9465 130.406 53.2899 131.684C53.6689 133.091 52.1057 134.085 50.7202 134.96C49.9149 135.469 49.0859 136.001 48.9201 136.462H48.932Z" fill="black"/>
<path d="M68.0334 68.4739L60.561 131.897H52.6149C52.6149 131.897 50.4596 85.3409 58.157 67.2083L68.0334 68.462V68.4739Z" fill="#4666C9"/>
<path d="M60.5493 132.157H52.6031C52.461 132.157 52.3545 132.051 52.3426 131.909C52.3189 131.447 50.2702 85.0806 57.9085 67.1135C57.9558 67.0071 58.0624 66.9479 58.1808 66.9597L68.0572 68.2135C68.1993 68.2372 68.2941 68.3555 68.2822 68.4974L60.8098 131.92C60.7979 132.051 60.6795 132.145 60.5493 132.145V132.157ZM52.8518 131.637H60.3124L67.7375 68.6985L58.3111 67.492C51.0992 84.7967 52.7097 127.958 52.8518 131.637Z" fill="black"/>
<path d="M62.5505 69.7157C62.5505 69.7157 66.115 114.616 73.7414 131.897H83.8073C74.0375 104.585 77.9572 77.5224 71.219 68.249L62.5624 69.7157H62.5505Z" fill="#4666C9"/>
<path d="M83.8073 132.157H73.7415C73.6349 132.157 73.5401 132.098 73.5046 132.003C65.9493 114.888 62.3256 70.1887 62.29 69.7393C62.29 69.6091 62.3729 69.4909 62.5032 69.4672L71.1599 68.0005C71.2546 67.9887 71.3493 68.0242 71.4085 68.107C74.6533 72.5662 75.4467 80.9643 76.4533 91.586C77.5428 103.13 78.9165 117.502 84.0323 131.814C84.056 131.897 84.0442 131.979 83.9968 132.05C83.9494 132.121 83.8665 132.157 83.7836 132.157H83.8073ZM73.9191 131.636H83.4402C78.3954 117.372 77.0454 103.107 75.9559 91.6333C74.9612 81.189 74.1796 72.9211 71.1006 68.5328L62.8348 69.9285C63.1308 73.4533 66.7309 115.124 73.9191 131.636Z" fill="black"/>
<path d="M65.5349 79.5568C69.4918 79.5568 72.6994 76.3529 72.6994 72.4007C72.6994 68.4485 69.4918 65.2446 65.5349 65.2446C61.578 65.2446 58.3704 68.4485 58.3704 72.4007C58.3704 76.3529 61.578 79.5568 65.5349 79.5568Z" fill="#4666C9"/>
<path d="M59.8862 135.303H50.1282C49.9861 135.303 49.8677 135.185 49.8677 135.043C49.8677 134.901 49.9861 134.783 50.1282 134.783H59.8862C60.0283 134.783 60.1467 134.901 60.1467 135.043C60.1467 135.185 60.0283 135.303 59.8862 135.303Z" fill="black"/>
<path d="M83.6298 135.303H72.9363C72.7942 135.303 72.6758 135.185 72.6758 135.043C72.6758 134.901 72.7942 134.783 72.9363 134.783H83.6298C83.7719 134.783 83.8903 134.901 83.8903 135.043C83.8903 135.185 83.7719 135.303 83.6298 135.303Z" fill="black"/>
<path d="M76.9034 31.0728C77.7087 31.0728 78.5021 31.2029 79.2718 31.4632C80.4561 31.8535 81.5337 32.5514 82.3982 33.4385C83.2864 34.3492 83.6535 35.4966 84.3995 36.4665C86.0101 38.5246 88.0351 40.1924 90.6759 40.7128C92.0141 40.9731 93.3878 40.9376 94.7259 41.1978C96.0641 41.458 97.4259 42.0613 98.1128 43.2441C99.8773 46.2839 96.0404 50.5184 97.9707 53.4518C99.0128 55.0368 101.464 55.6637 101.737 57.5326C101.938 58.952 100.623 60.1939 99.2378 60.5843C97.8523 60.9746 96.372 60.809 94.9509 60.9746C89.7404 61.566 85.6548 66.4866 80.4205 66.5694C77.0218 66.6285 73.9665 64.6177 71.1718 62.6897C69.206 61.3413 67.2402 59.981 65.2743 58.6326C64.1849 57.8756 63.0006 57.0003 62.7401 55.6874C62.3256 53.5583 64.5638 51.8669 65.0493 49.7496C65.6651 47.0764 63.3678 44.557 63.3559 41.8129C63.3559 40.1214 64.2322 38.5246 65.4283 37.3181C66.5888 36.1471 67.9744 35.2482 69.3836 34.4202C70.9468 33.4976 72.3205 32.2083 74.0494 31.5696C74.9613 31.2384 75.9323 31.061 76.9034 31.0728Z" fill="black"/>
<path d="M68.2112 44.2375C68.2112 44.2375 67.4415 49.7731 66.4586 50.6602C65.4875 51.5473 71.3494 53.3216 72.1192 52.1506C72.8889 50.9796 72.6047 45.9053 73.2797 43.3859C73.9547 40.8664 68.6849 41.4697 68.1994 44.2375H68.2112Z" fill="white"/>
<path d="M70.8875 52.8013C70.5796 52.8013 70.248 52.7658 69.9638 52.7303C68.5072 52.5292 66.3637 51.8313 66.1269 51.0507C66.0677 50.8496 66.1269 50.6367 66.2927 50.4829C66.9558 49.8797 67.6545 46.4022 67.9624 44.214C68.1519 43.1258 69.0519 42.2268 70.3546 41.7892C71.5032 41.4107 72.6519 41.5171 73.2204 42.0494C73.4809 42.2978 73.7414 42.7354 73.5519 43.4806C73.2441 44.6161 73.1375 46.2957 73.0427 47.928C72.9125 49.9152 72.8059 51.6303 72.3559 52.3163C72.1072 52.7066 71.5269 52.8249 70.8993 52.8249L70.8875 52.8013ZM68.4716 44.2731C68.3887 44.8763 67.6545 49.927 66.6479 50.8496C66.6361 50.8614 66.6243 50.8733 66.6243 50.8851C66.6243 51.0152 67.2401 51.512 68.7203 51.9378C70.2598 52.3754 71.6572 52.3991 71.9177 52.0206C72.2967 51.4528 72.4033 49.6313 72.5217 47.8807C72.6283 46.2248 72.7348 44.5215 73.0546 43.3387C73.1612 42.9365 73.1019 42.629 72.8769 42.4161C72.4506 42.0139 71.4914 41.9548 70.5322 42.2741C69.4072 42.6526 68.6493 43.3978 68.4835 44.2968L68.4716 44.2731Z" fill="black"/>
<path d="M69.0874 45.4442C65.4874 43.6936 70.4374 31.7944 76.1809 34.8224C81.9244 37.8505 74.3809 48.0109 69.0874 45.4442Z" fill="white"/>
<path d="M70.8994 46.1066C70.248 46.1066 69.5967 45.9647 68.9809 45.6689C68.1638 45.2786 67.702 44.4151 67.6191 43.185C67.4651 40.6183 69.1586 36.573 71.823 34.8461C73.2915 33.8999 74.831 33.8171 76.2994 34.5859C79.0586 36.0408 78.8336 38.9505 77.6968 41.186C76.3231 43.8947 73.5402 46.0948 70.8994 46.0948V46.1066ZM74.2862 34.5859C73.552 34.5859 72.8296 34.8225 72.1073 35.2838C69.5849 36.9042 67.998 40.7247 68.1401 43.1495C68.1875 43.8711 68.4006 44.8173 69.2059 45.2076C71.4796 46.3077 75.2454 44.8646 77.2349 40.9613C79.2007 37.0935 76.8323 35.4612 76.0626 35.0472C75.4705 34.7397 74.8783 34.5859 74.2862 34.5859Z" fill="black"/>
<path d="M71.6455 35.2837C78.7627 33.6159 73.8245 42.0967 76.0745 43.1021C78.5495 44.2022 82.1614 35.6977 78.2416 33.3911C74.3218 31.0846 71.6573 35.2837 71.6573 35.2837H71.6455Z" fill="black"/>
<path d="M71.6927 51.169C79.3901 53.369 72.6164 63.9553 73.3861 67.7285C74.1558 71.5017 72.7229 70.3662 72.7229 70.3662C72.7229 70.3662 62.7636 73.5835 56.8781 69.2898C56.8781 69.2898 56.6649 64.7833 55.7886 61.3886C54.9123 57.9939 58.9504 49.2173 66.8847 50.6485L71.6808 51.1572L71.6927 51.169Z" fill="white"/>
<path d="M65.0374 71.7856C62.3493 71.7856 59.1874 71.3007 56.7242 69.5028C56.665 69.4555 56.6176 69.3845 56.6176 69.3017C56.6176 69.2544 56.3926 64.7833 55.54 61.4596C55.0426 59.5316 56.0137 55.9476 58.4887 53.2863C60.0874 51.5712 62.8466 49.6787 66.9322 50.412L71.7046 50.9088C71.7046 50.9088 71.7401 50.9088 71.752 50.9088C77.2468 52.4819 75.7073 58.1004 74.4757 62.6069C73.9191 64.6177 73.398 66.5221 73.6349 67.6576C73.9902 69.42 73.9428 70.3781 73.4573 70.6738C73.1967 70.8394 72.8888 70.7447 72.6875 70.6265C72.1428 70.792 69.8572 71.4426 67.0388 71.6673C66.423 71.7147 65.748 71.7501 65.0493 71.7501L65.0374 71.7856ZM57.1269 69.1598C60.0874 71.2534 64.1019 71.4189 66.9677 71.1824C70.1296 70.9222 72.6165 70.1297 72.6401 70.1178C72.723 70.0942 72.8178 70.1178 72.877 70.1652C72.948 70.2125 73.102 70.2953 73.173 70.2598C73.2086 70.2361 73.5638 69.9522 73.1138 67.7877C72.8533 66.5339 73.3744 64.6532 73.9665 62.4886C75.2099 57.9821 76.6073 52.8604 71.6217 51.4292L66.8493 50.9206C62.9769 50.2228 60.3716 52.0088 58.8558 53.6411C56.5229 56.1487 55.5755 59.5907 56.0255 61.3413C56.819 64.4048 57.0676 68.4146 57.115 69.1598H57.1269Z" fill="black"/>
<path d="M78.1704 42.3096C78.4665 43.1257 77.7678 44.1311 76.5836 44.5688C75.3993 45.0064 74.2151 44.6989 73.9072 43.8946C73.6112 43.0784 74.3099 42.073 75.4941 41.6354C76.6665 41.1977 77.8625 41.5053 78.1704 42.3096Z" fill="white"/>
<path d="M75.5179 45.03C75.2929 45.03 75.0679 45.0064 74.8547 44.9472C74.2626 44.7935 73.8481 44.4505 73.6705 43.9773C73.6231 43.8472 73.6942 43.6935 73.8244 43.6461C73.9547 43.5988 74.1086 43.6698 74.156 43.7999C74.2744 44.1074 74.5705 44.344 74.985 44.4505C75.435 44.5687 75.9797 44.5214 76.5008 44.3322C77.0218 44.1429 77.46 43.8236 77.7205 43.4332C77.9692 43.0784 78.0403 42.7117 77.9337 42.4042C77.685 41.7418 76.6192 41.4934 75.5889 41.8719C75.4587 41.9192 75.3047 41.8483 75.2573 41.7181C75.21 41.588 75.281 41.4343 75.4113 41.387C76.7258 40.902 78.0639 41.2805 78.4192 42.2149C78.5968 42.6881 78.5021 43.2203 78.1468 43.7171C77.8153 44.1902 77.2942 44.5687 76.6784 44.7935C76.2876 44.9354 75.8968 45.0064 75.5179 45.0064V45.03Z" fill="black"/>
<path d="M41.1399 58.0295C40.4294 57.2843 39.9083 56.3735 39.6359 55.3799C39.4938 54.8595 39.3991 54.2799 38.9964 53.9132C38.5938 53.5466 37.7767 53.6294 37.7056 54.1735C37.6346 54.7412 38.4399 55.1789 38.2978 55.7348C38.2149 56.066 37.8004 56.2198 37.457 56.1488C37.1254 56.0778 36.8412 55.8412 36.5688 55.6283C35.9885 55.1789 35.349 54.7649 34.6148 54.6821C33.8925 54.5993 33.0753 54.9186 32.7674 55.581C32.4951 56.1961 32.7201 56.9294 33.1582 57.4499C33.5846 57.9585 34.1885 58.2897 34.7806 58.6091C36.557 59.5671 38.3451 60.5371 40.1215 61.4951L41.128 58.0295H41.1399Z" fill="white"/>
<path d="M40.1333 61.7553C40.1333 61.7553 40.0504 61.7553 40.0149 61.7198L34.6741 58.8337C34.0938 58.5262 33.4425 58.1713 32.9688 57.6154C32.424 56.9648 32.2583 56.125 32.5425 55.4745C32.9096 54.6583 33.8806 54.339 34.6504 54.4218C35.4912 54.5164 36.2017 55.0132 36.7228 55.4153L36.782 55.4626C37.0188 55.6519 37.2557 55.8293 37.5044 55.8885C37.7175 55.9358 37.9899 55.8412 38.0373 55.6637C38.0728 55.51 37.9662 55.3325 37.7886 55.0841C37.5991 54.8121 37.3859 54.5164 37.4333 54.1379C37.4688 53.8422 37.6701 53.6056 37.978 53.4992C38.3807 53.3572 38.8662 53.4518 39.1623 53.7239C39.5531 54.0906 39.6952 54.6228 39.8136 55.0841C39.8373 55.1669 39.8491 55.2379 39.8728 55.3207C40.1333 56.267 40.6307 57.1541 41.3175 57.8638C41.4123 57.9702 41.4123 58.1358 41.3175 58.2305C41.211 58.3251 41.0452 58.3251 40.9504 58.2305C40.2044 57.4616 39.6715 56.5035 39.3873 55.4745C39.3636 55.3917 39.3399 55.3089 39.3281 55.2379C39.2215 54.8003 39.1149 54.3863 38.8307 54.1261C38.6767 53.9841 38.3925 53.9368 38.1794 54.0078C38.0609 54.0551 37.9899 54.1261 37.978 54.2325C37.9544 54.4099 38.0965 54.5992 38.2386 54.8121C38.4399 55.096 38.6649 55.4153 38.5583 55.8175C38.428 56.3143 37.8596 56.5154 37.4096 56.4207C37.0307 56.3379 36.7346 56.1014 36.4741 55.9003L36.4149 55.853C35.9412 55.4863 35.3017 55.0487 34.5912 54.9659C34.0109 54.8949 33.2767 55.1315 33.0162 55.711C32.7793 56.2433 33.0162 56.8939 33.3596 57.3079C33.7622 57.7928 34.3425 58.1003 34.9109 58.4079L40.2517 61.294C40.382 61.3649 40.4294 61.5187 40.3583 61.6488C40.311 61.7316 40.2281 61.7789 40.1333 61.7789V61.7553Z" fill="black"/>
<path d="M71.977 63.2221C55.2321 70.6147 39.4228 61.2586 39.861 61.5543L40.3465 56.7757C40.3465 56.7757 55.6821 58.7155 70.8402 52.7068L71.977 63.2221Z" fill="white"/>
<path d="M58.2875 66.321C49.015 66.321 41.6966 62.808 39.8255 61.8263C39.8018 61.8263 39.79 61.8026 39.7663 61.8026C39.7426 61.8026 39.7189 61.779 39.7071 61.7671C39.6005 61.6962 39.565 61.5661 39.6005 61.4596L40.086 56.752C40.086 56.681 40.1334 56.6219 40.1808 56.5746C40.24 56.5272 40.311 56.5154 40.3702 56.5154C40.5242 56.5391 55.8243 58.3843 70.7455 52.4583C70.8758 52.411 71.0297 52.4702 71.0771 52.6003C71.1244 52.7304 71.0652 52.8841 70.935 52.9315C56.973 58.4671 42.6795 57.2606 40.5715 57.0477L40.1334 61.3886C42.9874 62.879 57.1033 69.491 71.8705 62.9736C72.0008 62.9145 72.1547 62.9736 72.2139 63.1037C72.2731 63.2338 72.2139 63.3876 72.0837 63.4468C67.2994 65.5522 62.5862 66.3092 58.2993 66.3092L58.2875 66.321Z" fill="black"/>
<path d="M37.9897 48.8272C37.6226 48.4605 37.2081 48.1884 36.7581 48.0228C36.1068 47.7744 35.9055 46.9465 36.3437 46.4024L38.4634 43.7883C39.0792 43.0313 38.9608 41.9195 38.2029 41.2926L35.1476 38.8205C34.6976 38.4538 34.8042 37.7559 35.3371 37.5312C35.9647 37.2591 36.5331 36.7978 36.9358 36.1473C37.7647 34.7989 37.5634 33.0246 36.4502 31.901C34.97 30.3988 32.5542 30.5525 31.2515 32.1375C30.8844 32.587 30.6476 33.1074 30.541 33.6515C30.4344 34.2075 29.7594 34.4559 29.3212 34.0892L26.2659 31.6171C25.508 31.002 24.3949 31.1203 23.7672 31.8773L21.9317 34.1365C21.3633 34.8344 21.5764 35.8871 22.3817 36.2774C22.6896 36.4312 22.9856 36.6323 23.258 36.8806C24.5133 38.0635 24.7028 40.027 23.708 41.4227C22.5238 43.0786 20.2264 43.3625 18.6751 42.1087C18.4738 41.9431 18.2961 41.7657 18.1422 41.5765C17.5738 40.8668 16.4961 40.8431 15.9277 41.5528L14.0922 43.812C13.4764 44.569 13.5948 45.6809 14.3527 46.3078L26.2896 55.9951C27.0475 56.6101 28.1607 56.4919 28.7883 55.7349L30.9081 53.1208C31.3581 52.5649 32.2107 52.624 32.6015 53.2154C32.791 53.4993 33.0278 53.7714 33.3121 53.9961C34.9108 55.2854 37.3029 54.9424 38.4516 53.1681C39.3279 51.8197 39.1384 49.9982 38.0016 48.8508L37.9897 48.8272Z" fill="#4666C9"/>
<path d="M39.5056 48.4485C39.1385 48.0818 38.724 47.8098 38.274 47.6442C37.6227 47.3958 37.4214 46.5678 37.8595 46.0237L39.9793 43.4097C40.5951 42.6527 40.4767 41.5408 39.7188 40.9139L36.6635 38.4418C36.2135 38.0751 36.32 37.3773 36.8529 37.1525C37.4806 36.8805 38.049 36.4192 38.4516 35.7686C39.2806 34.4202 39.0793 32.646 37.9661 31.5223C36.4858 30.0201 34.07 30.1739 32.7674 31.7589C32.4003 32.2083 32.1634 32.7288 32.0568 33.2729C31.9503 33.8288 31.2753 34.0772 30.8371 33.7105L27.7818 31.2384C27.0239 30.6234 25.9107 30.7416 25.2831 31.4986L23.4476 33.7578C22.8791 34.4557 23.0923 35.5084 23.8976 35.8987C24.2055 36.0525 24.5015 36.2536 24.7739 36.502C26.0292 37.6848 26.2186 39.6483 25.2239 41.044C24.0397 42.7 21.7423 42.9839 20.191 41.7301C19.9896 41.5645 19.812 41.387 19.6581 41.1978C19.0896 40.4881 18.012 40.4644 17.4436 41.1741L15.608 43.4333C14.9922 44.1903 15.1106 45.3022 15.8685 45.9291L27.8055 55.6164C28.5634 56.2315 29.6766 56.1132 30.3042 55.3562L32.424 52.7422C32.874 52.1862 33.7266 52.2454 34.1174 52.8368C34.3069 53.1207 34.5437 53.3927 34.8279 53.6174C36.4266 54.9067 38.8187 54.5637 39.9674 52.7895C40.8438 51.441 40.6543 49.6195 39.5174 48.4722L39.5056 48.4485Z" fill="#8ABAE7"/>
<path d="M28.9186 56.2434C28.4567 56.2434 28.0067 56.0896 27.6396 55.7939L15.7027 46.1066C15.2764 45.7635 15.0158 45.2786 14.9566 44.7345C14.8974 44.1904 15.0632 43.6699 15.4066 43.2441L17.2422 40.9849C17.5619 40.5946 18.0356 40.3699 18.533 40.3699C19.054 40.3699 19.5277 40.6064 19.8593 41.0204C20.0014 41.1978 20.1672 41.3634 20.3567 41.5172C21.0554 42.085 21.9317 42.3333 22.8198 42.2032C23.708 42.085 24.4896 41.6118 25.0107 40.8785C25.9343 39.5774 25.7567 37.7677 24.5962 36.6795C24.3593 36.4547 24.087 36.2655 23.7909 36.1235C23.3409 35.9106 23.033 35.4966 22.9146 35.0117C22.808 34.5031 22.9146 33.9826 23.258 33.5805L25.0936 31.3213C25.8041 30.446 27.083 30.3159 27.9594 31.0256L31.0147 33.4977C31.1568 33.6041 31.3344 33.6396 31.5002 33.5805C31.666 33.5213 31.7844 33.3794 31.8199 33.2138C31.9383 32.6224 32.1989 32.0664 32.5897 31.5933C33.2647 30.7653 34.2594 30.2686 35.3134 30.2094C36.391 30.1621 37.4094 30.5524 38.1673 31.3331C39.3634 32.5396 39.5766 34.4557 38.6884 35.8988C38.2739 36.573 37.6818 37.0816 36.9713 37.3891C36.8055 37.4601 36.6871 37.6139 36.6634 37.7795C36.6397 37.9569 36.6989 38.1225 36.841 38.229L39.8963 40.7011C40.7726 41.4107 40.9029 42.6882 40.1924 43.5635L38.0726 46.1775C37.9187 46.3786 37.8595 46.6388 37.9187 46.8872C37.9779 47.1238 38.1437 47.313 38.3687 47.3958C38.866 47.5851 39.316 47.8808 39.695 48.2711C40.9147 49.5013 41.1161 51.4529 40.1805 52.9078C39.5884 53.8186 38.6766 54.4218 37.6108 54.5874C36.5568 54.753 35.4792 54.4691 34.6621 53.7949C34.366 53.5583 34.1055 53.2745 33.9042 52.9551C33.762 52.7422 33.5252 52.6003 33.2765 52.5884C33.0278 52.5766 32.791 52.6831 32.637 52.8723L30.5173 55.4863C30.1739 55.9122 29.6883 56.1724 29.1436 56.2315C29.0725 56.2315 29.0015 56.2315 28.9304 56.2315L28.9186 56.2434ZM18.533 40.9021C18.1895 40.9021 17.8698 41.0559 17.6448 41.3279L15.8093 43.5871C15.5606 43.8947 15.4422 44.2968 15.4777 44.699C15.525 45.1012 15.7145 45.456 16.0224 45.7162L27.9594 55.4035C28.6107 55.924 29.5581 55.8294 30.0791 55.1788L32.1989 52.5648C32.4594 52.2454 32.8502 52.068 33.2765 52.0798C33.7028 52.1035 34.0818 52.3164 34.3186 52.6712C34.4963 52.9433 34.7213 53.1917 34.97 53.3927C35.6805 53.9723 36.6042 54.2207 37.516 54.067C38.4279 53.925 39.2213 53.4046 39.7305 52.6239C40.5358 51.3701 40.3582 49.6905 39.316 48.6378C38.9845 48.3066 38.6055 48.0582 38.1792 47.8926C37.8002 47.7507 37.516 47.4313 37.4094 47.0292C37.3029 46.627 37.3976 46.1894 37.6581 45.8582L39.7779 43.2441C40.2989 42.5936 40.2042 41.6473 39.5529 41.1269L36.4976 38.6548C36.2134 38.43 36.0831 38.087 36.1305 37.7322C36.1779 37.3773 36.4147 37.0698 36.7463 36.9278C37.3621 36.6676 37.8713 36.2182 38.2266 35.6504C38.9963 34.4084 38.8068 32.7643 37.7766 31.7234C37.1134 31.061 36.2489 30.718 35.3134 30.7535C34.4015 30.8008 33.5489 31.2266 32.9686 31.9363C32.637 32.3385 32.412 32.8234 32.3055 33.3321C32.2344 33.6869 31.9857 33.9708 31.6541 34.0891C31.3107 34.2074 30.9436 34.1482 30.6594 33.9235L27.6041 31.4514C26.9528 30.9309 26.0054 31.0256 25.4843 31.6761L23.6488 33.9353C23.4238 34.2192 23.3409 34.574 23.412 34.9289C23.483 35.2601 23.6962 35.5321 24.0041 35.6859C24.3475 35.8515 24.6554 36.0644 24.9396 36.3364C26.2896 37.6139 26.5028 39.7075 25.4133 41.2215C24.8093 42.0731 23.8975 42.6172 22.8672 42.7592C21.8488 42.9011 20.8067 42.6054 20.0014 41.9548C19.7882 41.7774 19.5988 41.5882 19.433 41.3753C19.208 41.0914 18.8764 40.9258 18.5211 40.9258L18.533 40.9021Z" fill="black"/>
<path d="M32.0686 38.5837L36.7344 42.4397L32.0686 48.6259V38.5837Z" fill="#D8E5F3"/>
<path d="M21.4108 88.9247C21.624 88.5935 21.7542 88.2268 21.8016 87.872C21.8726 87.3397 22.4648 87.0558 22.9503 87.2924L25.2714 88.4279C25.9464 88.7591 26.7635 88.487 27.0951 87.8128L28.4214 85.116C28.6109 84.7257 29.1556 84.6784 29.4161 85.0332C29.724 85.459 30.174 85.802 30.7188 85.9913C31.8675 86.3816 33.1583 85.9322 33.8096 84.9031C34.6859 83.5428 34.153 81.7568 32.7438 81.0707C32.3412 80.8697 31.9148 80.7869 31.4885 80.7987C31.0504 80.8105 30.7543 80.3492 30.9556 79.9589L32.2819 77.2621C32.6135 76.5878 32.3412 75.7717 31.6661 75.4405L29.6648 74.4588C29.049 74.1512 28.2911 74.4943 28.1372 75.1566C28.078 75.4169 27.9832 75.6652 27.8293 75.9136C27.1661 77.0491 25.7214 77.5223 24.5135 77.0255C23.0805 76.4223 22.4648 74.7545 23.1398 73.3824C23.2227 73.205 23.3292 73.0394 23.4477 72.8974C23.8858 72.3533 23.72 71.549 23.0924 71.2415L21.0911 70.2597C20.4161 69.9286 19.5989 70.2006 19.2674 70.8748L14.0568 81.4256C13.7252 82.0998 13.9976 82.9159 14.6726 83.2471L16.9937 84.3826C17.4792 84.6192 17.5858 85.2698 17.2068 85.6601C17.0292 85.8494 16.8634 86.0741 16.745 86.3225C16.0463 87.73 16.7213 89.457 18.2371 90.0129C19.3976 90.4387 20.7239 89.9892 21.3871 88.9365L21.4108 88.9247Z" fill="#4666C9"/>
<path d="M21.9435 89.9892C22.1567 89.658 22.2869 89.2913 22.3343 88.9364C22.4054 88.4042 22.9975 88.1203 23.483 88.3569L25.8041 89.4924C26.4791 89.8236 27.2962 89.5515 27.6278 88.8773L28.9541 86.1805C29.1436 85.7901 29.6883 85.7428 29.9488 86.0977C30.2567 86.5235 30.7067 86.8665 31.2515 87.0557C32.4002 87.4461 33.691 86.9966 34.3423 85.9676C35.2186 84.6073 34.6857 82.8212 33.2765 82.1352C32.8739 81.9341 32.4476 81.8513 32.0212 81.8632C31.5831 81.875 31.287 81.4137 31.4883 81.0233L32.8147 78.3265C33.1462 77.6523 32.8739 76.8362 32.1989 76.505L30.1975 75.5232C29.5817 75.2157 28.8238 75.5587 28.6699 76.2211C28.6107 76.4813 28.5041 76.7297 28.362 76.9781C27.6988 78.1136 26.2541 78.5867 25.0462 78.0899C23.6133 77.4867 22.9975 75.8189 23.6725 74.4468C23.7554 74.2694 23.8619 74.1038 23.9804 73.9619C24.4185 73.4178 24.2527 72.6135 23.6251 72.3059L21.6238 71.3242C20.9488 70.993 20.1317 71.2651 19.8001 71.9393L14.5895 82.49C14.2579 83.1643 14.5303 83.9804 15.2053 84.3116L17.5264 85.4471C18.0119 85.6837 18.1185 86.3342 17.7395 86.7246C17.5619 86.9138 17.3961 87.1385 17.2777 87.3869C16.579 88.7945 17.254 90.5214 18.7698 91.0773C19.9303 91.5032 21.2567 91.0537 21.9198 90.001L21.9435 89.9892Z" fill="#8ABAE7"/>
<path d="M14.3172 83.4127C14.2343 83.0696 14.2817 82.703 14.4356 82.3836L19.6462 71.8328C19.8357 71.4543 20.1436 71.1823 20.5462 71.0522C20.937 70.922 21.3633 70.9457 21.7423 71.135L23.7436 72.1167C24.087 72.2823 24.3357 72.6017 24.4305 72.9802C24.5134 73.3705 24.4305 73.7608 24.1699 74.0802C24.0634 74.2221 23.9568 74.3759 23.8857 74.5297C23.5778 75.1447 23.5423 75.8426 23.791 76.4813C24.0278 77.12 24.5134 77.6287 25.1528 77.8889C26.2778 78.362 27.6042 77.9244 28.22 76.8716C28.3502 76.6469 28.445 76.4222 28.5042 76.1738C28.5871 75.8071 28.8358 75.4996 29.191 75.334C29.5463 75.1684 29.9608 75.1684 30.316 75.334L32.3174 76.3157C33.0871 76.6942 33.4069 77.6287 33.0279 78.3975L31.7016 81.0943C31.6424 81.2126 31.6542 81.3545 31.7253 81.4728C31.7963 81.5911 31.9266 81.6502 32.0568 81.6502C32.5187 81.6384 32.9805 81.7449 33.4069 81.946C34.1411 82.3008 34.6858 82.9632 34.899 83.7439C35.124 84.5363 34.9937 85.3643 34.5437 86.0622C33.845 87.1622 32.4476 87.6472 31.216 87.2332C30.6476 87.0439 30.1621 86.6891 29.8068 86.2041C29.7239 86.0977 29.5937 86.0267 29.4634 86.0385C29.3331 86.0385 29.2147 86.1213 29.1555 86.2514L27.8292 88.9483C27.4502 89.7171 26.5147 90.0365 25.7449 89.658L23.4239 88.5224C23.2462 88.4397 23.0449 88.4397 22.8673 88.5224C22.7015 88.6052 22.5949 88.759 22.5594 88.9483C22.5002 89.3504 22.3581 89.7289 22.1331 90.0838C21.4225 91.2075 20.0015 91.6924 18.7462 91.2311C17.9646 90.9472 17.3607 90.3677 17.0528 89.5988C16.7449 88.8418 16.7804 87.9902 17.1357 87.2568C17.2659 86.9966 17.4317 86.76 17.633 86.5471C17.7751 86.4052 17.8344 86.2041 17.7988 86.0149C17.7633 85.8256 17.6449 85.6719 17.4791 85.5891L15.158 84.4535C14.7791 84.2643 14.5067 83.9568 14.3764 83.5546C14.3646 83.5073 14.3409 83.4481 14.3291 83.4008L14.3172 83.4127ZM24.016 73.0511C23.9568 72.7909 23.791 72.578 23.5541 72.4597L21.5528 71.478C21.2804 71.336 20.9607 71.3242 20.6646 71.4188C20.3686 71.5135 20.1317 71.7264 20.0015 71.9984L14.7909 82.5492C14.5067 83.117 14.7435 83.8148 15.312 84.0987L17.633 85.2342C17.9172 85.3761 18.1186 85.6364 18.1778 85.9557C18.237 86.2751 18.1423 86.5945 17.9054 86.831C17.7278 87.0084 17.5857 87.2213 17.4791 87.4461C17.1712 88.073 17.1475 88.8063 17.408 89.4569C17.6686 90.1193 18.1896 90.6161 18.8646 90.8526C19.9423 91.2429 21.162 90.829 21.7778 89.859C21.9673 89.5515 22.0975 89.2321 22.1449 88.8773C22.1923 88.5698 22.3818 88.3095 22.6541 88.1558C22.9383 88.002 23.2818 88.002 23.5778 88.1439L25.8989 89.2795C26.4673 89.5633 27.166 89.3268 27.4502 88.759L28.7766 86.0622C28.895 85.8138 29.1318 85.6482 29.4042 85.6245C29.6766 85.6009 29.9489 85.7192 30.1147 85.9439C30.4108 86.3579 30.8371 86.6654 31.3226 86.831C32.3766 87.1859 33.5845 86.7719 34.1766 85.8256C34.5674 85.2224 34.674 84.5127 34.4727 83.8266C34.2832 83.1524 33.8095 82.5847 33.1819 82.2771C32.8266 82.0997 32.424 82.0169 32.0213 82.0288C31.7489 82.0288 31.4884 81.8986 31.3463 81.6739C31.1924 81.4373 31.1805 81.1535 31.2989 80.9051L32.6253 78.2082C32.9095 77.6405 32.6726 76.9426 32.1042 76.6587L30.1029 75.677C29.8542 75.5587 29.57 75.5587 29.3213 75.677C29.0845 75.7834 28.9187 75.9964 28.8594 76.2447C28.7884 76.5286 28.6818 76.8007 28.5397 77.0491C27.8173 78.2792 26.2778 78.7878 24.9634 78.2437C24.2173 77.9362 23.6607 77.3566 23.3765 76.5996C23.1041 75.8662 23.1397 75.0264 23.4831 74.3286C23.5778 74.1393 23.6844 73.9619 23.8147 73.8081C23.9923 73.5952 24.0515 73.3113 23.9923 73.0511H24.016Z" fill="black"/>
<path d="M28.0662 82.7502L25.982 86.8901L20.5464 84.4772L28.0662 82.7502Z" fill="#D8E5F3"/>
<path d="M30.3515 113.267C30.091 113.374 29.8541 113.515 29.6765 113.705C29.4041 113.977 28.9423 113.894 28.7647 113.551L27.9239 111.907C27.6752 111.434 27.0949 111.244 26.6212 111.493L24.7028 112.475C24.4186 112.617 24.0988 112.415 24.0988 112.096C24.0988 111.718 23.9922 111.339 23.7554 110.996C23.258 110.286 22.3225 109.991 21.5172 110.31C20.4396 110.724 19.9777 111.966 20.4988 112.971C20.6409 113.255 20.8541 113.492 21.1027 113.657C21.3633 113.835 21.3278 114.225 21.0554 114.367L19.1369 115.349C18.6633 115.597 18.4738 116.177 18.7225 116.65L19.4567 118.069C19.6817 118.507 20.262 118.637 20.6291 118.318C20.7712 118.199 20.937 118.093 21.1264 118.01C21.9909 117.644 23.0212 117.975 23.5067 118.791C24.0751 119.749 23.7199 120.967 22.737 121.464C22.6067 121.523 22.4764 121.582 22.3462 121.618C21.8607 121.748 21.612 122.28 21.8488 122.718L22.583 124.137C22.8317 124.61 23.412 124.8 23.8857 124.551L31.3818 120.695C31.8555 120.447 32.0449 119.867 31.7963 119.394L30.9555 117.75C30.7778 117.407 30.991 116.993 31.3818 116.922C31.5713 116.887 31.7489 116.827 31.9265 116.733C32.9331 116.212 33.2765 114.947 32.6371 113.977C32.1515 113.243 31.1923 112.936 30.3752 113.255L30.3515 113.267Z" fill="#4666C9"/>
<path d="M30.4936 112.416C30.2331 112.522 29.9962 112.664 29.8186 112.853C29.5462 113.125 29.0844 113.042 28.9067 112.699L28.066 111.055C27.8173 110.582 27.237 110.393 26.7633 110.641L24.8449 111.623C24.5607 111.765 24.2409 111.564 24.2409 111.245C24.2409 110.866 24.1343 110.488 23.8975 110.144C23.4001 109.435 22.4646 109.139 21.6593 109.458C20.5817 109.872 20.1198 111.114 20.6409 112.12C20.783 112.404 20.9962 112.64 21.2448 112.806C21.5054 112.983 21.4698 113.374 21.1975 113.516L19.279 114.497C18.8053 114.746 18.6159 115.325 18.8646 115.798L19.5988 117.218C19.8238 117.655 20.404 117.786 20.7712 117.466C20.9133 117.348 21.079 117.241 21.2685 117.159C22.133 116.792 23.1633 117.123 23.6488 117.939C24.2172 118.897 23.862 120.116 22.8791 120.612C22.7488 120.672 22.6185 120.731 22.4883 120.766C22.0027 120.896 21.7541 121.429 21.9909 121.866L22.7251 123.286C22.9738 123.759 23.5541 123.948 24.0278 123.7L31.5239 119.855C31.9976 119.607 32.187 119.027 31.9384 118.554L31.0976 116.91C30.9199 116.567 31.1331 116.153 31.5239 116.082C31.7134 116.047 31.891 115.988 32.0686 115.893C33.0752 115.384 33.4186 114.107 32.7792 113.137C32.2936 112.404 31.3344 112.096 30.5173 112.416H30.4936Z" fill="#8ABAE7"/>
<path d="M32.0805 119.441C31.9739 119.678 31.7963 119.867 31.5713 119.986L24.0751 123.83C23.8146 123.96 23.5067 123.995 23.2225 123.901C22.9383 123.806 22.7133 123.617 22.5712 123.345L21.837 121.925C21.7067 121.677 21.7067 121.393 21.8133 121.145C21.9317 120.885 22.1567 120.695 22.4291 120.624C22.5475 120.589 22.6778 120.541 22.7843 120.482C23.2225 120.258 23.5422 119.867 23.6725 119.394C23.8028 118.921 23.7436 118.424 23.4949 117.998C23.0449 117.241 22.0975 116.934 21.2922 117.277C21.1264 117.348 20.9725 117.442 20.8304 117.561C20.6291 117.738 20.3448 117.809 20.0843 117.75C19.8001 117.691 19.5751 117.513 19.4448 117.265L18.7106 115.846C18.4264 115.302 18.6396 114.627 19.1961 114.343L21.1146 113.362C21.1975 113.314 21.2567 113.232 21.2567 113.137C21.2567 113.042 21.2212 112.948 21.1383 112.9C20.8659 112.711 20.6409 112.451 20.4869 112.155C20.2146 111.635 20.1909 111.032 20.3922 110.487C20.6054 109.932 21.0317 109.518 21.5883 109.305C22.4528 108.973 23.4712 109.281 24.0041 110.05C24.2528 110.405 24.3712 110.819 24.3712 111.233C24.3712 111.327 24.4186 111.422 24.5015 111.469C24.5844 111.517 24.6791 111.528 24.762 111.469L26.6804 110.487C27.2252 110.204 27.9002 110.417 28.1844 110.972L29.0252 112.617C29.0844 112.735 29.2147 112.829 29.3449 112.853C29.4752 112.877 29.6055 112.829 29.7002 112.735C29.9015 112.534 30.1502 112.368 30.4226 112.262C31.3107 111.919 32.3292 112.25 32.8621 113.042C33.1936 113.539 33.2884 114.131 33.1463 114.698C33.0042 115.266 32.6134 115.739 32.1042 115.999C31.9147 116.094 31.7134 116.165 31.512 116.201C31.3699 116.224 31.2515 116.307 31.1923 116.437C31.1331 116.555 31.1331 116.697 31.1923 116.816L32.0331 118.46C32.1634 118.72 32.1989 119.027 32.1042 119.311C32.0923 119.347 32.0805 119.382 32.0568 119.418L32.0805 119.441ZM22.0856 121.275C22.0146 121.452 22.0146 121.642 22.0975 121.807L22.8317 123.227C22.9383 123.428 23.1041 123.57 23.3172 123.64C23.5304 123.711 23.7554 123.688 23.9449 123.593L31.441 119.737C31.8436 119.524 32.0094 119.027 31.7963 118.625L30.9555 116.981C30.8489 116.78 30.8489 116.544 30.9555 116.342C31.062 116.13 31.2515 115.988 31.4884 115.952C31.666 115.917 31.8318 115.869 31.9976 115.787C32.4476 115.562 32.7673 115.148 32.8976 114.663C33.0278 114.166 32.945 113.669 32.6607 113.232C32.2107 112.557 31.3344 112.274 30.5647 112.557C30.3278 112.652 30.1147 112.782 29.937 112.96C29.7831 113.113 29.5581 113.184 29.3331 113.161C29.1081 113.125 28.9068 112.983 28.8002 112.782L27.9594 111.138C27.7462 110.736 27.2489 110.57 26.8462 110.783L24.9278 111.765C24.7501 111.86 24.5488 111.848 24.383 111.741C24.2172 111.635 24.1107 111.457 24.1107 111.256C24.1107 110.89 24.0041 110.535 23.7909 110.239C23.3409 109.589 22.4646 109.317 21.7185 109.6C21.233 109.778 20.8777 110.144 20.6883 110.618C20.5106 111.091 20.5343 111.611 20.7712 112.061C20.9014 112.309 21.0909 112.534 21.3277 112.699C21.4935 112.818 21.5764 112.995 21.5646 113.196C21.5527 113.397 21.4343 113.563 21.2567 113.657L19.3383 114.639C18.9356 114.852 18.7698 115.349 18.983 115.751L19.7172 117.17C19.8119 117.348 19.9659 117.466 20.1672 117.502C20.3567 117.537 20.5343 117.502 20.6764 117.372C20.8304 117.241 21.008 117.123 21.2093 117.04C22.1449 116.638 23.2462 117.005 23.7672 117.88C24.0633 118.377 24.1344 118.945 23.9804 119.501C23.8265 120.045 23.4475 120.506 22.9501 120.754C22.8199 120.825 22.6778 120.873 22.5357 120.92C22.3462 120.967 22.1922 121.097 22.1093 121.275H22.0856Z" fill="black"/>
<path d="M23.8975 113.977L26.858 112.487L28.9422 116.189L23.8975 113.977Z" fill="#D8E5F3"/>
</g>
<defs>
<clipPath id="clip0_261_531">
<rect width="151" height="138" fill="white"/>
</clipPath>
</defs>
</svg>
