<svg width="179" height="142" viewBox="0 0 179 142" fill="none" xmlns="http://www.w3.org/2000/svg">
<g clip-path="url(#clip0_261_56)">
<path d="M141.61 129.853C140.621 134.04 137.715 138.921 132.721 140.832C128.667 142.39 123.55 142.158 119.264 141.428C108.848 139.651 106.919 133.334 99.3359 128.734C92.2047 124.425 82.729 122.879 74.2058 123.281C65.6581 123.683 56.7442 125.849 49.1245 129.281C43.3732 131.874 40.0518 136.499 33.7998 138.458C29.1841 139.907 23.5426 139.894 19.6596 137.399C13.1878 133.225 14.7752 124.924 18.2431 118.839C21.6988 112.753 26.5465 106.375 24.605 99.8638C21.9308 90.8937 7.7417 86.6947 4.76224 77.7976C1.64845 68.4867 5.71469 57.9709 14.6531 52.4453C20.4289 48.8791 27.1693 46.1772 31.3576 41.2114C37.805 33.5679 36.3885 22.8452 40.8089 14.1794C45.7543 4.50338 58.7468 -1.07097 70.5914 0.170478C84.988 1.67969 95.5261 12.9136 110.35 12.4389C120.046 12.1225 130.474 6.7672 138.667 10.9784C145.53 14.508 145.762 22.4801 144.48 28.9794C143.198 35.4788 141.403 42.8179 146.262 48.1002C153.894 56.3765 173.2 54.1979 178.096 63.74C181.576 70.5315 174.433 77.895 166.679 81.7411C158.925 85.5871 149.62 88.2161 144.675 94.399C140.633 99.45 140.401 105.876 141.036 111.877C141.659 117.877 143.002 123.95 141.61 129.865V129.853Z" fill="#D8E5F3"/>
<path d="M69.2238 28.5655C69.0162 28.5655 68.8452 28.3951 68.8452 28.1882V20.9586C68.8452 20.7517 69.0162 20.5813 69.2238 20.5813C69.4313 20.5813 69.6023 20.7517 69.6023 20.9586V28.1882C69.6023 28.3951 69.4313 28.5655 69.2238 28.5655Z" fill="black"/>
<path d="M66.5984 27.4458C66.5007 27.4458 66.403 27.4093 66.3297 27.3363C66.1832 27.1902 66.1954 26.9468 66.3297 26.8129L71.5682 21.8106C71.7148 21.6645 71.959 21.6767 72.0933 21.8106C72.2398 21.9566 72.2276 22.2001 72.0933 22.3339L66.8548 27.3363C66.7815 27.4093 66.6839 27.4336 66.5984 27.4336V27.4458Z" fill="black"/>
<path d="M53.9724 38.8623C51.0418 38.8623 48.6606 36.4889 48.6606 33.5679C48.6606 30.6468 51.0418 28.2734 53.9724 28.2734C56.903 28.2734 59.2842 30.6468 59.2842 33.5679C59.2842 36.4889 56.903 38.8623 53.9724 38.8623ZM53.9724 29.028C51.457 29.028 49.4177 31.0728 49.4177 33.5679C49.4177 36.0629 51.4692 38.1077 53.9724 38.1077C56.4756 38.1077 58.5271 36.0629 58.5271 33.5679C58.5271 31.0728 56.4756 29.028 53.9724 29.028Z" fill="#8ABAE7"/>
<path d="M55.5842 32.3629C56.3732 32.3629 57.0129 31.7254 57.0129 30.9389C57.0129 30.1524 56.3732 29.5149 55.5842 29.5149C54.7952 29.5149 54.1555 30.1524 54.1555 30.9389C54.1555 31.7254 54.7952 32.3629 55.5842 32.3629Z" fill="white"/>
<path d="M47.525 46.9926C47.3174 46.9926 47.1465 46.8222 47.1465 46.6153C47.1465 46.1041 47.1709 45.6051 47.2075 45.0939C47.2197 44.887 47.4029 44.741 47.6105 44.7531C47.8181 44.7653 47.9646 44.9479 47.9524 45.1548C47.9158 45.6416 47.8913 46.1285 47.9036 46.6153C47.9036 46.8222 47.7326 46.9926 47.525 46.9926Z" fill="#8ABAE7"/>
<path d="M56.1703 63.2409C56.097 63.2409 56.0238 63.2166 55.9627 63.1801C55.0713 62.5715 54.2165 61.8899 53.4228 61.1475C53.2763 61.0015 53.2641 60.7702 53.4106 60.6242C53.5572 60.4781 53.7892 60.4659 53.9357 60.612C54.6928 61.3301 55.5231 61.9873 56.3779 62.5715C56.5488 62.6811 56.5977 62.9245 56.4756 63.0827C56.4023 63.1923 56.2802 63.2409 56.1703 63.2409ZM51.5423 58.8715C51.4325 58.8715 51.3226 58.8228 51.2493 58.7255C50.9196 58.2995 50.6021 57.8491 50.3213 57.3988C50.0282 56.9485 49.7596 56.4738 49.5031 55.987C49.4054 55.8044 49.4787 55.5853 49.6619 55.488C49.845 55.3906 50.0648 55.4636 50.1625 55.6462C50.4067 56.1087 50.6754 56.559 50.9562 56.9972C51.2371 57.4353 51.5424 57.8613 51.8598 58.2751C51.9819 58.4334 51.9575 58.6768 51.7866 58.7985C51.7133 58.8472 51.64 58.8715 51.5546 58.8715H51.5423ZM48.5629 53.2606C48.4041 53.2606 48.2576 53.1633 48.2088 53.0051C47.8669 51.9827 47.5982 50.9238 47.4273 49.8527C47.3906 49.6458 47.5372 49.4633 47.7325 49.4268C47.9401 49.3902 48.1233 49.5363 48.1599 49.731C48.3309 50.7534 48.5873 51.7758 48.917 52.7616C48.9781 52.9564 48.8804 53.1633 48.685 53.2363C48.6484 53.2485 48.6117 53.2606 48.5629 53.2606Z" fill="#8ABAE7"/>
<path d="M60.3344 65.3954C60.3344 65.3954 60.2489 65.3953 60.2001 65.371C59.7238 65.2006 59.2598 64.9937 58.7958 64.7868C58.6126 64.7016 58.5272 64.4825 58.6126 64.2878C58.6981 64.1052 58.9179 64.02 59.1133 64.1052C59.5529 64.3121 60.0047 64.4947 60.4687 64.6651C60.6641 64.7381 60.7618 64.9572 60.6885 65.1398C60.6275 65.2858 60.4931 65.3832 60.3344 65.3832V65.3954Z" fill="#8ABAE7"/>
<path d="M176.277 68.9127C176.277 68.9127 158.852 65.809 148.155 60.259C148.155 60.259 136.567 76.0814 142.135 95.1535C142.135 95.1535 153.198 102.919 171.661 108.883C171.661 108.883 179.843 91.9647 176.265 68.9127H176.277Z" fill="#8ABAE7"/>
<path d="M148.9 65.8943C148.9 65.8943 150.536 74.341 145.933 87.072C145.933 87.072 117.127 83.9683 104.843 52.0436C104.843 52.0436 93.2061 59.7601 85.3178 57.3867C80.0305 55.7923 81.0684 51.009 83.706 50.3761C101.204 46.1771 112.292 36.063 116.309 36.7324C120.327 37.4018 132.281 55.9748 148.912 65.8943H148.9Z" fill="white"/>
<path d="M145.933 87.2788C145.933 87.2788 145.921 87.2788 145.909 87.2788C145.835 87.2788 138.57 86.439 129.888 81.7166C124.796 78.9416 120.217 75.3755 116.285 71.1278C111.425 65.8821 107.542 59.5653 104.733 52.36C103.048 53.4432 92.6444 59.8087 85.2568 57.5814C82.7414 56.8268 81.2761 55.208 81.3249 53.2607C81.3615 51.788 82.3506 50.4978 83.6572 50.1814C93.7679 47.7472 101.668 43.3777 107.444 40.1889C111.584 37.9008 114.587 36.2333 116.346 36.5254C118.031 36.8054 120.925 39.9698 124.93 44.3393C130.901 50.863 139.095 59.7965 149.022 65.7117C149.071 65.7482 149.108 65.7969 149.12 65.8456C149.132 65.9307 150.707 74.4992 146.141 87.1328C146.116 87.218 146.031 87.2667 145.945 87.2667L145.933 87.2788ZM104.843 51.8366C104.843 51.8366 104.892 51.8366 104.904 51.8366C104.965 51.861 105.014 51.8975 105.039 51.9584C107.835 59.2123 111.718 65.5534 116.59 70.8235C120.485 75.0347 125.028 78.5643 130.083 81.3272C137.971 85.6357 144.675 86.6824 145.799 86.8285C149.328 76.9943 149.267 68.9857 148.717 66.016C138.777 60.0643 130.596 51.1307 124.613 44.607C120.815 40.4567 117.811 37.1827 116.273 36.9271C114.661 36.6593 111.718 38.2902 107.652 40.5419C101.864 43.7429 93.9388 48.1366 83.7671 50.5708C82.6437 50.8386 81.8011 51.9705 81.7645 53.2607C81.7157 55.0133 83.0711 56.4738 85.4034 57.1797C87.6135 57.8492 91.5943 58.0804 97.9684 55.4149C101.803 53.8084 104.709 51.8853 104.745 51.8732C104.782 51.8488 104.819 51.8366 104.855 51.8366H104.843Z" fill="black"/>
<path d="M102.67 81.6803C102.547 81.6803 102.425 81.6437 102.328 81.5707L72.6185 59.9184C72.4842 59.821 72.3865 59.6628 72.3743 59.4924C72.3743 59.322 72.4231 59.1516 72.5452 59.0299L104.062 28.6143C104.269 28.4074 104.611 28.3953 104.843 28.5778L134.381 52.7983C134.516 52.9078 134.589 53.066 134.589 53.2364C134.589 53.4068 134.516 53.5651 134.394 53.6868L103.048 81.5342C102.938 81.6316 102.804 81.6803 102.657 81.6803H102.67ZM73.864 59.3828L102.633 80.3414L133.124 53.2608L104.513 29.8071L73.864 59.3707V59.3828Z" fill="black"/>
<path d="M72.9604 59.4436L102.67 81.096L134.027 53.2607L104.477 29.0403L72.9604 59.4436Z" fill="#8ABAE7"/>
<path d="M103.134 81.2785C102.975 81.2785 102.816 81.2177 102.694 81.0838L74.4624 50.011C74.2426 49.7676 74.2671 49.4024 74.4991 49.1834C74.7433 48.9643 75.1096 48.9886 75.3294 49.2199L103.17 79.8667L133.624 52.8225C133.869 52.6034 134.235 52.6278 134.455 52.8712C134.675 53.1146 134.65 53.4798 134.406 53.6988L103.512 81.1325C103.402 81.2298 103.256 81.2785 103.121 81.2785H103.134Z" fill="black"/>
<path d="M74.9021 49.6216L103.134 80.6944L134.027 53.2608L106.296 24.1719L74.9021 49.6216Z" fill="white"/>
<path d="M103.512 80.9011C103.329 80.9011 103.146 80.8159 103.036 80.6576L77.283 44.899C77.112 44.6556 77.1486 44.3148 77.3807 44.1201L108.287 17.4654C108.531 17.2585 108.897 17.2828 109.117 17.5263C109.324 17.7697 109.3 18.1348 109.056 18.3539L78.5529 44.6678L103.988 80.0004C104.171 80.256 104.123 80.6211 103.854 80.8159C103.756 80.8889 103.634 80.9254 103.512 80.9254V80.9011Z" fill="black"/>
<path d="M77.7593 44.5582L103.512 80.3169L134.027 53.2606L108.665 17.9036L77.7593 44.5582Z" fill="white"/>
<path d="M104.465 80.0979C104.465 80.0979 104.379 80.0979 104.33 80.0857C104.147 80.037 103.988 79.9153 103.915 79.7328L88.0043 40.6514C87.9066 40.4202 87.9677 40.1646 88.1631 39.9942L118.031 13.729C118.178 13.6073 118.373 13.5586 118.556 13.5951C118.739 13.6438 118.898 13.7655 118.959 13.9481L134.565 53.0294C134.65 53.2607 134.589 53.5163 134.406 53.6745L104.843 79.9275C104.733 80.0249 104.599 80.0736 104.452 80.0736L104.465 80.0979ZM89.2498 40.6027L104.697 78.5278L133.331 53.0903L118.178 15.153L89.2498 40.5906V40.6027Z" fill="black"/>
<path d="M88.5537 40.4325L104.465 79.5138L134.027 53.2608L118.409 14.1794L88.5537 40.4325Z" fill="white"/>
<path d="M105.063 79.5623C104.99 79.5623 104.916 79.5501 104.843 79.5258C104.636 79.4406 104.501 79.258 104.477 79.0389L100.691 37.9615C100.679 37.779 100.74 37.5964 100.875 37.4747L110.582 28.6628C110.79 28.4803 111.095 28.4559 111.315 28.6263L114.807 31.1336L130.254 18.6825C130.425 18.5487 130.645 18.5121 130.852 18.5973C131.048 18.6825 131.182 18.8651 131.207 19.072L134.589 53.2119C134.613 53.3945 134.54 53.577 134.394 53.6987L105.442 79.4162C105.332 79.5136 105.197 79.5623 105.051 79.5623H105.063ZM101.888 38.1441L105.539 77.7731L133.405 53.0172L130.156 20.2526L115.198 32.302C114.99 32.4724 114.697 32.4724 114.49 32.3263L111.022 29.8313L101.876 38.1319L101.888 38.1441Z" fill="black"/>
<path d="M101.278 37.9006L105.063 78.978L134.027 53.2605L130.633 19.1206L114.844 31.8516L110.985 29.0887L101.278 37.9006Z" fill="#8ABAE7"/>
<path d="M126.395 38.6433L111.229 64.093L109.263 42.4894L126.395 38.6433Z" fill="#D8E5F3"/>
<path d="M111.229 64.6772C110.936 64.6772 110.68 64.446 110.643 64.1417L108.677 42.538C108.653 42.2459 108.848 41.9782 109.129 41.9173L126.261 38.0712C126.579 37.9982 126.884 38.1929 126.957 38.5094C127.03 38.8258 126.835 39.1301 126.518 39.2031L109.886 42.9397L111.816 64.0322C111.84 64.3486 111.608 64.6407 111.29 64.6651C111.278 64.6651 111.254 64.6651 111.242 64.6651L111.229 64.6772Z" fill="#4666C9"/>
<path d="M133.453 76.2517C124.246 74.1826 121.719 67.3668 121.719 67.3668C121.719 67.3668 113.073 67.3181 107.31 62.7783C104.11 60.2589 105.893 56.6075 109.166 56.851C121.865 57.8125 127.8 54.7089 133.453 57.8855V76.2395V76.2517Z" fill="white"/>
<path d="M133.453 76.4709C133.453 76.4709 133.417 76.4709 133.404 76.4709C128.593 75.3876 125.626 73.0021 123.978 71.1886C122.451 69.509 121.767 68.0363 121.572 67.586C120.424 67.5495 112.524 67.16 107.175 62.961C105.991 62.0238 104.953 60.405 105.625 58.7011C106.162 57.3501 107.554 56.5468 109.178 56.6685C114.526 57.0702 118.739 56.7537 122.122 56.486C126.835 56.1208 130.242 55.8652 133.551 57.7274C133.649 57.7883 133.685 57.91 133.624 58.0073C133.563 58.1047 133.441 58.1412 133.343 58.0804C130.144 56.279 126.786 56.5346 122.146 56.8876C118.751 57.1554 114.526 57.4718 109.141 57.0702C107.7 56.9606 106.479 57.6544 106.015 58.835C105.832 59.3096 105.38 61.0014 107.432 62.6202C113.061 67.0626 121.621 67.16 121.706 67.16C121.792 67.16 121.877 67.2208 121.902 67.2939C121.926 67.3669 124.503 74.0245 133.49 76.0449C133.6 76.0692 133.673 76.1788 133.649 76.3005C133.624 76.3978 133.539 76.4587 133.441 76.4587L133.453 76.4709Z" fill="black"/>
<path d="M147.447 98.4275C147.447 98.4275 147.386 98.4275 147.349 98.4032C147.252 98.3545 147.203 98.2206 147.252 98.1232C156.434 79.7327 153.223 62.7176 153.186 62.5472C153.162 62.4376 153.235 62.3281 153.357 62.3037C153.467 62.2794 153.577 62.3524 153.601 62.4741C153.601 62.5228 154.444 66.8314 154.126 73.3794C153.833 79.4163 152.466 88.642 147.63 98.318C147.593 98.391 147.52 98.4397 147.447 98.4397V98.4275Z" fill="black"/>
<path d="M4.44488 71.2981C4.44488 71.2981 14.641 75.8866 34.8867 80.8159C34.8867 80.8159 39.2827 100.241 28.1341 116.806C28.1341 116.806 13.9572 116.27 2.43008 110.27C2.43008 110.27 -4.18825 92.5123 4.44488 71.2981Z" fill="#4666C9"/>
<path d="M34.8012 99.401C33.0429 108.493 29.5261 115.455 26.9374 114.956C24.3487 114.457 23.6649 106.691 25.4232 97.6119C27.1816 88.5201 30.6984 81.5582 33.2871 82.0572C35.8758 82.5562 36.5596 90.3214 34.8012 99.401Z" fill="white"/>
<path d="M27.1939 115.187C27.0962 115.187 26.9985 115.187 26.9008 115.163C25.5454 114.907 24.6418 112.899 24.3487 109.527C24.0557 106.229 24.3731 101.981 25.2279 97.5755C27.0351 88.2403 30.5885 81.3271 33.336 81.8626C36.0834 82.386 36.8161 90.1146 35.0211 99.462C33.2871 108.469 29.9169 115.211 27.2183 115.211L27.1939 115.187ZM33.0185 82.2399C30.6007 82.2399 27.2793 89.1166 25.6309 97.6485C24.7883 102.03 24.483 106.229 24.7639 109.491C25.0325 112.619 25.8507 114.542 26.9741 114.761C29.404 115.224 32.8964 108.176 34.5937 99.3768C36.291 90.5649 35.6805 82.7389 33.2505 82.2764C33.1772 82.2643 33.0918 82.2521 33.0185 82.2521V82.2399Z" fill="black"/>
<path d="M33.2261 85.0392C33.2261 85.0392 25.4721 97.2225 27.8166 113.106C45.6934 111.852 59.3452 125.094 79.0537 118.558C88.0776 115.564 86.6611 111.377 86.6611 111.377C92.8643 108.298 90.3122 104.355 90.3122 104.355C92.9497 99.1212 88.6026 97.6241 88.6026 97.6241C89.7382 91.2343 82.4361 93.4373 80.1283 94.0215C63.2161 98.2449 50.8464 87.3396 50.8464 87.3396C63.3504 85.6721 67.8196 75.1807 62.4957 74.7668C57.1717 74.353 55.5965 79.6109 45.9376 80.0004C38.7576 80.2803 33.2505 85.0392 33.2505 85.0392H33.2261Z" fill="white"/>
<path d="M67.8929 120.579C61.1281 120.579 54.9371 118.717 48.8927 116.891C42.2256 114.883 35.3386 112.789 27.8289 113.325C27.719 113.325 27.6213 113.252 27.6091 113.142C25.289 97.3686 32.9697 85.0515 33.0552 84.9297C33.0552 84.9176 33.0796 84.8932 33.0918 84.8811C33.1528 84.8324 38.7455 80.0857 45.9133 79.7935C51.1762 79.5866 54.058 77.8827 56.378 76.5195C58.3318 75.3633 60.0291 74.3774 62.4835 74.56C63.9732 74.6695 64.8402 75.5458 64.8768 76.9577C64.9745 80.5238 59.8704 86.159 51.3105 87.4857C52.2629 88.2524 55.0837 90.3459 59.211 92.0863C63.9244 94.0702 71.373 95.9933 80.055 93.8268C80.1771 93.8025 80.2992 93.766 80.4458 93.7294C82.314 93.2548 86.1849 92.2567 87.9799 93.8998C88.798 94.6544 89.0789 95.8715 88.8225 97.5025C89.2743 97.6972 90.4954 98.3423 91.0693 99.7298C91.5944 101.02 91.4112 102.566 90.5442 104.355C90.7396 104.708 91.3013 105.913 90.8861 107.422C90.4587 108.992 89.1155 110.367 86.9053 111.487C86.9786 111.84 87.0519 112.704 86.5146 113.787C85.2691 116.282 81.8134 117.865 79.127 118.753C75.1829 120.068 71.4585 120.579 67.9051 120.579H67.8929ZM30.21 112.814C36.865 112.814 43.0315 114.676 49.0148 116.489C58.173 119.252 67.6487 122.112 78.9805 118.364C83.5473 116.854 85.3301 115.041 86.0262 113.787C86.7588 112.461 86.4535 111.463 86.4413 111.451C86.4047 111.353 86.4413 111.244 86.5512 111.195C88.737 110.112 90.0558 108.809 90.4709 107.325C90.9105 105.742 90.129 104.489 90.1168 104.476C90.0802 104.416 90.068 104.33 90.1168 104.27C90.9838 102.553 91.167 101.093 90.6785 99.888C90.0558 98.3666 88.5416 97.8311 88.5172 97.8311C88.4195 97.7946 88.3584 97.6972 88.3829 97.5998C88.6637 96.0298 88.4317 94.8857 87.6991 94.2041C86.075 92.7071 82.3507 93.6686 80.5557 94.1311C80.4091 94.1676 80.287 94.2041 80.1649 94.2284C71.3731 96.4192 63.8267 94.484 59.04 92.4636C53.8626 90.2729 50.7122 87.5344 50.6877 87.51C50.6267 87.4613 50.6023 87.3761 50.6267 87.2909C50.6511 87.2179 50.7122 87.1571 50.7976 87.1449C60.0535 85.9156 64.5594 79.9639 64.4739 76.982C64.4372 75.8014 63.729 75.0955 62.4591 74.9981C60.1268 74.8156 58.576 75.7406 56.5978 76.8968C54.2411 78.2843 51.2983 80.0126 45.9255 80.2317C39.1484 80.4995 33.7878 84.8567 33.3849 85.1975C32.9941 85.8426 25.8263 97.7337 27.9876 112.899C28.7325 112.85 29.4651 112.826 30.1978 112.826L30.21 112.814Z" fill="black"/>
<path d="M74.1449 112.302C72.9726 112.302 71.7759 112.108 70.6037 111.621C70.4938 111.572 70.4449 111.45 70.4938 111.353C70.5426 111.244 70.6647 111.195 70.7624 111.244C74.1082 112.655 77.6982 111.475 80.5678 110.513C82.6803 109.82 84.5119 109.211 85.7086 109.82C86.2459 110.099 86.6122 110.586 86.8442 111.329C86.8809 111.438 86.8198 111.56 86.7099 111.584C86.6 111.621 86.4779 111.56 86.4535 111.45C86.2581 110.83 85.965 110.416 85.5377 110.197C84.4997 109.661 82.7536 110.246 80.7265 110.915C78.7728 111.56 76.4894 112.315 74.1571 112.315L74.1449 112.302Z" fill="black"/>
<path d="M77.2342 99.827C76.9411 99.827 76.648 99.8027 76.3672 99.7662C76.2573 99.754 76.1718 99.6444 76.184 99.5349C76.1962 99.4254 76.3061 99.3402 76.416 99.3523C78.2721 99.6201 80.2869 98.8898 82.2406 98.1839C84.5974 97.3319 86.8197 96.5408 88.6758 97.4415C88.7857 97.4902 88.8223 97.6119 88.7735 97.7214C88.7246 97.831 88.6025 97.8675 88.4926 97.8188C86.7953 97.0033 84.6462 97.7701 82.3872 98.5856C80.6776 99.1941 78.9315 99.827 77.2342 99.827Z" fill="black"/>
<path d="M76.6724 105.876C75.8665 105.876 75.0728 105.791 74.2913 105.572C74.1814 105.535 74.1203 105.426 74.1447 105.316C74.1692 105.207 74.2913 105.146 74.4012 105.17C77.1975 105.949 80.3845 105 83.2053 104.16C86.3557 103.223 89.0787 102.419 90.4585 104.233C90.5318 104.33 90.5074 104.452 90.4219 104.525C90.3242 104.598 90.2021 104.574 90.1288 104.489C88.9322 102.906 86.3313 103.673 83.3396 104.562C81.2271 105.182 78.9192 105.876 76.6846 105.876H76.6724Z" fill="black"/>
<path d="M52.2185 70.5937L37.313 76.0364L42.7735 90.8932L57.679 85.4505L52.2185 70.5937Z" fill="#4666C9"/>
<path d="M67.1369 65.1564L52.2314 70.5991L57.692 85.456L72.5974 80.0132L67.1369 65.1564Z" fill="white"/>
<path d="M57.6972 85.4591L42.7917 90.9019L48.2523 105.759L63.1577 100.316L57.6972 85.4591Z" fill="#8ABAE7"/>
<path d="M72.5918 80.0141L57.6863 85.4568L63.1468 100.314L78.0523 94.8709L72.5918 80.0141Z" fill="#F57A3E"/>
<path d="M63.1551 100.959C62.8864 100.959 62.6422 100.801 62.5445 100.533L51.628 70.8234C51.5059 70.4948 51.6768 70.1175 52.0187 69.9958C52.3484 69.874 52.7269 70.0444 52.8491 70.3852L63.7656 100.095C63.8877 100.423 63.7168 100.801 63.3749 100.922C63.3016 100.947 63.2283 100.959 63.1551 100.959Z" fill="white"/>
<path d="M57.6846 86.0983C57.4159 86.0983 57.1717 85.9401 57.074 85.6723C56.9519 85.3437 57.1229 84.9664 57.4648 84.8447L72.3743 79.4042C72.7162 79.2825 73.0825 79.4529 73.2046 79.7937C73.3268 80.1223 73.1558 80.4996 72.8139 80.6213L57.9043 86.0618C57.8311 86.0861 57.7578 86.0983 57.6846 86.0983Z" fill="white"/>
<path d="M64.5837 107.519C67.954 106.095 68.4424 102.858 65.6949 100.302C62.9475 97.7459 57.9776 96.8331 54.6196 98.2571C51.9943 99.3647 51.1151 101.58 52.153 103.71L40.0886 108.018V109.065L46.1819 110.988L47.3175 110.501L47.6472 108.383L50.8953 108.98L51.225 106.862L54.4731 107.458L55.7186 106.935C58.4661 108.298 62.0072 108.59 64.6082 107.495L64.5837 107.519Z" fill="#D8E5F3"/>
<path d="M46.1819 111.158C46.1819 111.158 46.1453 111.158 46.1331 111.158L40.0398 109.235C39.9788 109.211 39.9299 109.15 39.9299 109.089V108.043C39.9299 107.97 39.9666 107.921 40.0398 107.897L51.9455 103.649C51.5059 102.663 51.457 101.665 51.799 100.752C52.2141 99.6446 53.1666 98.744 54.5586 98.1476C57.9655 96.6992 63.0208 97.6242 65.8049 100.217C67.2091 101.519 67.8319 103.028 67.5755 104.464C67.3313 105.852 66.2933 106.996 64.6448 107.69C62.0806 108.773 58.576 108.566 55.6942 107.166L54.5098 107.665C54.5098 107.665 54.4487 107.678 54.4243 107.665L51.3471 107.093L51.0419 109.041C51.0419 109.041 51.0175 109.126 50.9808 109.15C50.9442 109.175 50.9076 109.187 50.8587 109.175L47.7816 108.603L47.4763 110.55C47.4763 110.55 47.4274 110.647 47.3786 110.672L46.243 111.158C46.243 111.158 46.2063 111.171 46.1819 111.171V111.158ZM40.2474 108.956L46.1819 110.83L47.1832 110.404L47.4885 108.383C47.4885 108.383 47.5129 108.298 47.5495 108.274C47.5862 108.25 47.6228 108.237 47.6717 108.25L50.7488 108.822L51.0541 106.874C51.0541 106.874 51.0785 106.789 51.1151 106.765C51.1518 106.74 51.1884 106.728 51.2373 106.74L54.4365 107.325L55.6332 106.813C55.6332 106.813 55.7187 106.801 55.7675 106.813C58.5394 108.189 62.0561 108.408 64.5227 107.361C66.0613 106.704 67.0382 105.645 67.2702 104.367C67.5022 103.04 66.9039 101.629 65.5851 100.411C62.8743 97.9042 57.9899 96.9913 54.6807 98.4032C53.3742 98.9631 52.4828 99.7907 52.092 100.825C51.7623 101.714 51.8356 102.687 52.2996 103.637C52.324 103.673 52.324 103.722 52.2996 103.771C52.2874 103.807 52.2508 103.844 52.2019 103.856L40.2352 108.128V108.956H40.2474Z" fill="black"/>
<path d="M64.5837 106.472C67.954 105.048 68.4424 101.811 65.6949 99.255C62.9475 96.6991 57.9776 95.7862 54.6196 97.2102C51.9943 98.3178 51.1151 100.533 52.153 102.663L40.0886 108.03L46.1819 109.953L47.3175 109.467L47.6472 107.349L50.8953 107.945L51.225 105.827L54.4731 106.424L55.7186 105.9C58.4661 107.264 62.0072 107.556 64.6082 106.46L64.5837 106.472Z" fill="white"/>
<path d="M46.1819 110.112C46.1819 110.112 46.1453 110.112 46.1331 110.112L40.0398 108.189C39.9788 108.164 39.9299 108.116 39.9299 108.043C39.9299 107.982 39.9666 107.921 40.0276 107.884L51.9455 102.59C51.5059 101.604 51.4448 100.594 51.799 99.6811C52.2141 98.5613 53.1666 97.6728 54.5586 97.0765C57.9655 95.6281 63.0208 96.5653 65.8049 99.1455C67.2091 100.448 67.8319 101.957 67.5755 103.393C67.3313 104.781 66.2933 105.925 64.6448 106.619C62.0806 107.702 58.576 107.495 55.6942 106.095L54.5098 106.594C54.5098 106.594 54.4487 106.606 54.4243 106.594L51.3471 106.022L51.0419 107.97C51.0419 107.97 51.0175 108.055 50.9808 108.079C50.9442 108.103 50.9076 108.116 50.8587 108.103L47.7816 107.531L47.4763 109.479C47.4763 109.479 47.4274 109.576 47.3786 109.6L46.243 110.087C46.243 110.087 46.2063 110.1 46.1819 110.1V110.112ZM40.5405 107.994L46.1819 109.771L47.1832 109.345L47.4885 107.324C47.4885 107.324 47.5129 107.239 47.5495 107.215C47.5862 107.191 47.6228 107.178 47.6717 107.191L50.7488 107.763L51.0541 105.815C51.0541 105.815 51.0785 105.73 51.1151 105.706C51.1518 105.681 51.1884 105.669 51.2373 105.681L54.4365 106.266L55.6332 105.754C55.6332 105.754 55.7187 105.742 55.7675 105.754C58.5394 107.13 62.0561 107.349 64.5227 106.302C66.0613 105.645 67.0382 104.586 67.2702 103.308C67.5022 101.981 66.9039 100.57 65.5851 99.3524C62.8743 96.8452 57.9899 95.9324 54.6807 97.3442C53.3742 97.9041 52.4828 98.7317 52.092 99.7663C51.7623 100.655 51.8356 101.628 52.2996 102.578C52.324 102.614 52.324 102.663 52.2996 102.699C52.2752 102.736 52.2508 102.773 52.2141 102.785L40.5283 107.982L40.5405 107.994Z" fill="black"/>
<path d="M57.5381 102.967L56.5857 102.079L61.5677 99.9609L62.5202 100.849L57.5381 102.967Z" fill="#D8E5F3"/>
<path d="M56.5857 102.237C56.5247 102.237 56.4636 102.2 56.4392 102.14C56.4026 102.054 56.4392 101.969 56.5247 101.933L61.5067 99.8149C61.5067 99.8149 61.6288 99.8028 61.6777 99.8393L62.6301 100.728C62.6912 100.789 62.7034 100.886 62.6301 100.947C62.5691 101.008 62.4714 101.02 62.4103 100.947L61.5311 100.131L56.6346 102.2C56.6346 102.2 56.5979 102.213 56.5735 102.213L56.5857 102.237Z" fill="black"/>
<path d="M142.221 131.691L126.932 135.659L116.626 113.495L131.915 109.527L142.221 131.691Z" fill="#8ABAE7"/>
<path d="M126.932 135.951C126.823 135.951 126.713 135.89 126.664 135.78L116.358 113.629C116.321 113.556 116.321 113.459 116.358 113.386C116.394 113.313 116.468 113.252 116.553 113.227L131.841 109.26C131.976 109.223 132.122 109.296 132.183 109.418L142.489 131.581C142.526 131.654 142.526 131.752 142.489 131.825C142.453 131.898 142.379 131.959 142.294 131.983L127.006 135.951C127.006 135.951 126.957 135.951 126.932 135.951ZM117.029 113.69L127.079 135.306L141.793 131.484L131.744 109.868L117.029 113.69Z" fill="black"/>
<path d="M126.981 108.225C125.113 108.724 123.208 111.901 121.804 118.68C120.033 127.249 114.844 131.667 107.883 131.849C107.883 131.849 102.828 128.49 99.6899 121.017C110.802 123.719 107.383 108.712 112.365 108.201C115.894 107.836 126.969 108.225 126.969 108.225H126.981Z" fill="white"/>
<path d="M107.884 132.141C107.884 132.141 107.774 132.129 107.725 132.093C107.676 132.056 102.56 128.6 99.4336 121.139C99.3969 121.041 99.4092 120.92 99.4824 120.834C99.5557 120.749 99.6656 120.713 99.7755 120.737C106.272 122.319 107.59 117.597 108.751 113.422C109.508 110.696 110.216 108.128 112.365 107.909C115.869 107.544 126.554 107.909 127.006 107.933C127.152 107.933 127.274 108.043 127.287 108.189C127.299 108.335 127.213 108.469 127.067 108.505C125.944 108.809 123.794 110.538 122.109 118.741C121.23 123.001 119.521 126.324 117.005 128.624C114.575 130.863 111.51 132.044 107.908 132.141H107.884ZM100.191 121.431C103.048 127.881 107.358 131.119 107.969 131.557C115.027 131.338 119.838 126.75 121.511 118.631C122.61 113.288 124.1 109.832 125.846 108.493C122.94 108.408 115.21 108.213 112.402 108.493C110.655 108.675 110.02 110.951 109.3 113.58C108.164 117.67 106.76 122.733 100.191 121.431Z" fill="black"/>
<path d="M107.883 131.849C107.883 131.849 101.522 126.007 101.522 116.404L96.8325 119.739C96.8325 119.739 100.593 127.601 107.883 131.837V131.849Z" fill="#D8E5F3"/>
<path d="M107.883 132.141C107.883 132.141 107.786 132.129 107.737 132.105C100.459 127.869 96.6128 119.958 96.5761 119.873C96.5151 119.739 96.5517 119.593 96.6738 119.508L101.363 116.173C101.448 116.112 101.57 116.1 101.668 116.148C101.766 116.197 101.827 116.295 101.827 116.404C101.827 125.751 108.03 131.569 108.091 131.63C108.201 131.727 108.213 131.898 108.128 132.02C108.067 132.093 107.981 132.141 107.896 132.141H107.883ZM97.2111 119.836C97.8216 121.005 100.887 126.579 106.223 130.413C104.367 128.076 101.412 123.354 101.241 116.964L97.2111 119.836Z" fill="black"/>
<path d="M126.981 108.225C128.752 107.933 129.863 110.051 129.863 110.051L124.014 111.572C124.014 111.572 125.321 108.493 126.969 108.225H126.981Z" fill="#8ABAE7"/>
<path d="M123.513 112.01L123.745 111.463C123.806 111.329 125.137 108.237 126.932 107.945C128.886 107.629 130.071 109.832 130.132 109.929L130.303 110.258L123.526 112.022L123.513 112.01ZM127.03 108.517C126.029 108.688 125.064 110.16 124.551 111.134L129.399 109.868C129.033 109.333 128.166 108.322 127.018 108.505L127.03 108.517Z" fill="black"/>
<path d="M111.828 128.478C111.828 128.478 111.706 128.478 111.645 128.478C109.715 128.368 107.346 126.737 106.577 124.985C106.113 123.914 106.247 122.903 106.968 122.039C107.078 121.918 107.261 121.893 107.383 122.003C107.505 122.112 107.529 122.295 107.42 122.417C106.846 123.11 106.736 123.889 107.114 124.753C107.859 126.457 110.13 127.821 111.669 127.906C112.133 127.93 112.756 127.845 113.073 127.309C113.513 126.543 113.44 125.642 113.11 124.814C112.927 124.851 112.731 124.863 112.536 124.875C111.266 124.912 110.008 124.376 109.618 123.622C109.41 123.22 109.447 122.806 109.727 122.429C110.204 121.796 110.997 121.759 111.852 122.319C112.45 122.709 113.037 123.366 113.44 124.133C114.099 123.926 114.819 123.475 115.259 122.49C115.601 121.711 115.576 120.92 115.332 120.201C113.745 120.518 111.461 120.08 110.546 118.887C110.179 118.412 110.118 117.877 110.387 117.402C110.875 116.514 111.95 116.343 113.183 116.952C114.136 117.426 115.125 118.364 115.674 119.508C116.578 119.203 117.603 118.498 117.872 116.83C118.043 115.832 117.97 114.956 117.665 114.25C116.199 114.871 114.49 114.907 113.61 114.408C113.171 114.165 112.963 113.787 113.012 113.374C113.085 112.826 113.464 112.375 114.062 112.144C114.88 111.816 116.163 111.864 117.201 112.704C117.42 112.874 117.677 113.13 117.909 113.495C118.116 113.374 118.324 113.24 118.507 113.094C119.337 112.424 120.192 111.183 119.545 109.016C119.496 108.858 119.582 108.7 119.74 108.651C119.899 108.602 120.058 108.688 120.107 108.846C120.852 111.317 119.85 112.765 118.873 113.544C118.654 113.714 118.422 113.873 118.177 114.006C118.483 114.7 118.641 115.649 118.434 116.94C118.177 118.485 117.274 119.581 115.87 120.068C116.15 120.907 116.175 121.832 115.772 122.745C115.344 123.707 114.6 124.376 113.659 124.693C114.026 125.642 114.087 126.701 113.562 127.626C113.232 128.21 112.609 128.514 111.803 128.514L111.828 128.478ZM110.741 122.502C110.546 122.502 110.362 122.575 110.216 122.77C110.069 122.964 110.057 123.147 110.155 123.342C110.399 123.816 111.388 124.315 112.536 124.279C112.634 124.279 112.744 124.279 112.853 124.254C112.499 123.646 112.023 123.123 111.547 122.806C111.339 122.672 111.034 122.514 110.741 122.514V122.502ZM111.828 117.147C111.474 117.147 111.132 117.268 110.912 117.646C110.753 117.925 110.79 118.193 111.022 118.498C111.645 119.301 113.476 119.922 115.112 119.617C114.624 118.644 113.769 117.852 112.939 117.439C112.744 117.341 112.28 117.134 111.828 117.134V117.147ZM115.137 112.522C114.832 112.522 114.551 112.57 114.319 112.668C114.087 112.765 113.684 112.984 113.635 113.434C113.635 113.495 113.598 113.702 113.94 113.885C114.587 114.25 116.077 114.274 117.42 113.726C117.274 113.507 117.091 113.313 116.883 113.142C116.334 112.704 115.699 112.534 115.137 112.534V112.522Z" fill="#F57A3E"/>
<path d="M34.215 28.2246H21.2347L14.7385 39.4463L21.2347 50.6559H34.215L40.7112 39.4463L34.215 28.2246Z" fill="#D8E5F3"/>
<path d="M27.8653 48.3921L33.0305 48.3069L30.5273 52.7858L25.3621 52.8589L27.8653 48.3921Z" fill="#F57A3E"/>
<path d="M17.3883 39.6169L20.038 44.0472L17.5348 48.514L14.885 44.0959L17.3883 39.6169Z" fill="#F57A3E"/>
<path d="M30.1855 35.0161L32.8352 39.4464L27.6944 39.5194L25.0447 35.1013L30.1855 35.0161Z" fill="white"/>
<path d="M25.0445 35.1013L27.6943 39.5194L25.191 43.9984L22.5413 39.5681L25.0445 35.1013Z" fill="#4666C9"/>
<path d="M35.5338 43.8403L40.7112 43.7551L38.208 48.2341L33.0305 48.3071L35.5338 43.8403Z" fill="#4666C9"/>
<path d="M35.143 26.0095L37.805 30.4398L32.6642 30.5128L30.0144 26.0947L35.143 26.0095Z" fill="#4666C9"/>
<path d="M19.8917 35.1501L22.5414 39.5682L20.0382 44.0472L17.3884 39.6169L19.8917 35.1501Z" fill="white"/>
<path d="M27.6944 39.5196L32.8718 39.4465L30.3686 43.9133L25.1912 43.9985L27.6944 39.5196Z" fill="#F57A3E"/>
<path d="M17.2296 30.7197L19.8915 35.15L17.3883 39.6168L14.7385 35.1987L17.2296 30.7197Z" fill="#4666C9"/>
<path d="M35.3141 35.2717C35.192 35.2717 35.0821 35.2108 35.0332 35.1134L32.3834 30.6953C32.3224 30.598 32.3224 30.4641 32.3834 30.3667C32.4445 30.2572 32.5544 30.1963 32.6643 30.1963L37.8051 30.1233C37.9272 30.1233 38.0371 30.1841 38.0982 30.2815L40.7479 34.6996C40.809 34.797 40.809 34.9309 40.7479 35.0282C40.6869 35.1256 40.577 35.1986 40.4671 35.1986L35.3263 35.2717H35.3141ZM33.2504 30.8414L35.5094 34.6022L39.8809 34.5414L37.6219 30.7805L33.2504 30.8414Z" fill="#8ABAE7"/>
<path d="M37.9759 39.7021C37.8538 39.7021 37.7439 39.6412 37.6951 39.5439L35.0453 35.1258C34.9842 35.0284 34.9842 34.8945 35.0453 34.7971C35.1064 34.6876 35.2163 34.6267 35.3262 34.6267L40.467 34.5537C40.5891 34.5537 40.699 34.6146 40.7478 34.7119L43.3976 39.13C43.4586 39.2274 43.4586 39.3613 43.3976 39.4587C43.3365 39.556 43.2266 39.6291 43.1167 39.6291L37.9759 39.7021ZM35.9001 35.2596L38.1591 39.0205L42.5306 38.9596L40.2716 35.1988L35.9001 35.2596Z" fill="#8ABAE7"/>
<path d="M27.5235 30.9267C27.4014 30.9267 27.2915 30.8658 27.2427 30.7685L24.5929 26.3504C24.5319 26.253 24.5319 26.1191 24.5929 26.0217C24.654 25.9122 24.7639 25.8513 24.8738 25.8513L30.0146 25.7783C30.1367 25.7783 30.2466 25.8392 30.2954 25.9365L32.9452 30.3546C33.0062 30.452 33.0062 30.5859 32.9452 30.6833C32.8841 30.7806 32.7742 30.8537 32.6643 30.8537L27.5235 30.9267ZM25.4599 26.4964L27.7189 30.2573L32.0904 30.1964L29.8314 26.4356L25.4599 26.4964Z" fill="#8ABAE7"/>
<path d="M25.0445 35.4301C24.9224 35.4301 24.8125 35.3693 24.7637 35.2719L22.1139 30.8538C22.0529 30.7564 22.0529 30.6225 22.1139 30.5252C22.175 30.4156 22.2849 30.3548 22.3948 30.3548L27.5356 30.2817C27.6577 30.2817 27.7676 30.3426 27.8164 30.44L30.4662 34.8581C30.5272 34.9554 30.5272 35.0893 30.4662 35.1867C30.4051 35.2962 30.2952 35.3571 30.1853 35.3571L25.0445 35.4301ZM22.9687 30.9998L25.2277 34.7607L29.5992 34.6998L27.3402 30.939L22.9687 30.9998Z" fill="#8ABAE7"/>
<path d="M30.1854 35.3569C30.0633 35.3569 29.9534 35.296 29.9045 35.1986L27.2548 30.7805C27.1937 30.6832 27.1937 30.5493 27.2548 30.4519C27.3158 30.3424 27.4257 30.2815 27.5356 30.2815L32.6764 30.2085C32.8107 30.2085 32.9084 30.2694 32.9695 30.3667L35.6193 34.7848C35.6803 34.8822 35.6803 35.0161 35.6193 35.1134C35.5582 35.223 35.4483 35.2838 35.3384 35.2838L30.1976 35.3569H30.1854ZM28.1095 30.9144L30.3686 34.6753L34.7401 34.6144L32.4811 30.8536L28.1095 30.9144Z" fill="#8ABAE7"/>
<path d="M32.8351 39.7751C32.7129 39.7751 32.603 39.7142 32.5542 39.6169L29.9044 35.1987C29.8434 35.1014 29.8434 34.9675 29.9044 34.8701C29.9655 34.7606 30.0754 34.6997 30.1853 34.6997L35.3261 34.6267C35.4482 34.6267 35.5581 34.6876 35.6191 34.7849L38.2689 39.203C38.33 39.3004 38.33 39.4343 38.2689 39.5317C38.2079 39.6412 38.098 39.702 37.9881 39.702L32.8473 39.7751H32.8351ZM30.7592 35.3448L33.0182 39.1057L37.3897 39.0448L35.1307 35.2839L30.7592 35.3448Z" fill="#8ABAE7"/>
<path d="M22.3827 30.9997C22.2606 30.9997 22.1507 30.9388 22.1018 30.8415L19.452 26.4234C19.391 26.326 19.391 26.1921 19.452 26.0947C19.5131 25.9852 19.623 25.9243 19.7329 25.9243L24.8737 25.8513C24.9958 25.8513 25.1057 25.9122 25.1668 26.0095L27.8165 30.4276C27.8776 30.525 27.8776 30.6589 27.8165 30.7563C27.7555 30.8658 27.6456 30.9267 27.5357 30.9267L22.3949 30.9997H22.3827ZM20.319 26.5694L22.578 30.3303L26.9496 30.2694L24.6905 26.5086L20.319 26.5694Z" fill="#8ABAE7"/>
<path d="M27.8652 48.7207C27.7431 48.7207 27.6332 48.6598 27.5844 48.5625C27.5233 48.4651 27.5233 48.3312 27.5844 48.2339L30.0876 43.7549C30.1487 43.6454 30.2586 43.5845 30.3685 43.5845L35.5337 43.5115C35.6558 43.5115 35.7657 43.5723 35.8145 43.6697C35.8756 43.7671 35.8756 43.901 35.8145 43.9983L33.3113 48.4773C33.2502 48.5868 33.1403 48.6477 33.0304 48.6477L27.8652 48.7207ZM30.5638 44.2417L28.4391 48.0391L32.8351 47.9783L34.9598 44.1809L30.5638 44.2539V44.2417Z" fill="#8ABAE7"/>
<path d="M30.5273 53.1145C30.4052 53.1145 30.2953 53.0536 30.2465 52.9563C30.1854 52.8589 30.1854 52.725 30.2465 52.6277L32.7497 48.1487C32.8108 48.0392 32.9207 47.9783 33.0306 47.9783L38.1958 47.9053C38.3301 47.9053 38.4278 47.9661 38.4889 48.0635C38.5499 48.1609 38.5499 48.2947 38.4889 48.3921L35.9856 52.8711C35.9246 52.9806 35.8147 53.0415 35.7048 53.0415L30.5395 53.1145H30.5273ZM33.2382 48.6355L31.1134 52.4329L35.5094 52.3599L37.6341 48.5625L33.2382 48.6355Z" fill="#8ABAE7"/>
<path d="M30.3686 44.2541C30.2465 44.2541 30.1366 44.1933 30.0878 44.0959C30.0267 43.9985 30.0267 43.8647 30.0878 43.7673L32.591 39.2883C32.6521 39.1788 32.762 39.1179 32.8719 39.1179L38.0371 39.0449C38.1714 39.0449 38.2691 39.1058 38.3302 39.2031C38.3912 39.3005 38.3912 39.4344 38.3302 39.5318L35.8269 44.0107C35.7659 44.1203 35.656 44.1811 35.5461 44.1811L30.3808 44.2541H30.3686ZM33.0673 39.7752L30.9425 43.5726L35.3385 43.4995L37.4632 39.7022L33.0673 39.7752Z" fill="#8ABAE7"/>
<path d="M35.5337 44.1689C35.4116 44.1689 35.3017 44.1081 35.2528 44.0107C35.1918 43.9133 35.1918 43.7795 35.2528 43.6821L37.7561 39.2031C37.8171 39.0936 37.927 39.0327 38.0369 39.0327L43.2021 38.9597C43.3242 38.9597 43.4341 39.0206 43.4952 39.1179C43.5563 39.2153 43.5563 39.3492 43.4952 39.4466L40.992 43.9255C40.9309 44.0351 40.821 44.0959 40.7111 44.0959L35.5459 44.1689H35.5337ZM38.2323 39.69L36.1076 43.4874L40.5035 43.4143L42.6282 39.617L38.2323 39.69Z" fill="#8ABAE7"/>
<path d="M22.688 48.8059C22.5659 48.8059 22.456 48.745 22.4071 48.6477C22.3461 48.5503 22.3461 48.4164 22.4071 48.3191L24.9104 43.8401C24.9714 43.7306 25.0813 43.6697 25.1912 43.6697L30.3564 43.5967C30.4785 43.5967 30.5884 43.6575 30.6495 43.7549C30.7106 43.8523 30.7106 43.9862 30.6495 44.0835L28.1463 48.5625C28.0852 48.672 27.9753 48.7329 27.8654 48.7329L22.7002 48.8059H22.688ZM25.3988 44.3269L23.2741 48.1243L27.67 48.0513L29.7947 44.2539L25.3988 44.3148V44.3269Z" fill="#8ABAE7"/>
<path d="M20.1968 53.2727C20.0747 53.2727 19.9648 53.2118 19.9159 53.1145C19.8549 53.0171 19.8549 52.8832 19.9159 52.7859L22.4191 48.3069C22.4802 48.1974 22.5901 48.1365 22.7 48.1365L27.8652 48.0635C27.9873 48.0635 28.0972 48.1243 28.1583 48.2217C28.2193 48.3191 28.2193 48.4529 28.1583 48.5503L25.655 53.0293C25.594 53.1388 25.4841 53.1997 25.3742 53.1997L20.209 53.2727H20.1968ZM22.8954 48.7937L20.7707 52.5911L25.1666 52.5181L27.2913 48.7207L22.8954 48.7937Z" fill="#8ABAE7"/>
<path d="M22.5414 39.8968C22.4192 39.8968 22.3093 39.836 22.2605 39.7386L19.6107 35.3205C19.5497 35.2231 19.5497 35.0893 19.6107 34.9919L22.114 30.5129C22.175 30.4034 22.2849 30.3425 22.3948 30.3425C22.5169 30.3425 22.6268 30.4034 22.6879 30.5008L25.3377 34.9189C25.3987 35.0162 25.3987 35.1501 25.3377 35.2475L22.8344 39.7264C22.7734 39.836 22.6635 39.8968 22.5536 39.8968H22.5414ZM20.2701 35.1379L22.5291 38.8988L24.6538 35.1014L22.3948 31.3406L20.2701 35.1379Z" fill="#8ABAE7"/>
<path d="M14.8851 44.4244C14.763 44.4244 14.6531 44.3636 14.6043 44.2662L11.9545 39.8481C11.8934 39.7507 11.8934 39.6168 11.9545 39.5195L14.4577 35.0405C14.5188 34.931 14.6287 34.8701 14.7386 34.8701C14.8729 34.8701 14.9706 34.931 15.0316 35.0283L17.6814 39.4464C17.7425 39.5438 17.7425 39.6777 17.6814 39.7751L15.1782 44.254C15.1171 44.3636 15.0072 44.4244 14.8973 44.4244H14.8851ZM12.6139 39.6655L14.8729 43.4264L16.9976 39.629L14.7386 35.8681L12.6139 39.6655Z" fill="#8ABAE7"/>
<path d="M20.1969 53.2728C20.0748 53.2728 19.9649 53.212 19.916 53.1146L17.2662 48.6965C17.2052 48.5991 17.2052 48.4652 17.2662 48.3679L19.7695 43.8889C19.8305 43.7794 19.9404 43.7185 20.0503 43.7185C20.1725 43.7185 20.2823 43.7794 20.3434 43.8767L22.9932 48.2948C23.0542 48.3922 23.0542 48.5261 22.9932 48.6235L20.4899 53.1024C20.4289 53.212 20.319 53.2728 20.2091 53.2728H20.1969ZM17.9256 48.5139L20.1847 52.2748L22.3094 48.4774L20.0503 44.7165L17.9256 48.5139Z" fill="#8ABAE7"/>
<path d="M19.8917 35.4786C19.7696 35.4786 19.6597 35.4178 19.6108 35.3204L16.9611 30.9023C16.9 30.8049 16.9 30.671 16.9611 30.5737L19.4643 26.0947C19.5254 25.9852 19.6353 25.9243 19.7452 25.9243C19.8673 25.9243 19.9772 25.9852 20.0382 26.0825L22.688 30.5006C22.7491 30.598 22.7491 30.7319 22.688 30.8293L20.1848 35.3082C20.1237 35.4178 20.0138 35.4786 19.9039 35.4786H19.8917ZM17.6205 30.7197L19.8795 34.4806L22.0042 30.6832L19.7452 26.9223L17.6205 30.7197Z" fill="#8ABAE7"/>
<path d="M22.6878 48.806C22.5657 48.806 22.4558 48.7452 22.407 48.6478L19.7572 44.2297C19.6962 44.1323 19.6962 43.9984 19.7572 43.9011L22.2605 39.4221C22.3215 39.3126 22.4314 39.2517 22.5413 39.2517C22.6634 39.2517 22.7733 39.3126 22.8222 39.4099L25.4719 43.828C25.533 43.9254 25.533 44.0593 25.4719 44.1567L22.9687 48.6356C22.9076 48.7452 22.7977 48.806 22.6878 48.806ZM20.4288 44.0349L22.6878 47.7958L24.8125 43.9984L22.5535 40.2376L20.4288 44.0349Z" fill="#8ABAE7"/>
</g>
<defs>
<clipPath id="clip0_261_56">
<rect width="179" height="142" fill="white"/>
</clipPath>
</defs>
</svg>
