<svg width="20" height="20" viewBox="0 0 20 20" fill="none" xmlns="http://www.w3.org/2000/svg">
<path d="M10.7631 2.55566C10.618 2.55566 10.5 2.67363 10.5 2.81901C10.5 2.83251 10.5058 2.84423 10.5077 2.85734H10.5V9.10092C10.5 9.2463 10.618 9.36427 10.7631 9.36427H17.0065V9.35652C17.0196 9.35851 17.0314 9.36427 17.0451 9.36427C17.1902 9.36427 17.3082 9.2463 17.3082 9.10092C17.2709 5.50229 14.3618 2.5932 10.7631 2.55566Z" fill="#000000"/>
<path d="M15.7862 10.617C15.7862 10.4716 15.6685 10.3536 15.5231 10.3536H9.78376C9.71395 10.3536 9.64702 10.3258 9.59768 10.2764C9.54833 10.227 9.52062 10.1601 9.52062 10.0903V4.37199H9.51287C9.51486 4.35888 9.52062 4.34716 9.52062 4.33366C9.52062 4.18808 9.40265 4.07031 9.25727 4.07031C9.25092 4.07031 9.24575 4.07349 9.2396 4.07389V4.0721C9.21616 4.0719 9.19293 4.07031 9.16949 4.07031C5.51525 4.07031 2.55273 7.03283 2.55273 10.6871C2.55273 14.3413 5.51525 17.3038 9.16949 17.3038C12.8237 17.3038 15.7862 14.3413 15.7862 10.6871C15.786 10.6662 15.7855 10.6451 15.7849 10.6239C15.7849 10.6213 15.7862 10.6193 15.7862 10.617Z" fill="#000000"/>
</svg>
