<svg width="19" height="19" viewBox="0 0 19 19" fill="none" xmlns="http://www.w3.org/2000/svg">
<path d="M15.0923 4.52795C15.0923 2.89209 12.3284 1.50977 9.05589 1.50977C5.78343 1.50977 3.01953 2.89209 3.01953 4.52795V6.03704C3.01953 7.67289 5.78343 9.05522 9.05589 9.05522C12.3284 9.05522 15.0923 7.67289 15.0923 6.03704V4.52795ZM9.05589 14.337C5.78343 14.337 3.01953 12.9547 3.01953 11.3189V13.5825C3.01953 15.2183 5.78343 16.6007 9.05589 16.6007C12.3284 16.6007 15.0923 15.2183 15.0923 13.5825V11.3189C15.0923 12.9547 12.3284 14.337 9.05589 14.337Z" fill="#000000"/>
<path d="M15.0923 7.5459C15.0923 9.18175 12.3284 10.5641 9.05589 10.5641C5.78343 10.5641 3.01953 9.18175 3.01953 7.5459V9.80954C3.01953 11.4454 5.78343 12.8277 9.05589 12.8277C12.3284 12.8277 15.0923 11.4454 15.0923 9.80954V7.5459Z" fill="#000000"/>
</svg>
