<svg width="16" height="14" viewBox="0 0 16 14" fill="none" xmlns="http://www.w3.org/2000/svg">
<path fill-rule="evenodd" clip-rule="evenodd" d="M5.98022 0.263672C2.95902 0.263672 0.509766 2.71293 0.509766 5.73413C0.509766 12.525 9.56431 13.8455 9.56431 13.8455V11.2046H10.1302C13.1514 11.2046 15.6007 8.75533 15.6007 5.73413C15.6007 2.71293 13.1514 0.263672 10.1302 0.263672H5.98022ZM8.05522 6.86594C8.30537 6.86594 8.54527 6.76657 8.72215 6.58969C8.89903 6.41281 8.9984 6.17291 8.9984 5.92276C8.9984 5.67262 8.89903 5.43271 8.72215 5.25583C8.54527 5.07895 8.30537 4.97958 8.05522 4.97958C7.80507 4.97958 7.56517 5.07895 7.38829 5.25583C7.21141 5.43271 7.11204 5.67262 7.11204 5.92276C7.11204 6.17291 7.21141 6.41281 7.38829 6.58969C7.56517 6.76657 7.80507 6.86594 8.05522 6.86594ZM12.0166 5.92276C12.0166 6.17291 11.9172 6.41281 11.7403 6.58969C11.5635 6.76657 11.3235 6.86594 11.0734 6.86594C10.8233 6.86594 10.5834 6.76657 10.4065 6.58969C10.2296 6.41281 10.1302 6.17291 10.1302 5.92276C10.1302 5.67262 10.2296 5.43271 10.4065 5.25583C10.5834 5.07895 10.8233 4.97958 11.0734 4.97958C11.3235 4.97958 11.5635 5.07895 11.7403 5.25583C11.9172 5.43271 12.0166 5.67262 12.0166 5.92276ZM5.03704 6.86594C5.28719 6.86594 5.52709 6.76657 5.70397 6.58969C5.88085 6.41281 5.98022 6.17291 5.98022 5.92276C5.98022 5.67262 5.88085 5.43271 5.70397 5.25583C5.52709 5.07895 5.28719 4.97958 5.03704 4.97958C4.78689 4.97958 4.54699 5.07895 4.37011 5.25583C4.19323 5.43271 4.09386 5.67262 4.09386 5.92276C4.09386 6.17291 4.19323 6.41281 4.37011 6.58969C4.54699 6.76657 4.78689 6.86594 5.03704 6.86594Z" fill="#000000"/>
</svg>
