<svg xmlns="http://www.w3.org/2000/svg" width="19" height="19" viewBox="0 0 19 19" fill="none">
<path d="M8.29958 3.53081V6.45845C8.29897 6.82307 8.19055 7.17937 7.98795 7.48253C7.78535 7.78569 7.49763 8.02217 7.16097 8.16221C6.93828 8.25427 6.69945 8.30096 6.45849 8.29954H3.53085C3.04387 8.29754 2.57752 8.10269 2.23388 7.75763C1.89024 7.41258 1.6973 6.94543 1.69731 6.45845V3.53836C1.6973 3.05137 1.89024 2.58422 2.23388 2.23917C2.57752 1.89411 3.04387 1.69926 3.53085 1.69727H6.45849C6.94547 1.69726 7.41262 1.8902 7.75767 2.23384C8.10273 2.57748 8.29758 3.04383 8.29958 3.53081ZM16.4109 3.53836V6.45845C16.4125 6.69954 16.366 6.93853 16.274 7.16139C16.182 7.38425 16.0464 7.5865 15.8752 7.75627C15.7066 7.92952 15.5047 8.06694 15.2817 8.16029C15.0587 8.25364 14.8192 8.301 14.5774 8.29954H11.6498C11.286 8.29907 10.9304 8.19129 10.6276 7.98969C10.3249 7.78809 10.0883 7.50164 9.9475 7.16621C9.85424 6.94199 9.80702 6.70129 9.80867 6.45845V3.53836C9.80806 3.29673 9.85581 3.05742 9.94912 2.83453C10.0424 2.61164 10.1794 2.40968 10.3519 2.24054C10.5216 2.06866 10.7237 1.93214 10.9464 1.83889C11.1692 1.74563 11.4083 1.6975 11.6498 1.69727H14.5774C15.0644 1.69926 15.5307 1.89411 15.8744 2.23917C16.218 2.58422 16.4109 3.05137 16.4109 3.53836ZM8.29958 11.6573V14.5774C8.29758 15.0643 8.10273 15.5307 7.75767 15.8743C7.41262 16.218 6.94547 16.4109 6.45849 16.4109H3.53085C3.04463 16.41 2.57835 16.2175 2.23303 15.8752C2.06184 15.7054 1.92627 15.5032 1.83427 15.2803C1.74228 15.0574 1.69571 14.8185 1.69731 14.5774V11.6573C1.69571 11.4162 1.74228 11.1772 1.83427 10.9543C1.92627 10.7315 2.06184 10.5292 2.23303 10.3594C2.57682 10.013 3.04281 9.81521 3.53085 9.80863H6.45849C6.94685 9.8126 7.41398 10.0089 7.75861 10.3549C8.10324 10.701 8.29761 11.1689 8.29958 11.6573ZM16.4109 13.1135C16.4094 13.765 16.215 14.4015 15.8521 14.9426C15.4892 15.4837 14.9741 15.9052 14.3719 16.1538C13.7697 16.4024 13.1074 16.4671 12.4685 16.3396C11.8295 16.2122 11.2427 15.8983 10.782 15.4376C10.3213 14.9769 10.0074 14.39 9.87995 13.7511C9.75248 13.1122 9.81714 12.4498 10.0658 11.8476C10.3144 11.2454 10.7359 10.7304 11.277 10.3675C11.8181 10.0046 12.4545 9.81012 13.106 9.80863C13.7598 9.81045 14.3985 10.0053 14.942 10.3686C15.4855 10.732 15.9096 11.2477 16.1612 11.8512C16.3272 12.2511 16.4117 12.6804 16.4109 13.1135Z" fill="#000000"/>
</svg>