<svg width="18" height="24" viewBox="0 0 18 24" fill="none" xmlns="http://www.w3.org/2000/svg">
<path d="M12.5988 20C12.5983 20.6863 12.4018 21.3581 12.0322 21.9364C11.6626 22.5146 11.1355 22.9752 10.5128 23.2638C9.89022 23.5524 9.19808 23.6571 8.51796 23.5654C7.83785 23.4737 7.1981 23.1896 6.67411 22.7464C6.15011 22.3033 5.76369 21.7196 5.56039 21.0641C5.35709 20.4087 5.34537 19.7088 5.52662 19.0469C5.70786 18.385 6.07452 17.7887 6.58339 17.3282C7.09225 16.8678 7.72213 16.5624 8.39879 16.448L8.39879 14.6L4.79879 14.6C4.3214 14.6 3.86357 14.4104 3.526 14.0728C3.18844 13.7352 2.99879 13.2774 2.99879 12.8L2.99879 7.55081C2.10843 7.40036 1.30708 6.92092 0.75355 6.20749C0.20002 5.49406 -0.0652902 4.59871 0.0101969 3.69889C0.0856839 2.79907 0.496462 1.96044 1.16112 1.34921C1.82578 0.737977 2.69581 0.398744 3.59879 0.398744C4.50178 0.398744 5.37181 0.737977 6.03646 1.34921C6.70112 1.96044 7.1119 2.79907 7.18739 3.69889C7.26287 4.59871 6.99756 5.49406 6.44403 6.20749C5.8905 6.92092 5.08915 7.40036 4.19879 7.55081L4.19879 12.8C4.19879 12.9591 4.26201 13.1117 4.37453 13.2243C4.48705 13.3368 4.63966 13.4 4.79879 13.4L13.1988 13.4C13.3579 13.4 13.5105 13.3368 13.6231 13.2243C13.7356 13.1117 13.7988 12.9591 13.7988 12.8L13.7988 11.5508C12.9084 11.4004 12.1071 10.9209 11.5536 10.2075C11 9.49405 10.7347 8.59871 10.8102 7.69889C10.8857 6.79907 11.2965 5.96044 11.9611 5.34921C12.6258 4.73797 13.4958 4.39874 14.3988 4.39874C15.3018 4.39874 16.1718 4.73797 16.8365 5.34921C17.5011 5.96044 17.9119 6.79906 17.9874 7.69889C18.0629 8.59871 17.7976 9.49405 17.244 10.2075C16.6905 10.9209 15.8892 11.4004 14.9988 11.5508L14.9988 12.8C14.9988 13.2774 14.8092 13.7352 14.4716 14.0728C14.134 14.4104 13.6762 14.6 13.1988 14.6L9.59879 14.6L9.59879 16.448C10.438 16.5899 11.1999 17.0245 11.7491 17.6748C12.2983 18.325 12.5993 19.1488 12.5988 20Z" fill="#000000"/>
</svg>
