<svg width="14" height="15" viewBox="0 0 14 15" fill="none" xmlns="http://www.w3.org/2000/svg">
<path d="M1.45519 0.94339C0.651806 0.94339 0 1.57709 0 2.35816V12.7332C0 13.5142 0.651806 14.1479 1.45519 14.1479H12.1266C12.93 14.1479 13.5818 13.5142 13.5818 12.7332V2.35816C13.5818 1.57709 12.93 0.94339 12.1266 0.94339H1.45519ZM4.4529 4.87039C5.04819 4.87039 5.5771 5.07049 5.96657 5.3706C6.32673 5.64919 6.49541 5.92787 6.64257 6.17799L5.61414 6.67755C5.54056 6.51353 5.45204 6.34193 5.2247 6.15639C4.97464 5.96327 4.72514 5.90632 4.51153 5.90632C3.674 5.90632 3.23308 6.66361 3.23308 7.5064C3.23308 8.61385 3.81397 9.16346 4.51153 9.16346C5.18759 9.16346 5.45977 8.70631 5.63567 8.41377L6.65752 8.92094C6.46607 9.2135 6.28238 9.49967 5.8708 9.77773C5.65064 9.92776 5.1439 10.2209 4.42361 10.2209C3.04942 10.2209 1.94026 9.24958 1.94026 7.54183C1.94026 6.04936 2.9836 4.87039 4.4529 4.87039ZM6.74128 5.0274H8.12266L9.19532 8.61382L10.2602 5.02743H11.6416L9.84139 10.0709H8.51926L6.74128 5.0274Z" fill="#000000"/>
</svg>
