<svg width="15" height="15" viewBox="0 0 15 15" fill="none" xmlns="http://www.w3.org/2000/svg">
<path fill-rule="evenodd" clip-rule="evenodd" d="M6.30303 0.0626734H8.6724C9.0294 0.0573609 9.37897 0.174236 9.66053 0.394173C9.94421 0.617298 10.1408 0.930736 10.213 1.28349L10.4202 2.27692C10.5102 2.32509 10.5987 2.37467 10.6858 2.42567L11.6899 2.0963C11.8965 2.02963 12.1146 2.00645 12.3305 2.02821C12.5465 2.04997 12.7556 2.1162 12.9447 2.22274C13.1785 2.35449 13.375 2.54361 13.5121 2.77524L14.7074 4.74724C14.9006 5.05281 14.9768 5.41794 14.922 5.77529C14.8671 6.13264 14.6848 6.45809 14.4088 6.69161H14.4067L13.6183 7.36417V7.6383L14.3972 8.33211C14.6678 8.56182 14.8481 8.88018 14.9059 9.23045C14.9637 9.58072 14.8952 9.94013 14.7127 10.2446L13.5546 12.2209V12.223C13.4168 12.4536 13.2214 12.6444 12.9877 12.7769C12.7539 12.9093 12.4898 12.9787 12.2212 12.9784C12.055 12.9793 11.8897 12.9542 11.7313 12.904L11.726 12.9019L10.7305 12.5736C10.6419 12.626 10.552 12.676 10.4606 12.7234L10.2545 13.7158C10.1817 14.0687 9.98589 14.3843 9.70196 14.6062C9.41969 14.827 9.07006 14.9441 8.71172 14.9377H6.32322C5.9656 14.9436 5.61679 14.8266 5.33509 14.6062C5.05138 14.3846 4.85558 14.0694 4.78259 13.7169L4.5754 12.7224C4.48569 12.6749 4.39712 12.6253 4.30978 12.5736L3.30572 12.903C3.09916 12.9697 2.88103 12.9928 2.66508 12.9711C2.44912 12.9493 2.24001 12.8831 2.0509 12.7765C1.81683 12.646 1.62118 12.4562 1.48353 12.2262L0.287153 10.2499C0.101647 9.95054 0.0275506 9.59537 0.0778758 9.24678C0.128201 8.8982 0.29973 8.57849 0.56234 8.3438L1.35603 7.34292L0.598465 6.66824C0.327437 6.43828 0.146998 6.11945 0.089385 5.76872C0.0317722 5.41798 0.10074 5.05818 0.283965 4.75361L0.286091 4.75149L1.48353 2.77524C1.61934 2.54679 1.81195 2.35736 2.04262 2.22536C2.2733 2.09336 2.5342 2.02328 2.79997 2.02192C2.96005 2.01342 3.11801 2.02865 3.27384 2.06761L3.29722 2.07399L4.29065 2.42355C4.37778 2.37255 4.46632 2.32367 4.55628 2.27692L4.7624 1.28455C4.83516 0.931631 5.03098 0.616059 5.3149 0.394173C5.5954 0.174236 5.94603 0.0573609 6.30303 0.0626734ZM7.50047 5.37517C6.93688 5.37517 6.39638 5.59906 5.99786 5.99757C5.59935 6.39609 5.37547 6.93659 5.37547 7.50017C5.37547 8.06376 5.59935 8.60426 5.99786 9.00278C6.39638 9.40129 6.93688 9.62517 7.50047 9.62517C8.06405 9.62517 8.60455 9.40129 9.00307 9.00278C9.40158 8.60426 9.62547 8.06376 9.62547 7.50017C9.62547 6.93659 9.40158 6.39609 9.00307 5.99757C8.60455 5.59906 8.06405 5.37517 7.50047 5.37517ZM4.31297 7.50017C4.31297 6.6548 4.64879 5.84404 5.24656 5.24627C5.84434 4.6485 6.65509 4.31267 7.50047 4.31267C8.34584 4.31267 9.1566 4.6485 9.75437 5.24627C10.3521 5.84404 10.688 6.6548 10.688 7.50017C10.688 8.34555 10.3521 9.1563 9.75437 9.75408C9.1566 10.3518 8.34584 10.6877 7.50047 10.6877C6.65509 10.6877 5.84434 10.3518 5.24656 9.75408C4.64879 9.1563 4.31297 8.34555 4.31297 7.50017Z" fill="#000000"/>
</svg>
