<svg width="399" height="246" viewBox="0 0 399 246" fill="none" xmlns="http://www.w3.org/2000/svg">
<g clip-path="url(#clip0_108_284)">
<path d="M346.725 240.657H250.171L243.515 162.661H340.029L346.725 240.657Z" fill="#D7E4F2"/>
<path d="M299.889 149.24C336.65 149.24 366.45 118.827 366.45 81.3095C366.45 43.7925 336.65 13.3789 299.889 13.3789C263.129 13.3789 233.328 43.7925 233.328 81.3095C233.328 118.827 263.129 149.24 299.889 149.24Z" fill="#D7E4F2"/>
<path d="M340.353 236.266H255.732C255.732 236.266 255.366 236.1 255.366 235.893L249.522 167.507C249.522 167.507 249.522 167.3 249.603 167.217C249.684 167.134 249.765 167.093 249.887 167.093H334.509C334.509 167.093 334.874 167.258 334.874 167.466L340.718 235.852C340.718 235.852 340.719 236.059 340.637 236.142C340.556 236.225 340.475 236.266 340.353 236.266ZM256.056 235.479H339.947L334.144 167.838H250.253L256.056 235.479Z" fill="#89B9E6"/>
<path d="M234.749 135.199H234.668C234.465 135.199 234.302 135.033 234.302 134.826C234.302 134.619 234.465 134.453 234.668 134.453H234.749C236.21 134.453 237.712 134.37 239.173 134.246C239.376 134.246 239.579 134.37 239.579 134.619C239.579 134.826 239.457 135.033 239.254 135.033C237.752 135.157 236.25 135.24 234.749 135.24V135.199ZM230.081 134.991C228.539 134.867 227.037 134.66 225.495 134.37C225.292 134.37 225.171 134.122 225.171 133.915C225.171 133.707 225.414 133.583 225.617 133.583C227.078 133.832 228.62 134.039 230.122 134.204C230.325 134.204 230.487 134.412 230.447 134.619C230.447 134.826 230.244 134.991 230.081 134.991ZM243.759 134.412C243.759 134.412 243.434 134.287 243.394 134.08C243.394 133.873 243.515 133.666 243.718 133.625C245.22 133.376 246.681 133.045 248.142 132.63C248.345 132.589 248.548 132.713 248.589 132.92C248.629 133.127 248.507 133.335 248.304 133.376C246.843 133.79 245.301 134.122 243.799 134.37C243.799 134.37 243.759 134.37 243.718 134.37L243.759 134.412ZM221.071 133.376H220.99C219.529 132.962 218.027 132.506 216.607 131.968C216.404 131.885 216.323 131.678 216.363 131.471C216.445 131.264 216.647 131.181 216.85 131.222C218.271 131.761 219.732 132.216 221.193 132.63C221.396 132.672 221.518 132.879 221.477 133.086C221.437 133.252 221.274 133.376 221.112 133.376H221.071ZM252.607 132.051C252.607 132.051 252.322 131.968 252.241 131.802C252.16 131.595 252.241 131.388 252.485 131.305C253.905 130.766 255.326 130.187 256.665 129.524C256.868 129.441 257.071 129.524 257.152 129.731C257.233 129.938 257.152 130.145 256.949 130.228C255.569 130.891 254.108 131.471 252.688 132.009C252.647 132.009 252.607 132.009 252.566 132.009L252.607 132.051ZM212.508 130.187C212.508 130.187 212.386 130.187 212.345 130.187C210.965 129.524 209.586 128.778 208.246 127.991C208.084 127.867 208.003 127.66 208.124 127.453C208.246 127.287 208.449 127.204 208.652 127.329C209.951 128.116 211.29 128.82 212.67 129.482C212.873 129.565 212.954 129.814 212.832 129.979C212.751 130.104 212.629 130.187 212.508 130.187ZM260.886 128.116C260.886 128.116 260.643 128.033 260.561 127.908C260.44 127.743 260.521 127.494 260.683 127.37C261.982 126.583 263.281 125.755 264.498 124.885C264.661 124.76 264.904 124.802 265.026 124.968C265.148 125.133 265.107 125.382 264.945 125.506C263.687 126.417 262.388 127.246 261.048 128.033C261.008 128.033 260.927 128.074 260.846 128.074L260.886 128.116ZM204.593 125.506C204.593 125.506 204.431 125.506 204.391 125.423C203.132 124.512 201.915 123.559 200.738 122.565C200.575 122.441 200.575 122.192 200.697 122.027C200.819 121.861 201.062 121.861 201.225 121.985C202.361 122.979 203.579 123.932 204.837 124.802C204.999 124.926 205.04 125.175 204.918 125.34C204.837 125.465 204.715 125.506 204.593 125.506ZM268.394 122.772C268.394 122.772 268.192 122.731 268.11 122.648C267.989 122.482 267.989 122.234 268.151 122.109C269.287 121.115 270.424 120.08 271.52 119.003C271.682 118.837 271.925 118.837 272.047 119.003C272.21 119.169 272.21 119.417 272.047 119.541C270.951 120.66 269.815 121.695 268.638 122.731C268.557 122.772 268.476 122.814 268.394 122.814V122.772ZM197.613 119.5C197.613 119.5 197.41 119.5 197.329 119.376C196.233 118.257 195.218 117.098 194.203 115.896C194.082 115.731 194.082 115.482 194.244 115.358C194.406 115.234 194.65 115.234 194.772 115.399C195.746 116.6 196.76 117.719 197.856 118.837C198.019 119.003 198.019 119.251 197.856 119.376C197.775 119.459 197.694 119.5 197.572 119.5H197.613ZM274.848 116.186C274.848 116.186 274.685 116.186 274.604 116.103C274.442 115.979 274.442 115.731 274.564 115.565C275.538 114.405 276.471 113.163 277.323 111.878C277.445 111.713 277.689 111.671 277.851 111.796C278.013 111.92 278.054 112.168 277.932 112.334C277.039 113.618 276.106 114.861 275.132 116.062C275.051 116.145 274.969 116.186 274.848 116.186ZM191.728 112.334C191.728 112.334 191.484 112.293 191.403 112.168C190.51 110.884 189.698 109.559 188.927 108.192C188.806 108.026 188.887 107.778 189.049 107.654C189.211 107.529 189.455 107.612 189.577 107.778C190.348 109.103 191.16 110.429 192.012 111.671C192.134 111.837 192.093 112.086 191.931 112.21C191.849 112.251 191.809 112.293 191.728 112.293V112.334ZM280.124 108.565C280.124 108.565 280.002 108.565 279.921 108.523C279.759 108.399 279.677 108.192 279.799 107.985C280.57 106.659 281.26 105.251 281.91 103.884C281.991 103.677 282.234 103.594 282.397 103.719C282.6 103.801 282.681 104.05 282.559 104.216C281.91 105.624 281.179 107.032 280.408 108.399C280.327 108.523 280.205 108.606 280.083 108.606L280.124 108.565ZM187.182 104.257C187.182 104.257 186.898 104.174 186.857 104.05C186.208 102.642 185.599 101.192 185.112 99.7007C185.031 99.4935 185.112 99.2864 185.356 99.2036C185.559 99.1208 185.762 99.2036 185.843 99.4521C186.37 100.902 186.939 102.352 187.588 103.719C187.669 103.926 187.588 104.133 187.385 104.216C187.344 104.216 187.263 104.216 187.223 104.216L187.182 104.257ZM283.979 100.115C283.979 100.115 283.898 100.115 283.858 100.115C283.655 100.032 283.574 99.8249 283.614 99.6178C284.142 98.1681 284.588 96.6769 284.994 95.1858C285.035 94.9786 285.238 94.8544 285.441 94.8958C285.644 94.9372 285.765 95.1443 285.725 95.3514C285.319 96.8426 284.872 98.3752 284.345 99.8249C284.304 99.9906 284.142 100.073 283.979 100.073V100.115ZM184.057 95.4757C184.057 95.4757 183.732 95.3514 183.692 95.1858C183.286 93.6946 182.961 92.1206 182.718 90.588C182.718 90.3809 182.839 90.1738 183.042 90.1324C183.245 90.1324 183.448 90.2566 183.489 90.4637C183.732 91.9963 184.057 93.4875 184.463 94.9787C184.503 95.1858 184.382 95.3929 184.179 95.4343H184.098L184.057 95.4757ZM286.374 91.1265C286.374 91.1265 286.333 91.1265 286.293 91.1265C286.09 91.1265 285.968 90.878 285.968 90.6708C286.212 89.1383 286.415 87.6057 286.577 86.0731C286.577 85.866 286.78 85.7003 286.983 85.7417C287.186 85.7417 287.348 85.9488 287.308 86.1559C287.186 87.7299 286.983 89.2625 286.699 90.7951C286.699 91.0022 286.496 91.1265 286.333 91.1265H286.374ZM182.515 86.2802C182.515 86.2802 182.149 86.1145 182.149 85.9074C182.028 84.3748 181.947 82.8008 181.947 81.2683V81.1854C181.947 80.9783 182.109 80.8126 182.312 80.8126C182.515 80.8126 182.677 80.9783 182.677 81.1854C182.677 82.7594 182.758 84.292 182.88 85.8246C182.88 86.0317 182.758 86.2388 182.555 86.2388L182.515 86.2802ZM287.186 81.8067C286.983 81.8067 286.82 81.641 286.82 81.4339V81.3097C286.82 79.7771 286.739 78.2031 286.618 76.6705C286.618 76.4634 286.739 76.2563 286.942 76.2563C287.145 76.2563 287.348 76.3806 287.348 76.5877C287.47 78.1203 287.551 79.7357 287.551 81.2683V81.3925C287.551 81.5996 287.389 81.7653 287.186 81.7653V81.8067ZM182.515 76.9605C182.312 76.9605 182.149 76.7534 182.19 76.5462C182.312 74.9722 182.515 73.4397 182.799 71.8657C182.799 71.6586 183.042 71.5343 183.245 71.5343C183.448 71.5343 183.57 71.7828 183.57 71.9899C183.326 73.5225 183.124 75.0551 182.961 76.5877C182.961 76.7948 182.799 76.9605 182.596 76.9605H182.515ZM286.415 72.4041C286.415 72.4041 286.09 72.2799 286.049 72.0728C285.806 70.5402 285.441 69.049 285.075 67.5579C285.035 67.3508 285.156 67.1437 285.359 67.1022C285.562 67.0608 285.765 67.1851 285.806 67.3922C286.212 68.8834 286.536 70.4573 286.78 71.9899C286.78 72.197 286.658 72.4041 286.455 72.4456C286.455 72.4456 286.415 72.4456 286.374 72.4456L286.415 72.4041ZM184.098 67.765H184.016C183.813 67.7236 183.692 67.5164 183.732 67.3093C184.138 65.8182 184.585 64.2856 185.112 62.8359C185.193 62.6288 185.396 62.5459 185.599 62.5873C185.802 62.6702 185.883 62.8773 185.843 63.0844C185.315 64.5341 184.869 66.0253 184.463 67.5164C184.422 67.6821 184.26 67.8064 184.098 67.8064V67.765ZM284.061 63.3743C284.061 63.3743 283.777 63.2915 283.695 63.1258C283.168 61.6761 282.6 60.2263 281.95 58.8594C281.869 58.6523 281.95 58.4452 282.153 58.3624C282.356 58.2795 282.559 58.3624 282.64 58.5695C283.29 59.9778 283.898 61.469 284.385 62.9187C284.467 63.1258 284.385 63.3329 284.142 63.4158C284.101 63.4158 284.061 63.4158 284.02 63.4158L284.061 63.3743ZM187.223 59.0251C187.223 59.0251 187.101 59.0251 187.06 59.0251C186.857 58.9423 186.776 58.6938 186.898 58.5281C187.547 57.1198 188.278 55.7114 189.049 54.3445C189.171 54.1789 189.374 54.096 189.577 54.2203C189.739 54.3445 189.82 54.5516 189.698 54.7588C188.927 56.0842 188.237 57.4511 187.588 58.8594C187.507 58.9837 187.385 59.0665 187.263 59.0665L187.223 59.0251ZM280.164 54.9244C280.164 54.9244 279.921 54.8416 279.84 54.7173C279.069 53.3919 278.257 52.0664 277.405 50.8237C277.283 50.6581 277.323 50.4095 277.486 50.2853C277.648 50.161 277.892 50.2024 278.013 50.3681C278.906 51.6522 279.718 52.9776 280.489 54.3445C280.611 54.5102 280.53 54.7587 280.367 54.883C280.327 54.883 280.246 54.9244 280.164 54.9244ZM191.809 50.948C191.809 50.948 191.647 50.948 191.606 50.8652C191.444 50.7409 191.403 50.4924 191.525 50.3267C192.418 49.0426 193.351 47.8 194.325 46.5988C194.447 46.4331 194.69 46.4331 194.853 46.5574C195.015 46.6816 195.015 46.9302 194.893 47.0958C193.919 48.2556 192.986 49.4983 192.134 50.7823C192.052 50.9066 191.931 50.948 191.809 50.948ZM274.929 47.3029C274.929 47.3029 274.726 47.2615 274.645 47.1787C273.671 46.0189 272.656 44.8591 271.56 43.7822C271.398 43.6165 271.398 43.3679 271.56 43.2437C271.723 43.078 271.966 43.078 272.088 43.2437C273.184 44.362 274.198 45.5218 275.213 46.7231C275.335 46.8887 275.335 47.1373 275.172 47.2615C275.091 47.3029 275.01 47.3444 274.929 47.3444V47.3029ZM197.694 43.8236C197.694 43.8236 197.491 43.8236 197.41 43.6993C197.247 43.5336 197.247 43.2851 197.41 43.1608C198.506 42.0425 199.642 41.0069 200.819 39.9714C200.981 39.8471 201.225 39.8471 201.347 40.0128C201.468 40.1785 201.468 40.427 201.306 40.5513C200.129 41.5454 199.033 42.5809 197.937 43.6993C197.856 43.7822 197.775 43.8236 197.653 43.8236H197.694ZM268.476 40.717C268.476 40.717 268.313 40.717 268.232 40.6342C267.096 39.64 265.878 38.6874 264.62 37.8175C264.458 37.6933 264.417 37.4447 264.539 37.279C264.661 37.1134 264.904 37.0719 265.066 37.1962C266.325 38.1075 267.542 39.0601 268.719 40.0543C268.882 40.1785 268.882 40.427 268.76 40.5927C268.679 40.6756 268.597 40.717 268.476 40.717ZM204.715 37.8175C204.715 37.8175 204.472 37.7761 204.391 37.6518C204.269 37.4861 204.309 37.2376 204.472 37.1134C205.73 36.2021 207.029 35.3737 208.368 34.5867C208.53 34.4624 208.774 34.5452 208.896 34.7109C209.017 34.8766 208.936 35.1251 208.774 35.2494C207.475 36.0364 206.176 36.8648 204.959 37.7347C204.878 37.7761 204.837 37.8175 204.756 37.8175H204.715ZM260.967 35.3322C260.967 35.3322 260.846 35.3322 260.764 35.2908C259.466 34.5038 258.086 33.7997 256.746 33.1369C256.543 33.0541 256.462 32.8056 256.543 32.6399C256.625 32.4328 256.868 32.3499 257.03 32.4742C258.41 33.1369 259.79 33.8825 261.13 34.6695C261.292 34.7938 261.373 35.0009 261.251 35.208C261.17 35.3322 261.048 35.4151 260.927 35.4151L260.967 35.3322ZM212.629 33.1369C212.629 33.1369 212.345 33.0541 212.305 32.9298C212.224 32.7227 212.305 32.5156 212.508 32.4328C213.888 31.77 215.308 31.1487 216.769 30.6517C216.972 30.5688 217.175 30.6517 217.256 30.9002C217.337 31.1073 217.256 31.3144 217.013 31.3972C215.592 31.9357 214.172 32.5156 212.832 33.1784C212.792 33.1784 212.711 33.1784 212.67 33.1784L212.629 33.1369ZM252.728 31.3972C252.728 31.3972 252.647 31.3972 252.607 31.3972C251.186 30.8588 249.725 30.4031 248.264 29.9889C248.061 29.9475 247.939 29.7404 247.98 29.5333C248.02 29.3262 248.223 29.2019 248.426 29.2433C249.887 29.6576 251.389 30.1132 252.81 30.6517C253.012 30.7345 253.094 30.9416 253.053 31.1487C253.012 31.3144 252.85 31.3972 252.688 31.3972H252.728ZM221.193 29.9889C221.193 29.9889 220.868 29.8647 220.828 29.699C220.787 29.4919 220.909 29.2848 221.112 29.2433C222.573 28.8291 224.115 28.4978 225.617 28.2492C225.82 28.2492 226.023 28.3735 226.063 28.5806C226.104 28.7877 225.942 28.9948 225.739 29.0362C224.237 29.2848 222.776 29.6161 221.315 30.0303H221.234L221.193 29.9889ZM243.881 28.9948C243.881 28.9948 243.84 28.9948 243.799 28.9948C242.298 28.7463 240.796 28.5392 239.294 28.3735C239.091 28.3735 238.929 28.1664 238.97 27.9593C239.01 27.7522 239.173 27.5865 239.376 27.6279C240.918 27.7522 242.42 27.9593 243.962 28.2492C244.165 28.2492 244.286 28.4978 244.286 28.7049C244.286 28.912 244.084 29.0362 243.921 29.0362L243.881 28.9948ZM230.203 28.3735C230.203 28.3735 229.838 28.2078 229.838 28.0007C229.838 27.7936 229.96 27.5865 230.163 27.5865C231.664 27.4622 233.207 27.3794 234.749 27.3794C234.952 27.3794 235.155 27.5451 235.155 27.7522C235.155 27.9593 234.992 28.125 234.789 28.125C233.288 28.125 231.786 28.2078 230.284 28.3321L230.203 28.3735Z" fill="#89B9E6"/>
<path d="M303.096 29.9475C302.893 29.9475 302.73 29.7818 302.73 29.5747V23.8586C302.73 23.6515 302.893 23.4858 303.096 23.4858C303.298 23.4858 303.461 23.6515 303.461 23.8586V29.5747C303.461 29.7818 303.298 29.9475 303.096 29.9475Z" fill="black"/>
<path d="M303.096 40.51C302.893 40.51 302.73 40.3443 302.73 40.1372V34.4211C302.73 34.214 302.893 34.0483 303.096 34.0483C303.298 34.0483 303.461 34.214 303.461 34.4211V40.1372C303.461 40.3443 303.298 40.51 303.096 40.51Z" fill="black"/>
<path d="M311.091 32.3913H305.49C305.287 32.3913 305.125 32.2256 305.125 32.0185C305.125 31.8114 305.287 31.6458 305.49 31.6458H311.091C311.294 31.6458 311.456 31.8114 311.456 32.0185C311.456 32.2256 311.294 32.3913 311.091 32.3913Z" fill="black"/>
<path d="M300.742 32.3913H295.141C294.938 32.3913 294.775 32.2256 294.775 32.0185C294.775 31.8114 294.938 31.6458 295.141 31.6458H300.742C300.944 31.6458 301.107 31.8114 301.107 32.0185C301.107 32.2256 300.944 32.3913 300.742 32.3913Z" fill="black"/>
<path d="M356.466 77.0432C356.466 74.6408 354.558 72.6526 352.164 72.6526C349.769 72.6526 347.862 74.5994 347.862 77.0432C347.862 79.4871 349.769 81.4339 352.164 81.4339C354.558 81.4339 356.466 79.4871 356.466 77.0432Z" fill="#89B9E6"/>
<path d="M348.917 57.7412C348.917 55.3388 347.009 53.3506 344.615 53.3506C342.22 53.3506 340.313 55.2974 340.313 57.7412C340.313 60.1851 342.22 62.1319 344.615 62.1319C347.009 62.1319 348.917 60.1851 348.917 57.7412Z" fill="white"/>
<path d="M350.216 126.127C350.216 126.127 350.053 126.127 350.013 126.044C349.85 125.92 349.81 125.672 349.891 125.506L358.86 111.878C358.86 111.878 359.226 111.671 359.388 111.754C359.55 111.878 359.591 112.127 359.51 112.293L350.54 125.92C350.54 125.92 350.337 126.086 350.216 126.086V126.127Z" fill="black"/>
<path d="M276.228 233.159H74.2722C68.4278 233.159 62.8676 228.313 61.8123 222.349L28.0855 27.048C27.0708 21.0833 30.9671 16.2371 36.8114 16.2371H238.767C244.611 16.2371 250.172 21.0833 251.227 27.048L284.954 222.349C285.968 228.313 282.072 233.159 276.228 233.159Z" fill="#4666C7"/>
<path d="M279.474 233.159H77.519C71.6747 233.159 66.1144 228.313 65.0592 222.349L31.3323 27.048C30.3176 21.0833 34.2139 16.2371 40.0583 16.2371H242.014C247.858 16.2371 253.418 21.0833 254.474 27.048L288.2 222.349C289.215 228.313 285.319 233.159 279.474 233.159Z" fill="#88B8E5"/>
<path d="M279.475 233.615H77.5191C71.4718 233.615 65.668 228.603 64.6128 222.431L30.8453 27.1309C30.3177 24.0657 31.0077 21.2077 32.7935 19.0538C34.5387 16.9413 37.0956 15.7815 40.0583 15.7815H242.014C248.061 15.7815 253.865 20.7935 254.92 26.9652L288.647 222.266C289.175 225.331 288.485 228.189 286.699 230.343C284.954 232.455 282.397 233.615 279.434 233.615H279.475ZM40.0583 16.7342C37.4203 16.7342 35.1069 17.7697 33.524 19.6751C31.9412 21.6219 31.3324 24.19 31.8194 26.9652L65.5463 222.266C66.5204 227.982 71.9183 232.662 77.5191 232.662H279.475C282.113 232.662 284.426 231.627 286.009 229.722C287.592 227.775 288.201 225.207 287.714 222.431L253.987 27.1309C253.013 21.4148 247.615 16.7342 242.014 16.7342H40.0583Z" fill="black"/>
<path d="M322.78 241.32H75.6117C71.1878 241.32 67.5757 237.674 67.5757 233.118H330.816C330.816 237.633 327.244 241.32 322.78 241.32Z" fill="#D6E3F1"/>
<path d="M322.78 241.817H75.6116C70.9442 241.817 67.1292 237.923 67.1292 233.16C67.1292 232.911 67.3321 232.662 67.6162 232.662H330.856C331.1 232.662 331.343 232.87 331.343 233.16C331.343 237.923 327.528 241.817 322.861 241.817H322.78ZM68.0626 233.615C68.3061 237.633 71.5936 240.822 75.571 240.822H322.739C326.757 240.822 330.004 237.633 330.248 233.615H68.0626Z" fill="black"/>
<path d="M275.497 233.16H210.884V237.26H275.497V233.16Z" fill="white"/>
<path d="M275.456 237.716H210.844C210.6 237.716 210.357 237.509 210.357 237.219V233.118C210.357 232.87 210.56 232.621 210.844 232.621H275.456C275.7 232.621 275.943 232.828 275.943 233.118V237.219C275.943 237.467 275.741 237.716 275.456 237.716ZM211.371 236.763H275.01V233.657H211.371V236.763Z" fill="black"/>
<path d="M281.301 222.97H72.8519L38.4351 23.7759H246.884L281.301 222.97Z" fill="white"/>
<path d="M281.301 223.467H72.8518C72.6083 223.467 72.4054 223.301 72.3648 223.053L37.9885 23.8587C37.9885 23.8587 37.9885 23.5688 38.1103 23.4445C38.1915 23.3202 38.3538 23.2788 38.4756 23.2788H246.884C247.128 23.2788 247.331 23.4445 247.371 23.693L281.788 222.887C281.788 222.887 281.788 223.177 281.666 223.301C281.585 223.426 281.423 223.467 281.301 223.467ZM73.2577 222.473H280.733L246.478 24.2729H39.0032L73.2577 222.473Z" fill="black"/>
<path d="M168.513 20.5034C168.513 10.8937 161.045 1.8225 151.913 0.248497C142.781 -1.36693 135.435 5.13619 135.476 14.7045C135.476 24.3142 142.944 33.3854 152.075 34.9594C161.207 36.5748 168.553 30.0717 168.513 20.5034Z" fill="#4666C7"/>
<path d="M151.994 35.2907C142.741 33.6752 135.192 24.4383 135.151 14.7044C135.151 8.69829 137.992 3.64492 142.781 1.20107C142.944 1.11823 143.106 1.20107 143.187 1.32533C143.268 1.49102 143.187 1.6567 143.065 1.73955C138.479 4.10055 135.76 8.94682 135.76 14.7044C135.76 24.1484 143.147 33.0953 152.116 34.6693C152.278 34.6693 152.4 34.835 152.36 35.0007C152.36 35.1664 152.197 35.2907 152.035 35.2492L151.994 35.2907Z" fill="black"/>
<path d="M157.189 31.1486C156.58 31.4799 155.931 31.7285 155.241 31.8527C151.507 32.5155 147.733 29.8231 146.759 25.8467C146.109 23.1129 146.962 20.3377 148.991 18.7222L148.666 17.3553C148.666 17.3553 148.666 17.1482 148.666 17.0654L149.803 15.2014L147.936 13.876C147.936 13.876 147.692 13.5032 147.814 13.3375L148.95 11.4735L147.083 10.1481C147.083 10.1481 146.921 9.98239 146.921 9.89954L146.515 8.15986C146.515 8.15986 146.515 7.91133 146.596 7.82849L150.858 2.60943C150.858 2.60943 151.101 2.44374 151.223 2.48516C151.345 2.52658 151.467 2.65085 151.507 2.77511L155.079 17.6453C157.676 18.4323 159.746 20.669 160.396 23.4028C160.842 25.3082 160.598 27.255 159.624 28.8704C159.056 29.8645 158.244 30.6101 157.27 31.1486H157.189ZM155.079 31.0657C156.702 30.7758 158.042 29.8231 158.894 28.4148C159.746 27.0065 159.99 25.2668 159.584 23.5271C158.975 21.0004 157.027 18.9708 154.632 18.308C154.511 18.308 154.389 18.1423 154.348 18.0181L150.939 3.64495L147.246 8.15986L147.57 9.56817L149.64 11.0179C149.64 11.0179 149.884 11.3907 149.762 11.5564L148.626 13.4203L150.493 14.7458C150.493 14.7458 150.736 15.1186 150.614 15.2843L149.397 17.3553L149.762 18.8051C149.762 18.8051 149.762 19.095 149.64 19.1779C147.733 20.6276 146.88 23.1543 147.489 25.681C148.342 29.2432 151.751 31.6456 155.079 31.0243V31.0657ZM154.713 26.7579C154.713 26.7579 154.308 26.9236 154.105 26.965C153.537 27.0893 152.887 26.965 152.4 26.5508C151.872 26.178 151.507 25.6396 151.345 25.0182C151.02 23.7342 151.791 22.4916 152.968 22.2845C154.186 22.0774 155.403 22.9472 155.728 24.2312C155.972 25.2668 155.525 26.3023 154.713 26.7579ZM152.725 23.1543C152.157 23.4442 151.872 24.1484 152.035 24.8526C152.116 25.2668 152.4 25.6396 152.725 25.8881C153.09 26.1366 153.496 26.2195 153.902 26.178C154.713 26.0124 155.241 25.1839 154.998 24.3141C154.795 23.4442 153.942 22.8644 153.131 22.9886C152.968 22.9886 152.847 23.0715 152.725 23.1543Z" fill="black"/>
<path d="M155.16 31.4386C158.691 30.8172 160.842 27.2136 159.949 23.4443C159.3 20.6691 157.189 18.598 154.714 17.8939L151.101 2.77515L146.84 7.99421L147.246 9.73389L149.437 11.3079L148.139 13.5032L150.33 15.0772L149.031 17.2725L149.437 18.888C147.489 20.3791 146.515 23.0301 147.165 25.7639C148.057 29.5332 151.67 32.0599 155.201 31.4386H155.16ZM153.049 22.6573C154.064 22.4916 155.119 23.1958 155.363 24.2727C155.606 25.3497 154.998 26.3852 153.983 26.5923C152.968 26.758 151.913 26.0538 151.67 24.9769C151.426 23.8999 152.035 22.8644 153.049 22.6573Z" fill="white"/>
<path d="M282.397 151.85C278.419 156.572 271.439 157.11 266.852 153.051C262.226 148.992 261.698 141.867 265.675 137.187C269.653 132.465 276.634 131.926 281.22 135.986C285.806 140.045 286.374 147.169 282.397 151.85Z" fill="#4666C8"/>
<path d="M271.674 139.394L247.16 117.919L244.199 121.44L268.714 142.914L271.674 139.394Z" fill="#89B9E6"/>
<path d="M280.286 150.028C276.309 154.75 269.815 155.702 265.757 152.14C261.698 148.578 261.657 141.909 265.635 137.187C269.612 132.465 276.106 131.512 280.165 135.075C284.223 138.637 284.264 145.306 280.286 150.028Z" fill="#D7E4F2"/>
<path d="M266.243 135.033L247.006 118.175C247.006 118.175 246.884 117.885 247.006 117.76C247.128 117.636 247.29 117.636 247.412 117.76L266.649 134.619C266.649 134.619 266.771 134.909 266.649 135.033C266.528 135.157 266.365 135.157 266.243 135.033Z" fill="black"/>
<path d="M251.226 121.549L247.161 117.988L241.61 124.589L245.675 128.15L251.226 121.549Z" fill="#89B9E6"/>
<path d="M253.774 123.695L251.249 121.483L247.019 126.512L249.545 128.724L253.774 123.695Z" fill="#89B9E6"/>
<path d="M265.959 136.856L245.991 119.376C245.991 119.376 245.869 119.086 245.991 118.962C246.113 118.837 246.275 118.837 246.397 118.962L266.365 136.441C266.365 136.441 266.487 136.731 266.365 136.856C266.284 136.98 266.081 136.98 265.959 136.856Z" fill="white"/>
<path d="M266.649 153.3C261.901 149.158 261.373 141.826 265.432 137.021C269.49 132.175 276.634 131.637 281.382 135.779C286.131 139.921 286.658 147.211 282.6 152.057C278.541 156.903 271.357 157.442 266.649 153.3ZM281.017 136.193C276.512 132.258 269.693 132.796 265.838 137.353C261.982 141.95 262.51 148.909 266.974 152.844C271.479 156.779 278.298 156.241 282.153 151.684C286.009 147.128 285.481 140.128 281.017 136.193Z" fill="black"/>
<path d="M271.276 149.986L269.125 148.122C269.125 148.122 269.003 147.832 269.125 147.708L276.349 139.092C276.349 139.092 276.634 138.968 276.755 139.092L278.906 140.956C278.906 140.956 279.028 141.246 278.906 141.37L271.682 149.986C271.682 149.986 271.398 150.11 271.276 149.986ZM269.693 147.874L271.398 149.365L278.298 141.205L276.593 139.714L269.693 147.874Z" fill="black"/>
<path d="M245.504 128.323C245.504 128.323 245.382 128.033 245.504 127.909L248.264 124.595C248.264 124.595 248.548 124.471 248.67 124.595C248.792 124.678 248.792 124.885 248.67 125.009L245.91 128.323C245.91 128.323 245.626 128.447 245.504 128.323Z" fill="black"/>
<path d="M262.713 137.642L245.748 122.772C245.748 122.772 245.626 122.482 245.748 122.358C245.829 122.234 246.032 122.234 246.154 122.358L263.118 137.228C263.118 137.228 263.24 137.518 263.118 137.642C263.037 137.767 262.834 137.767 262.713 137.642Z" fill="black"/>
<path d="M398.596 160.426L380.687 137.758L350.23 162.821L368.139 185.489L398.596 160.426Z" fill="white"/>
<path d="M349.85 162.909C349.85 162.909 349.85 162.619 349.972 162.537L380.452 137.477C380.452 137.477 380.858 137.353 381.02 137.518L398.919 160.176C398.919 160.176 399 160.383 399 160.466C399 160.59 398.919 160.673 398.838 160.714L368.358 185.774C368.358 185.774 367.952 185.898 367.789 185.732L349.891 163.075C349.891 163.075 349.81 162.951 349.81 162.909H349.85ZM380.655 138.305L350.784 162.868L368.195 184.904L398.066 160.341L380.655 138.305Z" fill="black"/>
<path d="M392.414 159.137L380.619 144.208L378.344 146.079L390.139 161.009L392.414 159.137Z" fill="#D6E3F1"/>
<path d="M374.608 148.081C374.608 148.081 374.608 147.791 374.73 147.708C374.892 147.584 375.136 147.584 375.298 147.749L386.865 162.371C386.865 162.371 386.987 162.785 386.824 162.951C386.662 163.075 386.418 163.075 386.256 162.91L374.689 148.288C374.689 148.288 374.608 148.164 374.608 148.122V148.081Z" fill="black"/>
<path d="M372.051 150.193C372.051 150.193 372.051 149.903 372.173 149.82C372.335 149.696 372.578 149.696 372.741 149.862L379.437 158.353C379.437 158.353 379.559 158.767 379.397 158.933C379.235 159.057 378.991 159.057 378.829 158.891L372.132 150.4C372.132 150.4 372.051 150.276 372.051 150.234V150.193Z" fill="black"/>
<path d="M369.494 152.306C369.494 152.306 369.494 152.016 369.616 151.933C369.778 151.809 370.022 151.809 370.184 151.974L376.881 160.466C376.881 160.466 377.002 160.88 376.84 161.045C376.678 161.211 376.434 161.17 376.272 161.004L369.575 152.513C369.575 152.513 369.494 152.388 369.494 152.347V152.306Z" fill="black"/>
<path d="M367.181 168.915C367.181 168.915 367.181 168.626 367.302 168.543C367.465 168.418 367.708 168.418 367.871 168.584L373.431 175.626C373.431 175.626 373.553 176.04 373.39 176.206C373.228 176.33 372.984 176.33 372.822 176.164L367.262 169.123C367.262 169.123 367.181 168.998 367.181 168.957V168.915Z" fill="black"/>
<path d="M334.063 91.6236C333.21 97.3397 329.355 101.44 325.54 100.819C321.724 100.198 319.289 95.103 320.142 89.3869C320.994 83.6708 324.85 79.5701 328.665 80.1914C332.52 80.8127 334.915 85.9075 334.063 91.6236Z" fill="white"/>
<path d="M326.27 101.399C325.986 101.399 325.702 101.399 325.458 101.316C323.429 100.985 321.724 99.535 320.629 97.2568C319.573 95.0201 319.208 92.2034 319.655 89.3454C320.101 86.4873 321.237 83.9192 322.942 82.0967C324.647 80.2327 326.716 79.4043 328.746 79.6943C332.845 80.357 335.442 85.7417 334.55 91.665C333.697 97.2154 330.085 101.357 326.27 101.357V101.399ZM327.934 80.6469C326.473 80.6469 324.971 81.3925 323.673 82.8008C322.13 84.4577 321.034 86.8601 320.629 89.5111C320.223 92.162 320.547 94.7715 321.521 96.8426C322.455 98.8722 323.916 100.115 325.621 100.363C329.192 100.943 332.804 96.9669 333.616 91.5407C334.428 86.1145 332.196 81.2268 328.624 80.6884C328.381 80.6884 328.178 80.6469 327.934 80.6469Z" fill="black"/>
<path d="M323.429 88.3514C326.432 100.736 338.608 98.0025 335.889 85.9075C337.431 78.4517 333.048 79.86 333.048 79.86C331.587 69.7119 327.244 76.9191 327.244 76.9191C320.344 66.481 314.947 84.582 323.429 88.3514Z" fill="black"/>
<path d="M327.366 91.1267C326.676 92.8664 325.093 93.819 323.875 93.322C322.658 92.8249 322.211 91.0024 322.942 89.2627C323.632 87.523 325.215 86.5703 326.432 87.0674C327.65 87.5645 328.096 89.387 327.366 91.1267Z" fill="white"/>
<path d="M324.565 93.9433C324.281 93.9433 323.997 93.9019 323.713 93.7776C323.47 93.6948 323.348 93.4048 323.47 93.1563C323.591 92.9078 323.835 92.7835 324.078 92.9078C325.052 93.322 326.351 92.4521 326.919 91.0024C327.488 89.5526 327.203 87.9786 326.229 87.5644C325.255 87.1502 323.957 88.0201 323.388 89.4698C323.307 89.7183 323.023 89.8426 322.78 89.7183C322.536 89.6355 322.414 89.3455 322.536 89.097C323.348 87.1088 325.174 86.0319 326.635 86.6532C328.096 87.2745 328.624 89.387 327.853 91.3338C327.203 92.9492 325.864 93.9433 324.606 93.9433H324.565Z" fill="black"/>
<path d="M334.834 100.861C336.132 103.719 333.413 107.778 328.786 109.973C324.16 112.169 319.37 111.63 318.072 108.772C316.773 105.914 319.492 101.855 324.119 99.6594C328.746 97.4641 333.535 98.0025 334.834 100.861Z" fill="#F37A3E"/>
<path d="M356.426 150.069L359.145 157.193L360.728 155.909L362.148 161.708C362.148 161.708 371.889 159.679 363.406 146.424L356.466 150.069H356.426Z" fill="white"/>
<path d="M364.624 160.921C364.624 160.921 364.259 160.797 364.177 160.59L362.27 154.791C362.189 154.542 362.311 154.252 362.554 154.17C362.798 154.087 363.082 154.211 363.163 154.46L365.07 160.258C365.151 160.507 365.03 160.797 364.786 160.88C364.746 160.88 364.664 160.88 364.624 160.88V160.921Z" fill="black"/>
<path d="M280.205 154.045C283.231 154.045 285.684 151.542 285.684 148.453C285.684 145.365 283.231 142.862 280.205 142.862C277.179 142.862 274.726 145.365 274.726 148.453C274.726 151.542 277.179 154.045 280.205 154.045Z" fill="white"/>
<path d="M280.205 154.542C276.918 154.542 274.239 151.809 274.239 148.453C274.239 145.098 276.918 142.365 280.205 142.365C283.493 142.365 286.171 145.098 286.171 148.453C286.171 151.809 283.493 154.542 280.205 154.542ZM280.205 143.317C277.445 143.317 275.173 145.595 275.173 148.453C275.173 151.311 277.405 153.59 280.205 153.59C283.006 153.59 285.238 151.311 285.238 148.453C285.238 145.595 283.006 143.317 280.205 143.317Z" fill="black"/>
<path d="M310.807 144.85L293.396 225.331H307.763L324.525 161.791C324.525 161.791 320.547 184.2 324.525 188.673C328.502 193.147 347.253 203.751 347.253 203.751L356.425 190.33L338.081 178.111C341.652 157.152 343.966 149.738 337.675 141.909L310.807 144.85Z" fill="black"/>
<path d="M340.069 106.121L339.379 141.909C339.379 141.909 334.59 149.572 310.847 144.85L312.43 106.121C312.43 106.121 325.458 96.7185 340.11 106.121H340.069Z" fill="#F37A3E"/>
<path d="M340.069 106.121C340.069 106.121 353.179 121.488 355.33 125.299C357.44 129.11 364.177 146.382 364.177 146.382L355.654 150.814L346.807 134.163C346.807 134.163 331.546 121.322 328.543 115.896C325.539 110.47 330.856 101.399 340.069 106.121Z" fill="#F37A3E"/>
<path d="M312.39 106.121C306.627 109.642 298.915 129.814 298.915 129.814L282.072 140.873C282.072 140.873 280.489 147.915 286.496 153.175C286.496 153.175 302.527 146.092 306.87 139.962C311.213 133.832 320.182 120.039 321.765 113.908C323.348 107.737 318.559 102.31 312.349 106.121H312.39Z" fill="#F37A3E"/>
<path d="M306.018 225.331L304.07 233.16H282.438C284.02 228.645 292.178 229.804 295.384 225.331H306.018Z" fill="white"/>
<path d="M304.07 233.615H282.437C282.437 233.615 282.153 233.532 282.032 233.408C281.95 233.284 281.91 233.118 281.991 232.952C282.884 230.384 285.603 229.514 288.444 228.645C290.96 227.858 293.517 227.029 294.979 225C295.06 224.875 295.222 224.792 295.344 224.792H305.977C305.977 224.792 306.261 224.875 306.343 225C306.424 225.124 306.464 225.29 306.424 225.414L304.476 233.242C304.435 233.449 304.232 233.615 304.029 233.615H304.07ZM283.168 232.662H303.664L305.368 225.828H295.587C293.923 227.982 291.285 228.81 288.728 229.597C286.374 230.343 284.183 231.047 283.168 232.662Z" fill="black"/>
<path d="M348.024 202.591C351.068 207.064 347.172 214.479 350.013 216.674L359.956 196.751L354.843 192.65L348.065 202.591H348.024Z" fill="white"/>
<path d="M349.972 217.171C349.972 217.171 349.769 217.171 349.688 217.088C348.105 215.887 348.308 213.36 348.552 210.751C348.795 208.1 349.079 205.076 347.578 202.922C347.456 202.757 347.456 202.549 347.578 202.384L354.355 192.443C354.355 192.443 354.558 192.277 354.68 192.236C354.802 192.236 354.924 192.236 355.045 192.318L360.159 196.419C360.159 196.419 360.403 196.833 360.281 197.04L350.337 216.964C350.337 216.964 350.175 217.171 350.013 217.213C350.013 217.213 349.932 217.213 349.891 217.213L349.972 217.171ZM348.592 202.632C350.053 205.035 349.769 208.1 349.526 210.834C349.323 212.946 349.16 214.852 349.85 215.887L359.307 196.958L354.883 193.437L348.592 202.674V202.632Z" fill="black"/>
<path d="M366.491 158.477C366.491 158.477 366.125 158.353 366.044 158.146L364.38 153.3C364.299 153.051 364.421 152.761 364.664 152.678C364.908 152.595 365.192 152.72 365.273 152.968L366.369 156.199C366.815 151.601 363.041 146.755 363 146.714C362.838 146.507 362.879 146.217 363.081 146.009C363.284 145.844 363.569 145.885 363.771 146.092C363.812 146.175 365.07 147.749 366.085 149.986C367.465 153.01 367.749 155.826 366.937 158.104C366.856 158.312 366.694 158.436 366.491 158.436V158.477Z" fill="black"/>
<path d="M359.104 157.69C359.104 157.69 358.739 157.566 358.658 157.359L355.939 150.235C355.857 149.986 355.939 149.696 356.223 149.613C356.466 149.53 356.75 149.613 356.831 149.903L359.551 157.028C359.632 157.276 359.551 157.566 359.267 157.649C359.226 157.649 359.145 157.649 359.104 157.649V157.69Z" fill="black"/>
<path d="M362.148 162.205C361.945 162.205 361.742 162.039 361.702 161.832L360.281 156.033C360.2 155.785 360.362 155.495 360.646 155.453C360.89 155.371 361.174 155.536 361.215 155.826L362.635 161.625C362.716 161.874 362.554 162.164 362.27 162.205C362.27 162.205 362.189 162.205 362.148 162.205Z" fill="black"/>
<path d="M311.335 133.873C311.335 133.873 311.172 133.873 311.091 133.79C310.848 133.666 310.807 133.335 310.929 133.127L318.681 119.997C318.802 119.748 319.127 119.707 319.33 119.831C319.574 119.956 319.614 120.287 319.492 120.494L311.74 133.625C311.74 133.625 311.497 133.873 311.335 133.873Z" fill="black"/>
<path d="M339.623 128.571C339.379 128.571 339.136 128.323 339.176 128.074L339.46 116.891C339.46 116.642 339.663 116.394 339.947 116.435C340.191 116.435 340.435 116.683 340.394 116.932L340.11 128.116C340.11 128.364 339.907 128.571 339.623 128.571Z" fill="black"/>
<path d="M334.996 104.009C334.996 104.009 334.874 104.009 334.793 104.009C330.045 101.896 325.256 102.476 325.215 102.476C324.971 102.476 324.728 102.31 324.687 102.062C324.647 101.813 324.85 101.565 325.093 101.523C325.296 101.523 330.207 100.902 335.199 103.139C335.443 103.263 335.564 103.553 335.443 103.76C335.361 103.926 335.199 104.05 334.996 104.05V104.009Z" fill="black"/>
<path d="M238.767 245.71L234.465 187.099C233.531 174.507 228.336 162.619 219.732 153.548C211.615 144.974 206.501 133.915 205.162 122.068L197.288 50.9067H98.3396L106.213 122.068C107.512 133.915 112.626 144.974 120.784 153.548C129.388 162.619 137.383 174.59 135.516 187.099C132.594 206.65 132.635 221.148 136.45 230.633C140.265 240.118 146.312 245.71 154.673 245.71H238.726H238.767Z" fill="#D7E4F2"/>
<path d="M246.884 245.71L242.46 185.442C241.527 172.478 236.169 160.3 227.322 150.98C218.961 142.157 213.725 130.808 212.345 118.63L204.228 45.4805H102.52L110.637 118.63C111.977 130.808 117.253 142.199 125.613 150.98C134.461 160.3 142.7 172.602 140.752 185.442C137.749 205.532 137.789 220.443 141.685 230.219C145.582 239.953 151.791 245.71 160.436 245.71H246.843H246.884Z" fill="white"/>
<path d="M246.884 246H160.477C152.156 246 145.582 240.574 141.482 230.343C137.667 220.816 137.343 206.526 140.508 185.442C142.091 174.921 137.018 163.406 125.41 151.187C117.05 142.364 111.733 130.849 110.353 118.672L102.236 45.5219C102.236 45.5219 102.236 45.3562 102.317 45.3148C102.358 45.2734 102.439 45.2319 102.52 45.2319H204.228C204.228 45.2319 204.472 45.3562 204.512 45.4805L212.629 118.63C213.969 130.684 219.245 142.116 227.525 150.856C236.413 160.217 241.811 172.519 242.744 185.525L247.168 245.793C247.168 245.793 247.168 245.959 247.087 246C247.046 246.042 246.965 246.083 246.884 246.083V246ZM102.845 45.729L110.921 118.589C112.261 130.642 117.537 142.075 125.816 150.814C137.546 163.158 142.659 174.839 141.036 185.525C137.911 206.236 138.236 220.816 141.969 230.136C146.069 240.325 152.278 245.462 160.477 245.462H246.6L242.217 185.484C241.283 172.643 235.926 160.424 227.119 151.187C218.758 142.364 213.441 130.849 212.061 118.672L203.985 45.7704H102.845V45.729Z" fill="black"/>
<path d="M137.911 102.434L136.49 101.523C136.49 101.523 135.76 101.026 135.07 100.446C134.055 99.6178 132.919 98.458 132.919 96.8426C132.919 95.3929 134.096 94.1917 135.516 94.1917C136.571 94.1917 137.505 94.8544 137.911 95.8071C138.317 94.8544 139.21 94.1917 140.305 94.1917C141.726 94.1917 142.903 95.3929 142.903 96.8426C142.903 98.4166 141.766 99.5764 140.752 100.446C140.062 101.026 139.372 101.482 139.331 101.523L137.911 102.434Z" fill="#F47A3E"/>
<path d="M163.115 217.875C227.322 245.71 276.593 219.283 276.593 219.283C291.245 226.615 281.504 245.71 274.848 245.71H160.477C174.154 238.296 171.76 223.177 163.115 217.875Z" fill="#D7E4F2"/>
<path d="M274.848 246H160.477C160.477 246 160.233 245.917 160.193 245.793C160.193 245.669 160.193 245.544 160.314 245.462C168.432 241.071 169.771 234.734 169.852 231.296C169.974 225.952 167.295 220.733 162.952 218.082C162.831 217.999 162.79 217.834 162.831 217.709C162.912 217.585 163.034 217.502 163.196 217.585C177.807 223.923 192.864 227.941 207.922 229.515C219.976 230.799 232.07 230.509 243.84 228.686C263.93 225.621 276.309 219.035 276.431 218.994C276.512 218.994 276.593 218.952 276.674 218.994C285.562 223.426 284.791 231.544 284.061 234.816C282.721 240.74 278.419 245.917 274.807 245.917L274.848 246ZM161.532 245.42H274.848C278.176 245.42 282.275 240.45 283.533 234.734C284.264 231.586 284.994 223.84 276.552 219.573C275.213 220.278 262.997 226.325 243.921 229.266C232.07 231.089 219.935 231.378 207.84 230.094C193.473 228.562 179.106 224.875 165.104 219.035C168.472 222.017 170.501 226.574 170.38 231.296C170.299 234.692 169 240.905 161.451 245.379L161.532 245.42Z" fill="black"/>
<path d="M163.115 217.875C149.397 215.141 151.507 234.319 167.052 230.799L170.136 229.722C170.136 229.722 170.136 222.307 163.155 217.875H163.115Z" fill="#89B9E6"/>
<path d="M163.399 231.503C159.746 231.503 156.743 230.136 155.038 227.568C153.415 225.207 153.293 222.266 154.632 220.153C156.175 217.751 159.259 216.84 163.155 217.627H163.236C170.298 222.1 170.38 229.639 170.38 229.722C170.38 229.846 170.298 229.929 170.177 229.97L167.092 231.047C165.834 231.337 164.576 231.461 163.399 231.461V231.503ZM160.598 217.917C158.123 217.917 156.175 218.786 155.119 220.443C153.861 222.39 154.023 225.041 155.485 227.236C157.636 230.426 161.938 231.668 166.97 230.509L169.852 229.514C169.771 228.313 169.162 222.017 163.034 218.124C162.181 217.958 161.37 217.875 160.598 217.875V217.917Z" fill="black"/>
<path d="M163.115 222.597C163.115 222.597 162.019 232.124 156.134 228.396C158.163 230.633 161.775 232 167.011 230.799L170.095 229.722C170.095 229.722 170.095 227.319 168.553 224.461L163.074 222.597H163.115Z" fill="#D7E4F2"/>
<path d="M163.358 231.544C159.34 231.544 157.067 229.804 155.972 228.603C155.89 228.52 155.89 228.355 155.972 228.23C156.053 228.106 156.215 228.106 156.337 228.189C157.676 229.059 158.853 229.225 159.868 228.728C162.303 227.526 162.912 222.639 162.912 222.556C162.912 222.473 162.952 222.39 163.033 222.349C163.115 222.307 163.196 222.307 163.277 222.349L168.756 224.213C168.756 224.213 168.878 224.295 168.918 224.337C170.461 227.236 170.461 229.639 170.461 229.763C170.461 229.887 170.38 229.97 170.258 230.012L167.173 231.089C165.793 231.42 164.535 231.544 163.439 231.544H163.358ZM157.757 229.432C159.502 230.591 162.425 231.586 166.97 230.55L169.852 229.556C169.852 228.935 169.608 226.988 168.431 224.71L163.358 222.97C163.196 224.171 162.425 228.065 160.071 229.225C159.381 229.556 158.61 229.639 157.798 229.432H157.757Z" fill="black"/>
<path d="M139.9 73.4396C140.468 80.2741 136.287 85.8245 130.565 85.8245C124.842 85.8245 119.688 80.2741 119.079 73.4396C118.511 66.6051 122.691 61.0547 128.414 61.0547C134.136 61.0547 139.291 66.6051 139.9 73.4396Z" fill="white"/>
<path d="M130.565 86.0731C124.72 86.0731 119.485 80.4398 118.876 73.4811C118.551 69.7946 119.607 66.3152 121.758 63.8714C123.503 61.9246 125.897 60.8477 128.414 60.8477C134.258 60.8477 139.494 66.4809 140.103 73.4397C140.427 77.1262 139.372 80.6055 137.221 83.0494C135.476 84.9962 133.081 86.0731 130.565 86.0731ZM128.454 61.2619C126.019 61.2619 123.787 62.2974 122.123 64.1613C120.053 66.4809 119.038 69.836 119.323 73.4397C119.891 80.1499 124.964 85.6175 130.565 85.6175C133 85.6175 135.232 84.582 136.896 82.718C138.966 80.3984 139.981 77.0433 139.697 73.4397C139.128 66.7295 134.055 61.2619 128.454 61.2619Z" fill="black"/>
<path d="M132.472 70.9958C132.635 73.0254 131.417 74.6823 129.713 74.6823C128.008 74.6823 126.466 73.0254 126.303 70.9958C126.141 68.9662 127.359 67.3093 129.063 67.3093C130.768 67.3093 132.31 68.9662 132.472 70.9958Z" fill="#F47A3E"/>
<path d="M129.875 76.2563C126.79 76.8777 124.802 79.9428 125.41 83.0908L125.613 84.2092C127.115 85.1205 128.82 85.6175 130.524 85.6175C133.04 85.6175 135.273 84.5406 136.937 82.7595L136.571 80.8127C135.963 77.6647 132.959 75.635 129.875 76.2563Z" fill="#F47A3E"/>
<path d="M125.695 97.9609C125.857 99.9491 124.68 101.523 123.057 101.523C121.433 101.523 119.972 99.9077 119.81 97.9609C119.647 96.0141 120.824 94.3987 122.448 94.3987C124.071 94.3987 125.532 96.0141 125.695 97.9609Z" fill="#D7E4F2"/>
<path d="M124.639 101.813C122.894 101.813 121.311 100.073 121.108 97.961C121.027 96.8012 121.352 95.7242 122.001 94.9787C122.529 94.3988 123.259 94.0674 123.99 94.0674C125.735 94.0674 127.318 95.8071 127.521 97.9195C127.602 99.0793 127.278 100.156 126.628 100.902C126.101 101.482 125.37 101.813 124.639 101.813ZM124.031 94.6473C123.422 94.6473 122.854 94.8958 122.407 95.3929C121.839 96.0142 121.555 96.9254 121.677 97.9195C121.839 99.7421 123.178 101.233 124.639 101.233C125.248 101.233 125.816 100.985 126.263 100.488C126.831 99.8663 127.115 98.9551 126.993 97.961C126.831 96.1384 125.492 94.6473 124.031 94.6473Z" fill="black"/>
<path d="M203.498 103.056H152.116C152.116 103.056 151.832 102.931 151.832 102.766C151.832 102.6 151.954 102.476 152.116 102.476H203.498C203.498 102.476 203.782 102.6 203.782 102.766C203.782 102.931 203.66 103.056 203.498 103.056Z" fill="black"/>
<path d="M162.749 100.405H156.905L155.485 83.7537H161.329L162.749 100.405Z" fill="#D7E4F2"/>
<path d="M199.115 100.405H190.064L188.603 83.7537H197.694L199.115 100.405Z" fill="#D7E4F2"/>
<path d="M186.005 100.405H166.443L165.022 83.7537H184.585L186.005 100.405Z" fill="#D7E4F2"/>
<path d="M221.112 155.868H142.74L131.579 142.281H211.736L221.112 155.868Z" fill="#D7E4F2"/>
<path d="M213.969 146.631H135.354C135.354 146.631 135.07 146.507 135.07 146.341C135.07 146.175 135.192 146.051 135.354 146.051H213.969C213.969 146.051 214.253 146.175 214.253 146.341C214.253 146.507 214.131 146.631 213.969 146.631Z" fill="black"/>
<path d="M218.109 151.808H139.169C139.169 151.808 138.885 151.684 138.885 151.518C138.885 151.353 139.007 151.229 139.169 151.229H218.109C218.109 151.229 218.393 151.353 218.393 151.518C218.393 151.684 218.271 151.808 218.109 151.808Z" fill="black"/>
<path d="M198.668 68.7592H150.208L149.721 63.4573H198.222L198.668 68.7592Z" fill="#D7E4F2"/>
<path d="M189.495 73.3983H150.817C150.817 73.3983 150.533 73.274 150.533 73.1083C150.533 72.9426 150.655 72.8184 150.817 72.8184H189.495C189.495 72.8184 189.78 72.9426 189.78 73.1083C189.78 73.274 189.658 73.3983 189.495 73.3983Z" fill="black"/>
<path d="M189.495 76.5877H150.817C150.817 76.5877 150.533 76.4634 150.533 76.2978C150.533 76.1321 150.655 76.0078 150.817 76.0078H189.495C189.495 76.0078 189.78 76.1321 189.78 76.2978C189.78 76.4634 189.658 76.5877 189.495 76.5877Z" fill="black"/>
<path d="M167.62 65.2383H149.721C149.721 65.2383 149.437 65.1141 149.437 64.9484C149.437 64.7827 149.559 64.6584 149.721 64.6584H167.62C167.62 64.6584 167.904 64.7827 167.904 64.9484C167.904 65.1141 167.782 65.2383 167.62 65.2383Z" fill="black"/>
<path d="M177.198 65.2383H171.435C171.435 65.2383 171.151 65.1141 171.151 64.9484C171.151 64.7827 171.272 64.6584 171.435 64.6584H177.198C177.198 64.6584 177.482 64.7827 177.482 64.9484C177.482 65.1141 177.36 65.2383 177.198 65.2383Z" fill="black"/>
<path d="M190.835 65.2383H180.973C180.973 65.2383 180.688 65.1141 180.688 64.9484C180.688 64.7827 180.81 64.6584 180.973 64.6584H190.835C190.835 64.6584 191.119 64.7827 191.119 64.9484C191.119 65.1141 190.997 65.2383 190.835 65.2383Z" fill="black"/>
<path d="M197.856 92.3692H156.215C156.215 92.3692 155.931 92.2449 155.931 92.0793C155.931 91.9136 156.053 91.7893 156.215 91.7893H197.856C197.856 91.7893 198.14 91.9136 198.14 92.0793C198.14 92.2449 198.018 92.3692 197.856 92.3692Z" fill="black"/>
<path d="M196.801 119.79H160.03C157.392 119.79 155.079 117.595 154.835 114.902C154.592 112.21 156.54 110.015 159.178 110.015H195.949C198.587 110.015 200.9 112.21 201.144 114.902C201.387 117.595 199.439 119.79 196.801 119.79Z" fill="white"/>
<path d="M196.801 119.956H160.03C157.311 119.956 154.916 117.719 154.673 114.944C154.551 113.577 154.957 112.334 155.809 111.34C156.662 110.387 157.879 109.849 159.178 109.849H195.949C198.668 109.849 201.062 112.086 201.306 114.861C201.428 116.228 201.022 117.47 200.17 118.464C199.317 119.417 198.1 119.956 196.801 119.956ZM159.218 110.222C158.001 110.222 156.905 110.719 156.093 111.589C155.282 112.458 154.916 113.66 155.038 114.902C155.241 117.512 157.514 119.624 160.071 119.624H196.842C198.059 119.624 199.155 119.127 199.967 118.257C200.778 117.388 201.144 116.186 201.022 114.944C200.819 112.334 198.546 110.222 195.989 110.222H159.218Z" fill="black"/>
<path d="M198.059 134.536H161.288C158.65 134.536 156.337 132.341 156.093 129.648C155.85 126.956 157.798 124.76 160.436 124.76H197.207C199.845 124.76 202.158 126.956 202.402 129.648C202.645 132.341 200.697 134.536 198.059 134.536Z" fill="white"/>
<path d="M198.059 134.701H161.288C158.569 134.701 156.174 132.465 155.931 129.69C155.809 128.323 156.215 127.08 157.067 126.086C157.92 125.133 159.137 124.595 160.436 124.595H197.207C199.926 124.595 202.321 126.831 202.564 129.607C202.686 130.974 202.28 132.216 201.428 133.21C200.575 134.163 199.358 134.701 198.059 134.701ZM160.476 124.968C159.259 124.968 158.163 125.465 157.351 126.334C156.54 127.204 156.174 128.405 156.296 129.648C156.499 132.258 158.772 134.37 161.329 134.37H198.1C199.317 134.37 200.413 133.873 201.225 133.003C202.036 132.133 202.402 130.932 202.28 129.69C202.077 127.08 199.804 124.968 197.247 124.968H160.476Z" fill="black"/>
<path d="M165.55 132.631H162.871L162.425 127.122H165.063L165.55 132.631Z" fill="#D7E4F2"/>
<path d="M182.718 132.631H167.376L166.889 127.122H182.271L182.718 132.631Z" fill="#D7E4F2"/>
<path d="M194.975 132.631H184.706L184.26 127.122H194.528L194.975 132.631Z" fill="#D7E4F2"/>
<path d="M161.37 114.944C161.329 114.281 160.72 113.742 160.071 113.742C159.421 113.742 158.934 114.281 158.975 114.944C159.016 115.606 159.624 116.145 160.274 116.145C160.923 116.145 161.41 115.606 161.37 114.944Z" fill="#4666C8"/>
<path d="M167.214 114.944C167.173 114.281 166.564 113.742 165.915 113.742C165.266 113.742 164.779 114.281 164.819 114.944C164.86 115.606 165.469 116.145 166.118 116.145C166.767 116.145 167.254 115.606 167.214 114.944Z" fill="#4666C8"/>
<path d="M173.018 114.944C172.977 114.281 172.368 113.742 171.719 113.742C171.069 113.742 170.582 114.281 170.623 114.944C170.664 115.606 171.272 116.145 171.922 116.145C172.571 116.145 173.058 115.606 173.018 114.944Z" fill="#4666C8"/>
<path d="M178.862 114.944C178.821 114.281 178.213 113.742 177.563 113.742C176.914 113.742 176.427 114.281 176.467 114.944C176.508 115.606 177.117 116.145 177.766 116.145C178.416 116.145 178.903 115.606 178.862 114.944Z" fill="#4666C8"/>
<path d="M184.706 114.944C184.666 114.281 184.057 113.742 183.408 113.742C182.758 113.742 182.271 114.281 182.312 114.944C182.352 115.606 182.961 116.145 183.61 116.145C184.26 116.145 184.747 115.606 184.706 114.944Z" fill="#4666C8"/>
<path d="M197.004 130.062H161.491C161.491 130.062 161.329 129.979 161.329 129.897C161.329 129.814 161.41 129.731 161.491 129.731H197.004C197.004 129.731 197.166 129.814 197.166 129.897C197.166 129.979 197.085 130.062 197.004 130.062Z" fill="black"/>
<path d="M232.679 194.348H152.887L151.588 179.022H231.38L232.679 194.348Z" fill="#D7E4F2"/>
<path d="M189.496 161.791L193.676 210.502L182.555 204.372C178.091 201.887 175.047 197.289 174.601 192.277L172.612 169.205C172.612 169.205 184.463 170.904 189.496 161.791Z" fill="#89B9E6"/>
<path d="M189.495 161.791L193.676 210.502L203.741 204.372C207.8 201.887 210.032 197.289 209.585 192.277L207.597 169.205C207.597 169.205 196.03 170.904 189.455 161.791H189.495Z" fill="#D7E4F2"/>
<path d="M193.676 210.709H193.595L182.474 204.579C177.929 202.094 174.885 197.372 174.438 192.318L172.449 169.247C172.449 169.247 172.449 169.123 172.49 169.081C172.531 169.04 172.612 169.04 172.652 169.04C172.774 169.04 184.422 170.614 189.333 161.75C189.333 161.708 189.414 161.667 189.496 161.667C189.577 161.667 189.617 161.667 189.658 161.75C196.07 170.655 207.516 169.081 207.597 169.081C207.637 169.081 207.719 169.081 207.759 169.123C207.8 169.123 207.84 169.205 207.84 169.247L209.829 192.318C210.276 197.413 207.962 202.094 203.863 204.62L193.798 210.751H193.716L193.676 210.709ZM172.815 169.413L174.763 192.236C175.169 197.165 178.172 201.762 182.596 204.165L193.635 210.254L203.619 204.165C207.597 201.721 209.829 197.165 209.383 192.236L207.435 169.371C206.704 169.454 204.106 169.661 200.981 169.04C197.613 168.377 192.905 166.679 189.496 162.081C187.994 164.649 184.991 167.88 179.187 169.04C176.183 169.62 173.586 169.454 172.815 169.371V169.413Z" fill="black"/>
<path d="M175.088 171.815C175.088 171.815 174.966 171.815 174.966 171.774C174.966 171.774 174.925 171.691 174.925 171.649C174.925 171.608 174.925 171.525 174.966 171.525C174.966 171.525 175.006 171.525 175.047 171.525C175.047 171.525 175.088 171.608 175.088 171.649C175.088 171.691 175.088 171.774 175.047 171.774L175.088 171.815Z" fill="black"/>
<path d="M176.914 171.567C176.914 171.567 176.995 171.359 177.076 171.359C177.076 171.359 177.279 171.442 177.279 171.525C177.279 171.525 177.198 171.732 177.117 171.732C177.117 171.732 176.914 171.649 176.914 171.525V171.567ZM178.943 171.318C178.943 171.318 178.984 171.111 179.106 171.069C179.106 171.069 179.309 171.111 179.349 171.235C179.349 171.235 179.309 171.442 179.187 171.484C179.187 171.484 179.025 171.401 178.984 171.318H178.943ZM180.973 170.904C180.973 170.904 180.973 170.697 181.094 170.655C181.094 170.655 181.297 170.655 181.338 170.78C181.338 170.78 181.338 170.987 181.216 171.028C181.216 171.028 181.216 171.028 181.176 171.028C181.176 171.028 181.013 170.987 180.973 170.862V170.904ZM182.921 170.282C182.921 170.282 182.921 170.075 183.043 170.034C183.043 170.034 183.245 170.034 183.286 170.158C183.286 170.158 183.286 170.365 183.164 170.407C183.164 170.407 183.124 170.407 183.083 170.407C183.083 170.407 182.921 170.365 182.88 170.282H182.921ZM184.828 169.454C184.828 169.454 184.828 169.247 184.909 169.164C184.909 169.164 185.112 169.164 185.194 169.247C185.194 169.247 185.194 169.454 185.112 169.537C185.112 169.537 185.072 169.537 185.031 169.537C185.031 169.537 184.909 169.537 184.869 169.413L184.828 169.454ZM186.614 168.419C186.614 168.419 186.614 168.211 186.655 168.129C186.655 168.129 186.858 168.129 186.939 168.17C186.939 168.17 186.939 168.377 186.898 168.46C186.898 168.46 186.817 168.46 186.776 168.46C186.776 168.46 186.655 168.46 186.614 168.377V168.419ZM188.238 167.176C188.238 167.176 188.156 166.969 188.238 166.886C188.238 166.886 188.44 166.803 188.522 166.886C188.522 166.886 188.603 167.093 188.522 167.176C188.522 167.176 188.44 167.217 188.4 167.217C188.4 167.217 188.278 167.217 188.238 167.134V167.176Z" fill="black"/>
<path d="M189.82 165.726C189.82 165.726 189.699 165.726 189.699 165.685C189.699 165.685 189.699 165.643 189.658 165.602C189.617 165.56 189.658 165.56 189.658 165.519C189.699 165.478 189.78 165.436 189.861 165.478C189.861 165.478 189.901 165.478 189.942 165.519C189.942 165.519 189.983 165.602 189.983 165.643C189.983 165.643 189.983 165.685 189.983 165.726C189.983 165.726 189.983 165.768 189.942 165.809C189.942 165.809 189.942 165.809 189.861 165.85C189.861 165.85 189.82 165.85 189.78 165.85L189.82 165.726Z" fill="black"/>
<path d="M203.417 171.732C203.417 171.732 203.214 171.608 203.254 171.525C203.254 171.525 203.376 171.318 203.457 171.359C203.457 171.359 203.66 171.484 203.619 171.566C203.619 171.566 203.538 171.732 203.417 171.732ZM201.225 171.442C201.225 171.442 201.063 171.318 201.063 171.194C201.063 171.194 201.184 171.028 201.306 171.028C201.306 171.028 201.468 171.152 201.468 171.276C201.468 171.276 201.387 171.442 201.266 171.442H201.225ZM199.114 170.987C199.114 170.987 198.952 170.862 198.993 170.738C198.993 170.738 199.114 170.572 199.236 170.614C199.236 170.614 199.399 170.738 199.358 170.862C199.358 170.862 199.236 171.028 199.155 171.028C199.155 171.028 199.155 171.028 199.114 171.028V170.987ZM197.004 170.324C197.004 170.324 196.842 170.158 196.882 170.075C196.882 170.075 197.045 169.91 197.126 169.951C197.126 169.951 197.288 170.117 197.248 170.2C197.248 170.2 197.126 170.324 197.045 170.324C197.045 170.324 197.004 170.324 196.963 170.324H197.004ZM195.015 169.495C195.015 169.495 194.894 169.33 194.934 169.247C194.934 169.247 195.096 169.123 195.178 169.164C195.178 169.164 195.299 169.33 195.259 169.413C195.259 169.413 195.137 169.537 195.096 169.537C195.096 169.537 195.056 169.537 195.015 169.537V169.495ZM193.108 168.418C193.108 168.418 192.986 168.253 193.027 168.128C193.027 168.128 193.189 168.004 193.311 168.046C193.311 168.046 193.432 168.211 193.392 168.336C193.392 168.336 193.27 168.418 193.23 168.418C193.23 168.418 193.148 168.418 193.108 168.418ZM191.322 167.134C191.322 167.134 191.241 166.927 191.322 166.844C191.322 166.844 191.525 166.762 191.606 166.844C191.606 166.844 191.687 167.052 191.606 167.134C191.606 167.134 191.525 167.217 191.444 167.217C191.444 167.217 191.363 167.217 191.322 167.176V167.134Z" fill="black"/>
<path d="M205.568 171.815C205.568 171.815 205.446 171.815 205.446 171.774C205.446 171.774 205.446 171.732 205.405 171.691C205.405 171.691 205.405 171.649 205.405 171.608C205.405 171.567 205.405 171.567 205.405 171.525C205.405 171.525 205.405 171.484 205.446 171.442C205.486 171.401 205.568 171.36 205.649 171.401C205.649 171.401 205.689 171.401 205.73 171.442C205.73 171.442 205.73 171.442 205.771 171.525C205.771 171.525 205.771 171.567 205.771 171.608C205.771 171.649 205.771 171.649 205.771 171.691C205.771 171.691 205.771 171.732 205.73 171.774C205.73 171.774 205.649 171.815 205.608 171.815H205.568Z" fill="black"/>
<path d="M195.096 206.857C195.096 206.857 195.096 206.65 195.178 206.567C195.178 206.567 195.381 206.567 195.462 206.65C195.462 206.65 195.462 206.857 195.381 206.94C195.381 206.94 195.299 206.94 195.259 206.94C195.259 206.94 195.137 206.94 195.096 206.857ZM196.923 205.739C196.923 205.739 196.923 205.532 197.004 205.449C197.004 205.449 197.207 205.449 197.288 205.532C197.288 205.532 197.288 205.739 197.207 205.822H197.126C197.126 205.822 197.004 205.822 196.963 205.739H196.923ZM198.749 204.621C198.749 204.621 198.749 204.414 198.83 204.331C198.83 204.331 199.033 204.331 199.114 204.413C199.114 204.413 199.114 204.621 199.033 204.703C199.033 204.703 198.952 204.703 198.912 204.703C198.912 204.703 198.79 204.703 198.749 204.621ZM200.535 203.502C200.535 203.502 200.535 203.295 200.616 203.212C200.616 203.212 200.819 203.212 200.9 203.295C200.9 203.295 200.9 203.502 200.819 203.585H200.738C200.738 203.585 200.616 203.585 200.576 203.502H200.535ZM202.361 202.425C202.361 202.425 202.361 202.218 202.442 202.135C202.442 202.135 202.645 202.135 202.727 202.218C202.727 202.218 202.727 202.425 202.645 202.508C202.645 202.508 202.564 202.508 202.524 202.508C202.524 202.508 202.402 202.508 202.361 202.425ZM204.066 201.141C204.066 201.141 203.985 200.934 204.066 200.851C204.066 200.851 204.269 200.768 204.35 200.851C204.35 200.851 204.431 201.058 204.35 201.141C204.35 201.141 204.269 201.183 204.228 201.183C204.228 201.183 204.107 201.183 204.066 201.141ZM205.486 199.484C205.486 199.484 205.365 199.277 205.446 199.194C205.446 199.194 205.649 199.07 205.73 199.153C205.73 199.153 205.852 199.36 205.771 199.443C205.771 199.443 205.689 199.526 205.608 199.526C205.608 199.526 205.527 199.526 205.486 199.526V199.484ZM206.501 197.62C206.501 197.62 206.339 197.455 206.379 197.372C206.379 197.372 206.542 197.206 206.623 197.248C206.623 197.248 206.785 197.413 206.745 197.496C206.745 197.496 206.623 197.62 206.542 197.62C206.542 197.62 206.501 197.62 206.46 197.62H206.501ZM207.15 195.549C207.15 195.549 206.988 195.425 206.988 195.301C206.988 195.301 207.11 195.135 207.232 195.135C207.232 195.135 207.394 195.259 207.394 195.384C207.394 195.384 207.313 195.549 207.191 195.549H207.15ZM207.191 193.188C207.191 193.188 207.272 192.981 207.394 192.981C207.394 192.981 207.597 193.064 207.597 193.188C207.597 193.188 207.516 193.395 207.394 193.395C207.394 193.395 207.191 193.313 207.191 193.188ZM207.069 191.076C207.069 191.076 207.15 190.869 207.232 190.869C207.232 190.869 207.435 190.952 207.435 191.034C207.435 191.034 207.353 191.242 207.272 191.242C207.272 191.242 207.069 191.159 207.069 191.076ZM206.866 188.922C206.866 188.922 206.948 188.715 207.029 188.715C207.029 188.715 207.232 188.798 207.232 188.881C207.232 188.881 207.15 189.088 207.069 189.088C207.069 189.088 206.866 189.005 206.866 188.922ZM206.663 186.727C206.663 186.727 206.745 186.52 206.826 186.52C206.826 186.52 207.029 186.602 207.029 186.685C207.029 186.685 206.948 186.892 206.866 186.892C206.866 186.892 206.663 186.81 206.663 186.727ZM206.501 184.573C206.501 184.573 206.582 184.366 206.663 184.366C206.663 184.366 206.866 184.449 206.866 184.531C206.866 184.531 206.785 184.738 206.704 184.738C206.704 184.738 206.501 184.656 206.501 184.573ZM206.298 182.419C206.298 182.419 206.379 182.212 206.46 182.212C206.46 182.212 206.663 182.295 206.663 182.377C206.663 182.377 206.582 182.585 206.501 182.585C206.501 182.585 206.298 182.502 206.298 182.419ZM206.136 180.265C206.136 180.265 206.217 180.058 206.298 180.058C206.298 180.058 206.501 180.141 206.501 180.224C206.501 180.224 206.42 180.431 206.339 180.431C206.339 180.431 206.136 180.348 206.136 180.265ZM205.933 178.111C205.933 178.111 206.014 177.904 206.095 177.904C206.095 177.904 206.298 177.987 206.298 178.07C206.298 178.07 206.217 178.277 206.136 178.277C206.136 178.277 205.933 178.194 205.933 178.111ZM205.771 175.957C205.771 175.957 205.852 175.75 205.933 175.75C205.933 175.75 206.136 175.833 206.136 175.916C206.136 175.916 206.055 176.123 205.973 176.123C205.973 176.123 205.771 176.04 205.771 175.957ZM205.568 173.803C205.568 173.803 205.649 173.596 205.73 173.596C205.73 173.596 205.933 173.679 205.933 173.762C205.933 173.762 205.852 173.969 205.771 173.969C205.771 173.969 205.568 173.886 205.568 173.803Z" fill="black"/>
<path d="M193.432 208.058C193.432 208.058 193.432 208.058 193.392 207.976C193.392 207.976 193.392 207.934 193.392 207.893C193.392 207.851 193.392 207.851 193.392 207.81C193.392 207.81 193.392 207.768 193.432 207.727C193.432 207.727 193.473 207.727 193.514 207.727C193.514 207.727 193.514 207.727 193.554 207.81C193.554 207.81 193.554 207.851 193.554 207.893C193.554 207.934 193.554 207.934 193.554 207.976C193.554 207.976 193.554 208.017 193.514 208.058H193.432Z" fill="black"/>
<path d="M191.403 206.982C191.403 206.982 191.281 206.816 191.322 206.692C191.322 206.692 191.484 206.567 191.606 206.609C191.606 206.609 191.728 206.774 191.687 206.899C191.687 206.899 191.566 207.023 191.525 207.023H191.444L191.403 206.982ZM189.455 205.905C189.455 205.905 189.333 205.739 189.374 205.615C189.374 205.615 189.536 205.49 189.658 205.532C189.658 205.532 189.78 205.697 189.739 205.822C189.739 205.822 189.617 205.946 189.577 205.946H189.496L189.455 205.905ZM187.548 204.828C187.548 204.828 187.426 204.662 187.466 204.538C187.466 204.538 187.629 204.413 187.75 204.455C187.75 204.455 187.872 204.621 187.832 204.745C187.832 204.745 187.71 204.869 187.669 204.869H187.588L187.548 204.828ZM185.599 203.751C185.599 203.751 185.478 203.585 185.518 203.461C185.518 203.461 185.681 203.336 185.802 203.378C185.802 203.378 185.924 203.544 185.884 203.668C185.884 203.668 185.762 203.792 185.721 203.792H185.64L185.599 203.751ZM183.651 202.674C183.651 202.674 183.53 202.508 183.57 202.384C183.57 202.384 183.732 202.26 183.854 202.301C183.854 202.301 183.976 202.467 183.935 202.591C183.935 202.591 183.814 202.715 183.773 202.715H183.692L183.651 202.674ZM181.784 201.473C181.784 201.473 181.663 201.265 181.784 201.183C181.784 201.183 181.987 201.058 182.068 201.183C182.068 201.183 182.19 201.39 182.068 201.473C182.068 201.473 181.987 201.555 181.906 201.555C181.906 201.555 181.825 201.555 181.784 201.555V201.473ZM180.12 199.981C180.12 199.981 180.039 199.774 180.12 199.691C180.12 199.691 180.323 199.609 180.404 199.691C180.404 199.691 180.486 199.899 180.404 199.981C180.404 199.981 180.323 200.023 180.283 200.023C180.283 200.023 180.161 200.023 180.12 199.94V199.981ZM178.7 198.2C178.7 198.2 178.7 197.993 178.74 197.91C178.74 197.91 178.943 197.91 179.025 197.952C179.025 197.952 179.025 198.159 178.984 198.242C178.984 198.242 178.903 198.242 178.862 198.242C178.862 198.242 178.74 198.242 178.7 198.159V198.2ZM177.645 196.171C177.645 196.171 177.645 195.964 177.726 195.922C177.726 195.922 177.929 195.922 177.969 196.005C177.969 196.005 177.969 196.212 177.888 196.253C177.888 196.253 177.848 196.253 177.807 196.253C177.807 196.253 177.645 196.212 177.645 196.129V196.171ZM176.914 194.017C176.914 194.017 176.914 193.81 177.076 193.768C177.076 193.768 177.279 193.81 177.32 193.934C177.32 193.934 177.32 194.141 177.158 194.182C177.158 194.182 177.158 194.182 177.117 194.182C177.117 194.182 176.955 194.141 176.914 194.017ZM176.589 191.78C176.589 191.78 176.671 191.573 176.752 191.573C176.752 191.573 176.955 191.656 176.955 191.739C176.955 191.739 176.873 191.946 176.792 191.946C176.792 191.946 176.589 191.863 176.589 191.78ZM176.386 189.543C176.386 189.543 176.468 189.336 176.549 189.336C176.549 189.336 176.752 189.419 176.752 189.502C176.752 189.502 176.671 189.709 176.589 189.709C176.589 189.709 176.386 189.626 176.386 189.543ZM176.224 187.307C176.224 187.307 176.305 187.099 176.386 187.099C176.386 187.099 176.589 187.182 176.589 187.265C176.589 187.265 176.508 187.472 176.427 187.472C176.427 187.472 176.224 187.389 176.224 187.307ZM176.021 185.07C176.021 185.07 176.102 184.863 176.184 184.863C176.184 184.863 176.386 184.945 176.386 185.028C176.386 185.028 176.305 185.235 176.224 185.235C176.224 185.235 176.021 185.153 176.021 185.07ZM175.818 182.833C175.818 182.833 175.899 182.626 175.981 182.626C175.981 182.626 176.184 182.709 176.184 182.792C176.184 182.792 176.102 182.999 176.021 182.999C176.021 182.999 175.818 182.916 175.818 182.833ZM175.656 180.596C175.656 180.596 175.737 180.389 175.818 180.389C175.818 180.389 176.021 180.472 176.021 180.555C176.021 180.555 175.94 180.762 175.859 180.762C175.859 180.762 175.656 180.679 175.656 180.596ZM175.453 178.36C175.453 178.36 175.534 178.152 175.615 178.152C175.615 178.152 175.818 178.235 175.818 178.318C175.818 178.318 175.737 178.525 175.656 178.525C175.656 178.525 175.453 178.442 175.453 178.36ZM175.25 176.123C175.25 176.123 175.331 175.916 175.412 175.916C175.412 175.916 175.615 175.999 175.615 176.081C175.615 176.081 175.534 176.288 175.453 176.288C175.453 176.288 175.25 176.206 175.25 176.123ZM175.047 173.886C175.047 173.886 175.128 173.679 175.209 173.679C175.209 173.679 175.412 173.762 175.412 173.845C175.412 173.845 175.331 174.052 175.25 174.052C175.25 174.052 175.047 173.969 175.047 173.886Z" fill="black"/>
<path d="M193.189 205.407H193.108L184.301 200.561C181.257 198.863 179.187 195.715 178.862 192.277L177.279 173.845C177.279 173.845 177.279 173.72 177.32 173.679C177.32 173.679 177.401 173.596 177.442 173.596C182.393 173.182 186.695 171.401 189.902 168.46C189.983 168.377 190.064 168.377 190.145 168.46C193.838 171.401 198.465 173.182 203.498 173.596C203.579 173.596 203.66 173.679 203.66 173.762L205.243 192.194C205.527 195.632 203.985 198.822 201.225 200.478L193.27 205.325H193.189V205.407ZM177.726 174.01L179.309 192.236C179.593 195.508 181.581 198.573 184.544 200.188L193.23 204.993L201.103 200.188C203.741 198.573 205.202 195.549 204.918 192.277L203.335 174.01C198.343 173.596 193.757 171.815 190.064 168.915C186.898 171.815 182.596 173.555 177.685 174.01H177.726Z" fill="black"/>
<path d="M198.749 186.147C198.384 182.087 194.894 178.815 190.957 178.815C187.02 178.815 184.057 182.087 184.382 186.147C184.706 190.206 188.237 193.478 192.174 193.478C196.111 193.478 199.074 190.206 198.749 186.147Z" fill="#4666C8"/>
<path d="M192.337 195.301C187.426 195.301 183.042 191.2 182.637 186.188C182.434 183.744 183.164 181.425 184.706 179.726C186.249 177.987 188.4 177.075 190.794 177.075C195.705 177.075 200.088 181.176 200.494 186.188C200.697 188.632 199.967 190.952 198.424 192.65C196.882 194.389 194.731 195.301 192.337 195.301ZM190.794 177.407C188.521 177.407 186.452 178.318 184.991 179.933C183.529 181.59 182.799 183.786 183.002 186.105C183.408 190.91 187.588 194.845 192.337 194.845C194.609 194.845 196.679 193.934 198.14 192.318C199.601 190.662 200.332 188.466 200.129 186.147C199.723 181.342 195.543 177.407 190.794 177.407Z" fill="black"/>
<path d="M191.606 189.626C191.606 189.626 191.363 189.585 191.281 189.502L187.75 186.064C187.75 186.064 187.547 185.567 187.75 185.36C187.953 185.153 188.237 185.153 188.44 185.36L191.484 188.342L194.406 182.916C194.528 182.667 194.853 182.584 195.056 182.709C195.299 182.833 195.381 183.164 195.259 183.371L192.012 189.378C192.012 189.378 191.809 189.626 191.647 189.626C191.647 189.626 191.606 189.626 191.565 189.626H191.606Z" fill="white"/>
<path d="M167.214 207.81H156.418L155.566 197.952H166.362L167.214 207.81Z" fill="#89B9E6"/>
<path d="M168.797 208.017H158.001C158.001 208.017 157.798 207.934 157.798 207.851L156.946 198.034C156.946 198.034 156.946 197.91 156.986 197.869C157.027 197.827 157.068 197.786 157.149 197.786H167.945C167.945 197.786 168.148 197.869 168.148 197.952L169 207.768C169 207.768 169 207.893 168.959 207.934C168.959 207.975 168.878 208.017 168.797 208.017ZM158.163 207.603H168.553L167.742 198.159H157.352L158.163 207.603Z" fill="black"/>
<path d="M163.196 205.822C162.587 205.822 162.06 205.325 162.019 204.703L161.694 201.058C161.694 200.768 161.776 200.478 161.938 200.23C162.141 200.023 162.384 199.898 162.709 199.898C163.318 199.898 163.845 200.395 163.886 201.017L164.211 204.662C164.211 204.952 164.129 205.242 163.967 205.49C163.764 205.697 163.521 205.822 163.196 205.822ZM162.75 200.354C162.75 200.354 162.384 200.437 162.263 200.561C162.141 200.685 162.1 200.893 162.1 201.058L162.425 204.703C162.425 205.117 162.831 205.449 163.237 205.449C163.44 205.449 163.602 205.366 163.724 205.242C163.845 205.118 163.886 204.91 163.886 204.745L163.561 201.1C163.561 200.685 163.155 200.354 162.75 200.354Z" fill="black"/>
<path d="M166.362 198.159H158.813C158.813 198.159 158.61 198.076 158.61 197.993L158.407 195.798C158.326 194.721 158.651 193.685 159.34 192.898C160.03 192.111 161.004 191.697 162.06 191.697C164.251 191.697 166.159 193.52 166.362 195.756L166.565 197.952C166.565 197.952 166.565 198.076 166.524 198.117C166.524 198.159 166.443 198.2 166.362 198.2V198.159ZM158.975 197.786H166.159L165.997 195.798C165.834 193.768 164.048 192.111 162.06 192.111C161.126 192.111 160.233 192.484 159.625 193.188C159.016 193.892 158.732 194.804 158.813 195.756L158.975 197.786Z" fill="black"/>
<path d="M167.092 181.507H155.85L155.282 174.88H166.524L167.092 181.507Z" fill="#89B9E6"/>
<path d="M166.362 176.786H155.566C155.566 176.786 155.363 176.703 155.363 176.578C155.363 176.454 155.444 176.371 155.566 176.371H166.362C166.362 176.371 166.565 176.454 166.565 176.578C166.565 176.703 166.483 176.786 166.362 176.786Z" fill="black"/>
<path d="M150.046 112.997H124.233L123.909 109.186H149.721L150.046 112.997Z" fill="#4666C8"/>
<path d="M145.297 115.482H124.802C124.802 115.482 124.639 115.399 124.639 115.316C124.639 115.233 124.72 115.151 124.802 115.151H145.297C145.297 115.151 145.46 115.233 145.46 115.316C145.46 115.399 145.379 115.482 145.297 115.482Z" fill="black"/>
<path d="M149.275 121.447H126.506C126.506 121.447 126.222 121.322 126.222 121.157C126.222 120.991 126.344 120.867 126.506 120.867H149.275C149.275 120.867 149.559 120.991 149.559 121.157C149.559 121.322 149.437 121.447 149.275 121.447Z" fill="black"/>
<path d="M141.442 124.636H126.506C126.506 124.636 126.222 124.512 126.222 124.346C126.222 124.18 126.344 124.056 126.506 124.056H141.442C141.442 124.056 141.726 124.18 141.726 124.346C141.726 124.512 141.604 124.636 141.442 124.636Z" fill="black"/>
<path d="M10.4711 188.715C-19.4407 125.547 21.9975 130.062 44.0357 130.062C66.0738 130.062 75.0027 173.844 75.0027 173.844C75.0027 173.844 104.103 166.513 111.449 177.489C124.639 197.289 111.449 228.935 111.449 228.935H16.0314C16.0314 228.935 9.29415 214.52 10.4711 188.715Z" fill="#4666C9"/>
<path d="M102.033 193.105H67.9407C65.4078 193.105 63.3545 195.201 63.3545 197.786V208.39C63.3545 210.975 65.4078 213.07 67.9407 213.07H102.033C104.566 213.07 106.619 210.975 106.619 208.39V197.786C106.619 195.201 104.566 193.105 102.033 193.105Z" fill="#4666C9"/>
<path d="M100.207 213.485H69.7672C65.9927 213.485 62.9487 210.378 62.9487 206.526V199.65C62.9487 195.798 65.9927 192.691 69.7672 192.691H100.207C103.981 192.691 107.025 195.798 107.025 199.65V206.526C107.025 210.378 103.981 213.485 100.207 213.485ZM69.7672 193.561C66.4797 193.561 63.7604 196.295 63.7604 199.691V206.567C63.7604 209.922 66.4391 212.698 69.7672 212.698H100.207C103.494 212.698 106.213 209.964 106.213 206.567V199.691C106.213 196.336 103.535 193.561 100.207 193.561H69.7672Z" fill="black"/>
<path d="M20.0902 246H17.168L21.8353 229.059H27.6797L20.0902 246Z" fill="black"/>
<path d="M38.1507 246H35.2285L39.8959 229.059H45.7403L38.1507 246Z" fill="black"/>
<path d="M113.072 246H115.994L111.287 229.059H105.442L113.072 246Z" fill="black"/>
<path d="M97.6496 246H100.572L95.9044 229.059H90.0601L97.6496 246Z" fill="black"/>
<path d="M46.3896 136.027C46.3896 136.027 51.3816 153.134 81.2529 165.726C81.2529 165.726 74.3533 190.082 53.6544 197.33C53.6544 197.33 31.5351 183.04 24.1079 143.524C24.1079 143.524 35.0255 137.353 46.3896 136.027Z" fill="#F57A3E"/>
<path d="M46.3895 136.027C60.1888 133.252 68.9553 146.465 91.1558 129.317C91.1558 129.317 99.1918 128.323 101.14 138.264C101.14 138.264 81.2122 162.661 56.5766 157.483C31.941 152.305 46.4301 135.985 46.4301 135.985L46.3895 136.027Z" fill="#F57A3E"/>
<path d="M54.9531 192.277C71.6339 206.029 81.2528 176.578 140.792 170.531L144.81 155.744C144.81 155.744 87.6248 150.152 54.9531 192.318V192.277Z" fill="black"/>
<path d="M73.7039 174.383C73.7039 174.383 98.8672 153.921 144.567 148.826L138.236 164.773L73.6633 174.383H73.7039Z" fill="black"/>
<path d="M73.7039 174.797C73.7039 174.797 73.4604 174.756 73.3792 174.631C73.2575 174.466 73.2575 174.176 73.4604 174.052C73.5416 174.01 80.3194 168.708 92.4546 163.779C103.656 159.223 121.798 154.087 144.81 155.288C145.054 155.288 145.216 155.495 145.216 155.743C145.216 155.992 145.013 156.158 144.77 156.158C121.92 154.956 103.859 160.093 92.7387 164.608C80.7253 169.495 74.0286 174.714 73.9474 174.756C73.8663 174.797 73.7851 174.839 73.7039 174.839V174.797Z" fill="white"/>
<path d="M141.198 168.998L150.858 168.253L158.204 148.868C154.105 147.542 149.843 157.152 144.242 157.773L141.198 168.998Z" fill="white"/>
<path d="M141.198 169.454C141.198 169.454 140.955 169.412 140.873 169.288C140.792 169.164 140.752 169.04 140.792 168.915L143.836 157.69C143.836 157.69 144.039 157.4 144.202 157.4C146.799 157.11 149.153 154.749 151.385 152.471C153.78 150.069 156.012 147.791 158.325 148.536C158.447 148.536 158.528 148.66 158.569 148.743C158.61 148.826 158.61 148.95 158.569 149.075L151.223 168.46C151.223 168.46 151.02 168.708 150.858 168.708L141.198 169.454ZM144.567 158.146L141.726 168.543L150.533 167.88L157.595 149.199C155.85 149.033 153.942 150.98 151.913 153.051C149.762 155.246 147.286 157.732 144.526 158.187L144.567 158.146Z" fill="black"/>
<path d="M152.116 169.454C152.116 169.454 152.035 169.454 151.954 169.454C151.751 169.371 151.629 169.122 151.71 168.915L159.584 147.666C159.665 147.459 159.908 147.335 160.111 147.418C160.314 147.501 160.436 147.749 160.355 147.956L152.481 169.205C152.481 169.205 152.278 169.495 152.075 169.495L152.116 169.454Z" fill="black"/>
<path d="M155.444 160.051L148.666 154.832C148.666 154.832 155.484 145.637 159.989 147.791L155.444 160.051Z" fill="#F57A3E"/>
<path d="M42.1281 136.731C20.7799 114.861 9.13173 144.891 24.0673 143.524C24.0673 143.524 38.0289 144.932 42.1281 136.731Z" fill="#F57A3E"/>
<path d="M29.7493 134.039L31.535 140.335L40.951 142.779L41.6815 138.429L38.7999 130.932L29.7493 134.039Z" fill="white"/>
<path d="M40.951 143.193C40.951 143.193 40.8699 143.193 40.8293 143.193L31.3728 140.749C31.3728 140.749 31.1292 140.583 31.0887 140.459L29.3029 134.163C29.2217 133.956 29.3435 133.707 29.587 133.666L38.6376 130.559C38.8406 130.477 39.0841 130.559 39.1652 130.808L42.0468 138.305C42.0468 138.305 42.0468 138.471 42.0468 138.512L41.3569 142.903C41.3569 142.903 41.2757 143.11 41.1945 143.193C41.1134 143.234 41.0322 143.276 40.951 143.276V143.193ZM31.8598 139.962L40.6263 142.24L41.2351 138.429L38.5565 131.429L30.2364 134.287L31.8192 139.962H31.8598Z" fill="black"/>
<path d="M40.1393 123.021C42.4527 129.027 41.2351 135.116 37.4201 136.648C33.605 138.181 28.6535 134.536 26.3401 128.53C24.0267 122.524 25.2443 116.435 29.0594 114.902C32.8745 113.37 37.8259 117.015 40.1393 123.021Z" fill="white"/>
<path d="M35.5937 137.394C31.9815 137.394 27.9635 133.915 25.9342 128.696C24.7978 125.713 24.4325 122.607 25.0007 119.956C25.5284 117.222 26.9489 115.316 28.897 114.488C30.8857 113.701 33.1991 114.157 35.3907 115.772C37.5418 117.346 39.3681 119.873 40.5045 122.855C41.641 125.837 42.0062 128.944 41.438 131.595C40.9104 134.329 39.4899 136.234 37.5418 137.063C36.8924 137.311 36.243 137.435 35.5937 137.435V137.394ZM30.9263 114.985C30.3175 114.985 29.7899 115.109 29.2217 115.316C27.5171 116.021 26.2995 117.719 25.8125 120.163C25.3254 122.648 25.6501 125.589 26.7053 128.406C28.9376 134.163 33.6455 137.725 37.2577 136.276C38.9623 135.571 40.1799 133.873 40.6669 131.429C41.1539 128.944 40.8292 126.003 39.774 123.187C38.6782 120.37 36.9736 117.967 34.9443 116.518C33.6049 115.524 32.225 115.027 30.9263 115.027V114.985Z" fill="black"/>
<path d="M27.4359 129.772C31.941 126.542 28.41 121.115 26.4619 118.796C26.4619 118.796 36.8519 120.867 38.5971 112.997C40.3423 105.127 29.8711 105.251 28.897 110.926C21.1045 109.766 22.241 117.802 22.241 117.802C17.2489 121.985 24.4326 131.885 27.3954 129.731L27.4359 129.772Z" fill="black"/>
<path d="M71.6341 220.319C84.0128 177.241 61.447 156.199 20.577 189.005C16.9243 191.945 25.772 204.703 39.0842 203.129C58.119 200.851 65.2215 233.077 71.6747 220.319H71.6341Z" fill="#4666C9"/>
<path d="M71.634 220.733C71.634 220.733 71.5529 220.733 71.5123 220.733C71.3094 220.65 71.1876 220.443 71.2282 220.195C77.2349 199.319 75.1244 182.916 65.5867 176.371C55.7244 169.578 39.4088 174.3 20.8205 189.336C20.6581 189.46 20.374 189.46 20.2523 189.253C20.1305 189.088 20.1305 188.798 20.3335 188.673C30.1147 180.762 39.1653 175.709 47.2419 173.596C54.7503 171.649 61.244 172.353 66.0738 175.667C75.9361 182.46 78.1684 199.194 72.0399 220.443C71.9993 220.609 71.837 220.733 71.634 220.733Z" fill="black"/>
<path d="M149.884 154.294C146.109 160.051 142.7 163.903 139.778 162.537C136.855 161.17 136.653 157.069 139.331 149.365C141.442 143.234 146.515 139.755 149.437 141.122C152.359 142.489 153.414 148.909 149.884 154.294Z" fill="white"/>
<path d="M141.036 163.241C140.549 163.241 140.102 163.116 139.615 162.909C136.45 161.418 136.247 157.069 138.966 149.199C140.305 145.347 142.943 142.157 145.825 140.915C147.246 140.293 148.544 140.252 149.64 140.749C150.817 141.288 151.71 142.572 152.197 144.27C152.887 146.755 152.725 150.773 150.249 154.542C148.098 157.856 146.353 160.01 144.81 161.418C143.43 162.661 142.213 163.241 141.036 163.241ZM148.057 141.246C147.489 141.246 146.84 141.412 146.15 141.702C143.512 142.862 140.995 145.885 139.737 149.489C137.18 156.862 137.261 160.88 139.981 162.122C142.253 163.199 145.176 160.673 149.559 154.045C151.872 150.524 152.035 146.797 151.385 144.477C150.979 142.986 150.208 141.909 149.275 141.495C148.91 141.329 148.504 141.246 148.057 141.246Z" fill="black"/>
<path d="M152.035 145.968C152.035 145.968 151.913 145.968 151.872 145.968L144.445 142.489C144.242 142.406 144.161 142.157 144.242 141.909C144.323 141.66 144.567 141.619 144.81 141.702L152.238 145.181C152.441 145.264 152.522 145.513 152.441 145.761C152.359 145.927 152.238 146.01 152.075 146.01L152.035 145.968Z" fill="black"/>
<path d="M151.751 150.442C151.751 150.442 151.629 150.442 151.588 150.442L141.32 145.637C141.117 145.554 141.036 145.305 141.117 145.057C141.198 144.85 141.442 144.767 141.685 144.85L151.953 149.655C152.156 149.738 152.238 149.986 152.156 150.235C152.075 150.4 151.953 150.483 151.791 150.483L151.751 150.442Z" fill="black"/>
<path d="M150.208 154.252C150.208 154.252 150.087 154.252 150.046 154.252L139.412 149.282C139.21 149.199 139.128 148.951 139.21 148.702C139.291 148.495 139.534 148.412 139.778 148.495L150.411 153.465C150.614 153.548 150.695 153.797 150.614 154.045C150.533 154.211 150.411 154.294 150.249 154.294L150.208 154.252Z" fill="black"/>
<path d="M147.814 157.732C147.814 157.732 147.692 157.732 147.651 157.732L138.114 153.258C137.911 153.175 137.83 152.927 137.911 152.678C137.992 152.471 138.235 152.388 138.479 152.471L148.017 156.945C148.22 157.028 148.301 157.276 148.22 157.525C148.138 157.69 148.017 157.773 147.854 157.773L147.814 157.732Z" fill="black"/>
<path d="M145.216 161.045C145.216 161.045 145.094 161.045 145.054 161.045L137.627 157.566C137.424 157.483 137.343 157.235 137.424 156.986C137.505 156.738 137.748 156.696 137.992 156.779L145.419 160.258C145.622 160.341 145.703 160.59 145.622 160.838C145.541 161.004 145.419 161.087 145.257 161.087L145.216 161.045Z" fill="black"/>
<path d="M29.3436 127.784C30.7235 129.731 30.6424 132.258 29.1407 133.335C27.639 134.453 25.285 133.749 23.9051 131.761C22.5252 129.814 22.6064 127.287 24.108 126.21C25.6097 125.092 27.9637 125.796 29.3436 127.784Z" fill="white"/>
<path d="M27.4766 134.246C27.1113 134.246 26.746 134.204 26.3402 134.08C25.2849 133.749 24.2703 133.003 23.5397 131.968C22.0381 129.814 22.1598 127.039 23.8644 125.837C24.7167 125.216 25.772 125.092 26.8678 125.423C27.923 125.755 28.9377 126.5 29.6682 127.536C29.79 127.743 29.7494 127.991 29.587 128.116C29.3841 128.24 29.1406 128.198 29.0188 128.033C28.41 127.163 27.5577 126.542 26.6649 126.252C25.8125 126.003 25.0008 126.086 24.3515 126.542C23.0527 127.494 22.9715 129.731 24.2297 131.512C24.8385 132.382 25.6908 133.003 26.5837 133.293C27.436 133.542 28.2477 133.459 28.8971 133.003C29.1 132.879 29.3435 132.92 29.4653 133.086C29.587 133.293 29.5464 133.542 29.3841 133.666C28.8565 134.08 28.2071 134.287 27.5172 134.287L27.4766 134.246Z" fill="black"/>
<path d="M24.1079 143.483C15.8284 147.625 13.8803 178.525 22.2816 181.756C30.6829 184.987 59.8641 177.489 59.8641 177.489C59.8641 177.489 63.0298 169.454 59.8641 163.033L33.6456 165.353C33.6456 165.353 35.0256 138.057 24.1079 143.483Z" fill="#F57A3E"/>
<path d="M33.6456 165.767C33.6456 165.767 33.4426 165.767 33.3615 165.643C33.2803 165.56 33.2397 165.477 33.2397 165.353L32.7527 153.507C32.7527 153.258 32.915 153.092 33.1585 153.051C33.4021 153.051 33.5644 153.217 33.605 153.465L34.092 164.856L59.8641 162.578C60.1076 162.578 60.3105 162.744 60.3105 162.951C60.3105 163.199 60.1482 163.406 59.9452 163.406L33.7268 165.726L33.6456 165.767Z" fill="black"/>
<path d="M30.2363 140.749C25.7719 140.749 23.012 139.796 21.9568 137.85C20.9827 136.068 21.8756 133.915 22.5656 132.92C22.6873 132.713 22.9714 132.672 23.1338 132.796C23.2961 132.92 23.3773 133.21 23.2555 133.376C23.1744 133.459 21.7133 135.654 22.6873 137.435C23.6208 139.216 26.6648 140.045 31.4945 139.879C31.738 139.879 31.9003 140.045 31.9409 140.293C31.9409 140.542 31.7786 140.708 31.5351 140.749C31.0886 140.749 30.6422 140.749 30.2363 140.749Z" fill="black"/>
<path d="M66.6013 158.519C66.6013 158.519 66.439 158.519 66.3578 158.436C66.0331 158.187 58.0783 152.264 54.5879 145.057C54.4661 144.85 54.5879 144.601 54.7908 144.477C54.9937 144.394 55.2373 144.477 55.359 144.684C58.7682 151.684 66.8042 157.69 66.8854 157.732C67.0883 157.856 67.1289 158.146 66.9666 158.311C66.8854 158.436 66.7637 158.477 66.6419 158.477L66.6013 158.519Z" fill="black"/>
<path d="M92.4951 131.222C92.4951 131.222 93.7533 135.406 99.1106 137.85C103.737 131.678 107.39 133.583 110.231 129.524C110.231 129.524 110.759 123.311 105.523 121.198L99.1512 126.045L97.1219 122.399C97.1219 122.399 95.8637 127.908 92.5357 131.222H92.4951Z" fill="white"/>
<path d="M99.0702 138.264C99.0702 138.264 98.9484 138.264 98.8673 138.222C98.6643 138.098 98.5832 137.85 98.7049 137.642C100.288 134.743 102.561 133.666 104.752 132.672C106.497 131.885 108.324 131.057 109.866 129.234C110.028 129.068 110.272 129.027 110.434 129.234C110.597 129.4 110.637 129.648 110.434 129.814C108.77 131.761 106.863 132.631 105.036 133.459C102.885 134.453 100.815 135.406 99.3543 138.057C99.2731 138.181 99.1514 138.264 98.989 138.264H99.0702Z" fill="black"/>
<path d="M92.4952 131.636C92.4952 131.636 92.2517 131.595 92.1705 131.471C92.0081 131.305 92.0487 131.015 92.2111 130.891C92.2111 130.891 95.255 128.24 96.6349 122.275C96.6755 122.068 96.919 121.902 97.122 121.944C97.3249 121.985 97.4872 122.234 97.4467 122.441C95.9856 128.696 92.8605 131.388 92.7387 131.471C92.6575 131.554 92.5764 131.554 92.4546 131.554L92.4952 131.636Z" fill="black"/>
<path d="M97.1219 128.447C97.1219 128.447 96.8784 128.405 96.7972 128.281C96.6349 128.115 96.6754 127.826 96.8784 127.701L103.737 122.068C103.737 122.068 104.184 121.944 104.306 122.151C104.468 122.317 104.427 122.606 104.224 122.731L97.3654 128.364C97.3654 128.364 97.2031 128.447 97.1219 128.447Z" fill="black"/>
<path d="M103.494 131.264C103.494 131.264 103.129 131.139 103.088 130.974C103.007 130.767 103.169 130.518 103.372 130.435C103.372 130.435 107.39 129.234 109.419 126.542C109.541 126.376 109.825 126.334 109.988 126.459C110.15 126.583 110.191 126.873 110.069 127.039C107.877 129.938 103.778 131.181 103.616 131.222C103.616 131.222 103.534 131.222 103.494 131.222V131.264Z" fill="black"/>
<path d="M101.302 127.867C101.302 127.867 101.059 127.826 100.978 127.701C100.815 127.536 100.856 127.246 101.059 127.121L107.187 122.068C107.187 122.068 107.634 121.944 107.755 122.151C107.918 122.317 107.877 122.606 107.674 122.731L101.546 127.784C101.546 127.784 101.383 127.867 101.302 127.867Z" fill="black"/>
<path d="M102.358 129.441C102.358 129.441 102.073 129.358 101.992 129.193C101.911 128.985 101.992 128.737 102.195 128.613C102.236 128.613 106.7 126.376 108.608 123.518C108.73 123.311 109.014 123.269 109.176 123.394C109.379 123.518 109.42 123.808 109.298 123.974C107.228 127.039 102.723 129.275 102.56 129.358C102.52 129.358 102.439 129.4 102.398 129.4L102.358 129.441Z" fill="black"/>
<path d="M79.5887 166.347C80.1569 165.933 80.9687 166.057 81.4151 166.637C81.821 167.217 81.6992 168.045 81.131 168.501L80.9687 168.625L83.6473 172.436L82.0239 173.596L80.6845 171.691L79.0611 172.85L79.7511 173.844L78.1276 175.004L76.0983 172.063L61.8933 182.419L60.3916 180.265L79.5887 166.223V166.347Z" fill="#89B9E6"/>
<path d="M61.8122 182.626L60.3105 180.472C60.3105 180.472 60.3105 180.389 60.3105 180.348C60.3105 180.348 60.3105 180.265 60.3511 180.265L79.5483 166.223C80.1976 165.767 81.0905 165.892 81.5776 166.554C82.0646 167.217 81.9023 168.128 81.2529 168.625L83.8504 172.353C83.891 172.436 83.8504 172.519 83.8504 172.56L82.2269 173.72C82.2269 173.72 82.1458 173.72 82.1052 173.72C82.1052 173.72 82.024 173.72 82.024 173.679L80.7658 171.898L79.3859 172.892L79.9947 173.762C79.9947 173.762 79.9947 173.844 79.9947 173.886C79.9947 173.886 79.9947 173.969 79.9541 173.969L78.3307 175.129C78.3307 175.129 78.2495 175.129 78.2089 175.129C78.2089 175.129 78.1278 175.129 78.1278 175.087L76.1796 172.27L62.0963 182.543C62.0152 182.543 61.9746 182.543 61.934 182.501L61.8122 182.626ZM76.2202 172.063L78.1683 174.88L79.5483 173.886L78.9395 173.016C78.9395 173.016 78.9395 172.933 78.9395 172.892C78.9395 172.892 78.9395 172.809 78.9801 172.809L80.6035 171.649C80.6035 171.649 80.6847 171.649 80.7253 171.649C80.7253 171.649 80.8064 171.649 80.8064 171.691L82.0646 173.472L83.4445 172.478L80.847 168.791C80.847 168.791 80.847 168.708 80.847 168.667C80.847 168.667 80.847 168.584 80.8876 168.584L81.0499 168.46C81.5776 168.087 81.6993 167.341 81.3341 166.803C80.9688 166.264 80.2382 166.14 79.7106 166.513L60.6352 180.43L61.9746 182.336L76.0579 172.063C76.139 172.063 76.1796 172.063 76.2202 172.105V172.063Z" fill="black"/>
<path d="M76.1797 172.312L79.7512 169.702C79.7512 169.702 79.8324 169.578 79.7512 169.495C79.7107 169.412 79.6295 169.412 79.5483 169.495L75.9768 172.105C75.9768 172.105 75.8956 172.229 75.9768 172.312C76.0173 172.353 76.0985 172.395 76.1391 172.353L76.1797 172.312Z" fill="black"/>
<path d="M68.9148 175.17C68.9148 175.17 68.9148 175.17 68.9554 175.17L77.8032 168.708C77.8032 168.708 77.9249 168.46 77.8437 168.335C77.7626 168.211 77.6002 168.211 77.4785 168.294L68.6307 174.756C68.6307 174.756 68.509 175.004 68.5902 175.129C68.6713 175.211 68.7931 175.253 68.8743 175.211L68.9148 175.17Z" fill="white"/>
<path d="M78.7772 168.004C78.7772 168.004 78.7772 168.004 78.8177 168.004L80.1977 167.01C80.1977 167.01 80.3194 166.762 80.2382 166.637C80.1571 166.513 79.9947 166.513 79.873 166.596L78.4931 167.59C78.4931 167.59 78.3713 167.838 78.4525 167.963C78.5336 168.046 78.6554 168.087 78.7366 168.046L78.7772 168.004Z" fill="white"/>
<path d="M53.8169 185.277C54.9127 188.176 58.119 189.626 60.96 188.508C63.801 187.389 65.2215 184.117 64.1257 181.217C63.0299 178.318 59.8236 176.868 56.9826 177.987C54.1416 179.105 52.7211 182.377 53.8169 185.277ZM56.3332 184.283C55.765 182.791 56.4956 181.093 57.9566 180.513C59.4177 179.933 61.0818 180.679 61.65 182.17C62.2182 183.661 61.4876 185.36 60.0265 185.939C58.5654 186.519 56.9014 185.774 56.3332 184.283Z" fill="#89B9E6"/>
<path d="M53.6951 185.318C52.5586 182.336 54.0197 178.981 56.9419 177.821C59.8641 176.661 63.1516 178.152 64.288 181.135C65.4244 184.117 63.9633 187.472 61.0411 188.632C58.1189 189.792 54.8315 188.3 53.6951 185.318ZM53.9792 185.235C55.0344 188.052 58.1595 189.46 60.9599 188.383C63.7604 187.306 65.0997 184.117 64.0445 181.259C62.9892 178.442 59.8641 177.034 57.0637 178.111C54.3038 179.188 52.9239 182.377 53.9792 185.235ZM56.2114 184.324C55.6026 182.75 56.3737 180.969 57.916 180.348C59.4583 179.726 61.2034 180.513 61.8122 182.087C62.421 183.661 61.6499 185.442 60.1076 186.064C58.5654 186.685 56.8202 185.898 56.2114 184.324ZM56.4955 184.241C57.0231 185.649 58.6059 186.354 59.9859 185.815C61.3658 185.277 62.0557 183.661 61.5281 182.253C61.0005 180.845 59.4177 180.14 58.0377 180.679C56.6578 181.217 55.9679 182.833 56.4955 184.241Z" fill="black"/>
<path d="M61.0411 179.685C61.0411 179.685 61.1223 179.643 61.1629 179.561C61.2441 179.436 61.1629 179.271 61.0411 179.229C59.9047 178.608 58.5654 178.525 57.3478 179.022C56.6579 179.271 56.0491 179.726 55.6026 180.265C55.5215 180.389 55.5215 180.513 55.6026 180.638C55.7244 180.72 55.8461 180.72 55.9679 180.638C56.3738 180.14 56.942 179.768 57.5102 179.519C58.5654 179.105 59.783 179.188 60.757 179.726C60.8382 179.726 60.8788 179.726 60.96 179.726L61.0411 179.685Z" fill="white"/>
<path d="M59.0117 165.395C59.0117 165.395 56.9012 168.501 59.0117 174.921C63.4356 175.294 63.3138 180.016 63.3138 180.016C69.7264 180.141 71.5933 175.874 71.5933 175.874C71.5933 175.874 69.8482 161.46 59.0117 165.353V165.395Z" fill="white"/>
<path d="M71.634 176.33C71.4311 176.33 71.2281 176.164 71.2281 175.957C71.2281 175.874 70.4164 168.998 66.3173 166.306C64.3691 165.022 61.9746 164.856 59.1741 165.809C58.9712 165.892 58.7277 165.767 58.6465 165.56C58.5653 165.353 58.6871 165.105 58.89 165.022C61.934 163.986 64.5721 164.193 66.7231 165.602C68.5901 166.803 70.0917 168.998 71.0658 171.856C71.7964 174.01 71.9993 175.791 71.9993 175.874C71.9993 176.123 71.8775 176.33 71.634 176.33C71.634 176.33 71.634 176.33 71.5934 176.33H71.634Z" fill="black"/>
<path d="M70.2134 178.152C70.2134 178.152 69.8888 178.028 69.8076 177.862C69.8076 177.821 68.3871 173.099 67.0072 171.359C66.8854 171.194 66.8854 170.904 67.0883 170.779C67.2507 170.655 67.5348 170.655 67.6565 170.862C69.1176 172.726 70.5381 177.448 70.5787 177.655C70.6599 177.862 70.5381 178.111 70.2946 178.194C70.2946 178.194 70.2135 178.194 70.1729 178.194L70.2134 178.152Z" fill="black"/>
<path d="M63.3544 180.472C63.1109 180.472 62.9486 180.265 62.9486 180.058C62.9486 175.584 59.1741 175.377 59.0523 175.377C58.8088 175.377 58.6465 175.17 58.6465 174.922C58.6465 174.673 58.8494 174.507 59.0929 174.507C59.1335 174.507 63.8009 174.756 63.8009 180.058C63.8009 180.306 63.598 180.472 63.395 180.472H63.3544Z" fill="black"/>
<path d="M65.3431 180.348C65.3431 180.348 65.3431 180.348 65.3026 180.348C65.059 180.348 64.9373 180.099 64.9373 179.851C65.3431 177.117 64.0038 174.59 64.0038 174.59C63.8821 174.383 64.0038 174.134 64.1662 174.01C64.3691 173.886 64.6126 174.01 64.7344 174.176C64.7749 174.3 66.1954 176.951 65.7896 179.975C65.7896 180.182 65.5867 180.348 65.3837 180.348H65.3431Z" fill="black"/>
<path d="M68.1434 179.561C68.1434 179.561 67.7782 179.395 67.7376 179.188C67.7376 179.188 67.3317 176.495 65.6271 173.099C65.5053 172.892 65.6271 172.643 65.7894 172.519C65.9924 172.395 66.2359 172.519 66.3576 172.685C68.1028 176.205 68.5493 178.898 68.5493 179.022C68.5493 179.271 68.4275 179.478 68.184 179.519C68.184 179.519 68.1434 179.519 68.1028 179.519L68.1434 179.561Z" fill="black"/>
<path d="M204.147 56.5813H105.442C103.94 56.5813 102.642 55.3387 102.52 53.8475L101.668 43.6994C101.546 42.1668 102.642 40.9656 104.143 40.9656H202.848C204.35 40.9656 205.649 42.2082 205.771 43.6994L206.623 53.8475C206.745 55.3801 205.649 56.5813 204.147 56.5813Z" fill="#4666C8"/>
<path d="M123.544 48.7526C123.381 46.9715 121.839 45.5217 120.134 45.5217C118.43 45.5217 117.091 46.9715 117.253 48.7526C117.415 50.5337 118.957 51.9834 120.662 51.9834C122.367 51.9834 123.706 50.5337 123.544 48.7526Z" fill="#89B9E6"/>
<path d="M182.15 52.522H133.933C131.823 52.522 129.956 50.7823 129.753 48.6284C129.55 46.4745 131.133 44.7349 133.244 44.7349H181.46C183.57 44.7349 185.437 46.4745 185.64 48.6284C185.843 50.7823 184.26 52.522 182.15 52.522Z" fill="white"/>
<path d="M174.438 44.9419H140.306C140.306 44.9419 140.062 44.8176 140.062 44.6934C140.062 44.5691 140.184 44.4448 140.306 44.4448H174.438C174.438 44.4448 174.682 44.5691 174.682 44.6934C174.682 44.8176 174.56 44.9419 174.438 44.9419Z" fill="black"/>
<path d="M142.538 48.8769H136.044C136.044 48.8769 135.801 48.7527 135.801 48.6284C135.801 48.5041 135.922 48.3799 136.044 48.3799H142.538C142.538 48.3799 142.781 48.5041 142.781 48.6284C142.781 48.7527 142.66 48.8769 142.538 48.8769Z" fill="#89B9E6"/>
<path d="M170.583 48.8769H147.976C147.976 48.8769 147.733 48.7527 147.733 48.6284C147.733 48.5041 147.855 48.3799 147.976 48.3799H170.583C170.583 48.3799 170.826 48.5041 170.826 48.6284C170.826 48.7527 170.705 48.8769 170.583 48.8769Z" fill="black"/>
<path d="M111.733 52.4804C111.733 52.4804 111.611 52.4804 111.571 52.3976L107.715 48.7939C107.715 48.7939 107.593 48.5454 107.715 48.4626L110.921 44.8589C110.921 44.8589 111.165 44.7347 111.246 44.8589C111.327 44.9418 111.368 45.1075 111.246 45.1903L108.161 48.6283L111.814 52.0662C111.814 52.0662 111.936 52.3147 111.814 52.3976C111.774 52.439 111.692 52.4804 111.652 52.4804H111.733Z" fill="white"/>
<path d="M125.532 48.9597H115.305C115.305 48.9597 115.061 48.8354 115.061 48.7112C115.061 48.5869 115.183 48.4626 115.305 48.4626H125.532C125.532 48.4626 125.776 48.5869 125.776 48.7112C125.776 48.8354 125.654 48.9597 125.532 48.9597Z" fill="white"/>
<path d="M201.022 50.6581H191.119L190.794 46.8059H200.697L201.022 50.6581Z" fill="#89B9E6"/>
<path d="M201.022 50.9064C201.022 50.9064 200.779 50.8236 200.779 50.6993L200.454 47.0957H190.795C190.795 47.0957 190.551 46.9714 190.551 46.8472C190.551 46.7229 190.673 46.5986 190.795 46.5986H200.657C200.657 46.5986 200.9 46.6815 200.9 46.8057L201.225 50.6165C201.225 50.6165 201.144 50.865 201.022 50.865V50.9064Z" fill="black"/>
<path d="M183.408 48.7526C183.327 47.7171 182.434 46.8887 181.419 46.8887C180.405 46.8887 179.674 47.7171 179.755 48.7526C179.836 49.7882 180.729 50.6166 181.744 50.6166C182.759 50.6166 183.489 49.7882 183.408 48.7526Z" fill="#D7E4F2"/>
<path d="M204.147 56.7883H105.442C105.442 56.7883 105.199 56.664 105.199 56.5398C105.199 56.4155 105.32 56.2913 105.442 56.2913H204.147C204.147 56.2913 204.391 56.4155 204.391 56.5398C204.391 56.664 204.269 56.7883 204.147 56.7883Z" fill="black"/>
<path d="M61.6095 34.0067C61.4472 32.2256 59.9049 30.7759 58.1597 30.7759C56.4145 30.7759 55.1158 32.2256 55.2781 34.0067C55.4405 35.7878 56.9827 37.2376 58.7279 37.2376C60.4731 37.2376 61.7719 35.7878 61.6095 34.0067Z" fill="#F47A3E"/>
<path d="M72.3649 34.0067C72.2025 32.2256 70.6603 30.7759 68.9151 30.7759C67.1699 30.7759 65.8711 32.2256 66.0335 34.0067C66.1958 35.7878 67.7381 37.2376 69.4833 37.2376C71.2285 37.2376 72.5272 35.7878 72.3649 34.0067Z" fill="#89B9E6"/>
<path d="M82.7142 34.0067C82.5519 32.2256 81.0096 30.7759 79.2645 30.7759C77.5193 30.7759 76.2205 32.2256 76.3828 34.0067C76.5452 35.7878 78.0875 37.2376 79.8327 37.2376C81.5778 37.2376 82.8766 35.7878 82.7142 34.0067Z" fill="#4666C8"/>
</g>
<defs>
<clipPath id="clip0_108_284">
<rect width="399" height="246" fill="white"/>
</clipPath>
</defs>
</svg>
