<svg width="20" height="20" viewBox="0 0 20 20" fill="none" xmlns="http://www.w3.org/2000/svg">
<path d="M10 0.499994C11.3164 0.498724 12.5487 0.748759 13.7012 1.24706C14.8639 1.74983 15.8696 2.42688 16.7217 3.27831C17.5737 4.12967 18.2512 5.13548 18.7539 6.29882C19.2522 7.45192 19.5019 8.68355 19.5 9.99902C19.4981 11.3156 19.2485 12.5491 18.7529 13.7031C18.2537 14.8656 17.5759 15.8697 16.7217 16.7207C15.8666 17.5726 14.8613 18.2505 13.7012 18.7539C12.5518 19.2526 11.32 19.5025 10.001 19.5H10C8.6817 19.5 7.44924 19.2504 6.29785 18.7539C5.13695 18.2533 4.13174 17.5757 3.27832 16.7217C2.42484 15.8675 1.74771 14.8624 1.24707 13.7021C0.750602 12.5515 0.500665 11.319 0.5 9.99999C0.499365 8.68132 0.749479 7.44922 1.24707 6.29882C1.74916 5.13809 2.42685 4.13265 3.2793 3.27831C4.13116 2.42458 5.13578 1.747 6.29785 1.24706C7.45073 0.751131 8.68315 0.501326 10 0.499994ZM9.94824 13C9.46974 13.0018 9.04577 13.1721 8.70898 13.5098C8.373 13.8467 8.20294 14.2697 8.2002 14.7471C8.19745 15.2288 8.36922 15.655 8.71094 15.9932C9.0498 16.3283 9.47299 16.5 9.9502 16.5C10.4294 16.4999 10.8533 16.3283 11.1914 15.9902C11.5295 15.6521 11.7011 15.2282 11.7002 14.749C11.6993 14.2714 11.5289 13.8481 11.1934 13.5098C10.8555 13.169 10.4293 12.9982 9.94824 13ZM10.0996 3.49999C9.05938 3.50006 8.16552 3.7757 7.46484 4.36816C6.80724 4.92424 6.34065 5.60041 6.07617 6.3916L5.92578 6.84179L6.36719 7.01562L8.0166 7.66503L8.5332 7.86913L8.68164 7.33398C8.73927 7.12651 8.88059 6.86362 9.14648 6.54492C9.31552 6.34231 9.59888 6.20026 10.0996 6.20019C10.5436 6.20019 10.7885 6.31986 10.9307 6.47558C11.1249 6.68832 11.2001 6.89187 11.2002 7.0996C11.2002 7.32571 11.134 7.54163 10.9873 7.75585C10.816 8.00593 10.598 8.24314 10.3301 8.46581L10.3184 8.47558C9.94411 8.8073 9.63436 9.10603 9.39355 9.36913C9.15787 9.62667 8.96675 9.87314 8.85254 10.1016C8.62792 10.551 8.5498 11.2683 8.5498 12.1504V12.6504H11.4004V12.1504C11.4004 11.6296 11.4605 11.2673 11.5527 11.0342C11.6332 10.8309 11.9106 10.464 12.4932 9.91406L12.498 9.9082L12.5039 9.90331C12.9552 9.45203 13.3222 9.01144 13.5967 8.58105C13.9065 8.09521 14.0497 7.52727 14.0498 6.90038C14.0498 5.82655 13.6468 4.95146 12.8203 4.34667C12.0425 3.77756 11.1277 3.49999 10.0996 3.49999Z" fill="black" stroke="black"/>
</svg>
