<svg width="18" height="22" viewBox="0 0 18 22" fill="none" xmlns="http://www.w3.org/2000/svg">
<path d="M12 18C12 18.7956 11.6839 19.5587 11.1213 20.1213C10.5587 20.6839 9.79564 21 8.99999 21C8.20434 21 7.44128 20.6839 6.87867 20.1213C6.31606 19.5587 5.99999 18.7956 5.99999 18M9.72099 4.003L8.25499 4C4.91099 3.992 2.00799 6.709 1.98499 10V13.79C1.98499 14.58 1.88499 15.351 1.45399 16.008L1.16699 16.446C0.729988 17.11 1.19999 18 1.98499 18H16.015C16.8 18 17.269 17.11 16.833 16.446L16.546 16.008C16.116 15.351 16.015 14.579 16.015 13.789V10.001C15.975 6.709 13.065 4.011 9.72099 4.003Z" stroke="#6C6C6C" stroke-width="1.5" stroke-linecap="round" stroke-linejoin="round"/>
<path d="M9 1C9.53043 1 10.0391 1.21071 10.4142 1.58579C10.7893 1.96086 11 2.46957 11 3V4H7V3C7 2.46957 7.21071 1.96086 7.58579 1.58579C7.96086 1.21071 8.46957 1 9 1Z" stroke="#6C6C6C" stroke-width="1.5" stroke-linecap="round" stroke-linejoin="round"/>
</svg>
